<svg width="94" height="94" viewBox="0 0 94 94" fill="none" xmlns="http://www.w3.org/2000/svg">
<rect width="94" height="94" rx="10" fill="#FFB8B8"/>
<path d="M42.0664 15.7637L39.6348 23H37.9297L41.1172 14.4688H42.207L42.0664 15.7637ZM44.0996 23L41.6562 15.7637L41.5098 14.4688H42.6055L45.8105 23H44.0996ZM43.9883 19.8301V21.1016H39.4121V19.8301H43.9883ZM48.2129 14V23H46.6602V14H48.2129ZM51.3301 14V23H49.7773V14H51.3301ZM55.8066 16.6602V17.7734H52.1738V16.6602H55.8066ZM53.1465 15.1016H54.6992V21.1719C54.6992 21.3594 54.7246 21.5039 54.7754 21.6055C54.8262 21.707 54.9023 21.7754 55.0039 21.8105C55.1055 21.8457 55.2266 21.8633 55.3672 21.8633C55.4688 21.8633 55.5625 21.8574 55.6484 21.8457C55.7344 21.834 55.8066 21.8223 55.8652 21.8105L55.8711 22.9707C55.7422 23.0137 55.5957 23.0488 55.4316 23.0762C55.2715 23.1035 55.0898 23.1172 54.8867 23.1172C54.5391 23.1172 54.2344 23.0586 53.9727 22.9414C53.7109 22.8203 53.5078 22.627 53.3633 22.3613C53.2188 22.0918 53.1465 21.7363 53.1465 21.2949V15.1016Z" fill="#373737"/>
<g clip-path="url(#clip0_756_1405)">
<path d="M19.7459 55.9752C18.431 56.436 17.5406 56.0955 17.0201 55.7269C15.9295 54.9569 15.7624 53.6308 15.7347 53.0955C15.7215 52.822 15.6934 52.4744 15.6553 52.0677C15.4297 49.5532 15.0099 44.8646 17.4544 41.7325C19.1004 39.6232 23.1254 37.6678 26.3442 36.5398C28.2968 35.8556 33.1793 34.3661 36.3509 35.3202C41.0044 36.7145 44.4299 43.4885 44.5757 43.7778C44.5986 43.8265 44.621 43.8754 44.6404 43.9308C45.2905 45.7859 44.6042 47.2697 42.8035 47.9007L19.7476 55.9801L19.7459 55.9752Z" fill="white"/>
<path d="M20.1114 57.0331C18.2788 57.6753 16.9996 57.066 16.3996 56.6456C15.3386 55.8981 14.6941 54.6144 14.6313 53.1243C14.6252 52.9249 14.5998 52.6332 14.57 52.2917L14.5581 52.1556C14.3212 49.4793 13.8809 44.4977 16.5893 41.0267C18.3845 38.7313 22.6135 36.6561 25.973 35.4788C28.5211 34.5859 33.2946 33.2377 36.6391 34.2397C41.6522 35.7435 45.163 42.5088 45.547 43.2751C45.5948 43.3674 45.6339 43.4652 45.667 43.5596C46.5235 46.0038 45.5444 48.1203 43.1723 48.9515L20.1112 57.0327L20.1114 57.0331ZM26.718 37.6063C22.8478 38.9625 19.5485 40.8647 18.3136 42.4526C16.1353 45.2456 16.5299 49.6405 16.742 52.002C16.7806 52.4279 16.8133 52.7927 16.8254 53.0782C16.8607 53.8392 17.1607 54.4901 17.6287 54.8178C18.0785 55.1335 18.665 55.1679 19.371 54.9205L42.4313 46.8396C43.6554 46.4106 44.0521 45.5534 43.6102 44.2923C43.5842 44.2417 40.3176 37.6744 36.062 36.3964C34.046 35.7914 30.6404 36.2318 26.718 37.6063Z" fill="#4C2F1B"/>
<path d="M20.0652 56.9015C18.2891 57.5239 17.0533 56.9367 16.4751 56.5316C15.4512 55.8099 14.8281 54.5669 14.7669 53.1211C14.7608 52.9217 14.7353 52.627 14.7053 52.2822L14.6933 52.146C14.4571 49.4755 14.0212 44.5426 16.696 41.1148C18.4733 38.8426 22.6774 36.782 26.0189 35.6111C28.5514 34.7236 33.2946 33.3825 36.603 34.3738C41.5605 35.8612 45.0448 42.5767 45.426 43.338C45.4718 43.4259 45.5079 43.5178 45.5388 43.606C46.3672 45.97 45.4198 48.0171 43.1256 48.8211L20.0654 56.902L20.0652 56.9015ZM26.6719 37.4746C22.7788 38.8389 19.4566 40.7581 18.2069 42.3646C15.9954 45.2006 16.393 49.6317 16.607 52.0124C16.645 52.4351 16.6779 52.7979 16.6898 53.0814C16.7273 53.8875 17.0498 54.5788 17.5534 54.9323C18.0414 55.2745 18.6682 55.3151 19.4173 55.0526L42.4775 46.9717C43.7683 46.5194 44.204 45.5774 43.738 44.2475C43.588 43.9422 40.3498 37.5402 36.0978 36.2629C34.0558 35.6496 30.62 36.0911 26.6719 37.4746Z" fill="#4C2F1B"/>
<path d="M27.6799 52.4404L24.1584 42.3914L30.9312 40.1031L34.4259 50.0759L27.6797 52.44L27.6799 52.4404Z" fill="#4C2F1B"/>
<path d="M25.1084 42.8702L30.4855 41.0482L33.4826 49.6007L28.1249 51.4782L25.1084 42.8702ZM23.2134 41.9113L27.2395 53.4005L35.3746 50.5498L31.3803 39.1514L30.0012 39.6177L24.6222 41.4345L23.2134 41.9113Z" fill="#4C2F1B"/>
<path d="M10.7079 48.2081C10.4317 39.3576 16.459 35.0138 24.4077 32.2283C31.9202 29.5957 38.5628 29.5002 44.309 36.4394C49.6913 42.9382 34.4721 39.4216 27.7535 41.776C21.0344 44.1306 10.9696 56.6352 10.7079 48.2081Z" fill="#FF6C4A"/>
<path d="M22.3837 33.3029C22.3837 33.3029 23.2741 38.2178 26.1099 42.0653C26.1099 42.0653 26.8716 41.3783 28.927 41.0497C28.927 41.0497 25.5993 36.5689 25.3237 32.1816C25.3169 32.1785 23.7421 32.5885 22.3837 33.3029Z" fill="#FFAF9F"/>
<path d="M33.2308 30.7342C33.9875 36.8128 36.6896 40.6046 36.6896 40.6046L39.7035 40.4936C39.7035 40.4936 37.2532 35.3295 36.1612 31.2412C36.1592 31.2355 34.0167 30.7201 33.2308 30.7342Z" fill="#FFAF9F"/>
<path d="M37.4323 41.1108C36.9415 40.3307 34.6526 36.4553 33.7741 30.7528C34.5333 30.8486 35.8035 31.1824 36.2562 31.308C37.3046 35.0636 39.3134 39.6478 39.9567 41.0783L37.4323 41.1108Z" fill="#FFAF9F"/>
<path d="M26.356 42.3195C23.8482 38.6274 22.7492 34.1554 22.5169 33.1119C22.9981 32.8652 23.5493 32.6322 24.1585 32.4187C24.4877 32.3034 24.7734 32.2157 24.9746 32.1571C25.4393 36.1895 27.8731 40.1873 28.7101 41.4618C28.2617 41.5457 27.8445 41.6551 27.4663 41.7876C26.9286 41.9765 26.5688 42.1783 26.356 42.3195Z" fill="#FFAF9F"/>
<path d="M14.9708 52.2513C13.0475 52.9253 11.7536 52.4301 11.0067 51.8965C9.25216 50.6325 9.19281 48.3111 9.1728 47.5481C8.89817 36.7873 17.3457 32.5714 23.724 30.3363C30.0218 28.1293 38.1352 26.649 45.0244 34.8604C45.5332 35.466 47.0789 37.3058 46.5432 39.4013C46.3254 40.266 45.677 41.4334 43.8272 42.0816C42.0468 42.7055 39.3961 42.7718 36.5895 42.843C33.6931 42.9183 30.4099 43.0037 28.4092 43.7049C26.4291 44.3987 23.7993 46.3749 21.4793 48.1186C19.1139 49.9007 16.8846 51.5807 14.9708 52.2513ZM24.4677 32.4587C15.2183 35.6999 11.1762 40.3475 11.3609 47.5279C11.3959 48.8341 11.685 49.6645 12.2443 50.0652C12.7187 50.4057 13.3664 50.4246 14.2248 50.1238C15.8086 49.5688 17.9209 47.9825 20.1572 46.3034C22.7294 44.3723 25.3882 42.3755 27.663 41.5783C29.9753 40.7681 33.437 40.6793 36.4907 40.6006C39.1356 40.5328 41.6325 40.4686 43.0829 39.9604C43.8557 39.6896 44.2941 39.311 44.424 38.8021C44.5871 38.1621 44.2436 37.3458 43.375 36.3079C37.3934 29.174 30.4605 30.3587 24.4677 32.4587Z" fill="#4C2F1B"/>
<path d="M14.9245 52.1193C13.055 52.7744 11.8038 52.2976 11.0832 51.7826C9.38679 50.5604 9.32786 48.2926 9.30871 47.5473C9.03654 36.8762 17.4318 32.6891 23.7701 30.468C30.0275 28.2752 38.0868 26.8033 44.9219 34.95C45.4184 35.541 46.9293 37.3379 46.4116 39.3638C46.2018 40.1973 45.5754 41.3217 43.7812 41.9504C42.0206 42.5674 39.3795 42.6338 36.5838 42.7042C33.6769 42.7797 30.3824 42.8661 28.3632 43.5737C26.3624 44.2748 23.7226 46.2595 21.3934 48.0099C19.0404 49.7821 16.8185 51.4556 14.9245 52.1193ZM24.4216 32.3271C15.1084 35.5906 11.0383 40.2794 11.225 47.5288C11.2614 48.8832 11.5699 49.7496 12.168 50.1786C12.6811 50.5468 13.369 50.5715 14.2713 50.2553C15.8741 49.6937 17.9945 48.1015 20.2396 46.4159C22.8032 44.4908 25.4545 42.5001 27.71 41.7097C30.002 40.9065 33.4526 40.8177 36.4972 40.7392C39.1521 40.6709 41.6595 40.6065 43.1298 40.0913C43.9481 39.8045 44.4142 39.3948 44.5562 38.8389C44.7312 38.1515 44.3786 37.294 43.4783 36.2179C37.4419 29.0201 30.4578 30.2118 24.4216 32.3271Z" fill="#4C2F1B"/>
<path d="M13.8211 39.2236C13.8211 39.2236 14.3181 44.7556 19.0324 47.1838L20.9971 45.7498C20.9971 45.7498 17.0286 43.1075 15.5557 37.1659L13.8211 39.2236Z" fill="#FFAF9F"/>
<path d="M19.2492 47.2666C15.016 44.7525 14.0899 39.6684 13.9597 38.7908L15.2787 37.1052C16.7795 42.3487 19.7608 45.2205 20.7891 46.087L19.2492 47.2666Z" fill="#FFAF9F"/>
</g>
<g clip-path="url(#clip1_756_1405)">
<path d="M32.8591 74.3296C25.6897 75.8671 19.6378 73.4914 18.9719 73.2168C17.9483 72.7911 17.1467 71.997 16.7229 70.972C16.299 69.9467 16.2948 68.8169 16.7211 67.7939C17.2423 66.5318 18.3549 65.6042 19.6922 65.3175C20.514 65.1412 21.3563 65.218 22.1383 65.5355C22.3029 65.6019 26.3723 67.2043 31.0479 66.2016C33.8015 65.6111 36.22 64.2286 38.2348 62.0934C38.8167 61.4784 39.5571 61.0575 40.3837 60.8802C41.721 60.5934 43.1151 60.9788 44.108 61.9162C44.9167 62.6743 45.3758 63.7066 45.4096 64.8156C45.4434 65.9246 45.0389 66.982 44.2784 67.7856C41.0695 71.191 37.229 73.3925 32.8591 74.3296Z" fill="#F4A360"/>
<path d="M33.063 75.2801C25.8841 76.8195 19.7542 74.5844 18.5981 74.1208C17.3354 73.5975 16.3488 72.612 15.8232 71.3467C15.2966 70.0791 15.295 68.6853 15.8202 67.4219C16.4635 65.8634 17.8346 64.7213 19.4883 64.3666C20.4998 64.1497 21.5396 64.2374 22.4953 64.6202C22.526 64.634 26.4141 66.1915 30.8421 65.2419C33.3954 64.6943 35.6435 63.4071 37.5238 61.4156C38.2404 60.656 39.1582 60.1391 40.1783 59.9203C41.832 59.5657 43.5509 60.0453 44.7762 61.2026C45.7731 62.1451 46.3441 63.4172 46.3829 64.7839C46.4223 66.1534 45.9266 67.4568 44.9873 68.4536C41.6397 72.0045 37.6279 74.3011 33.063 75.2801ZM19.896 66.2679C18.8772 66.4864 18.0254 67.1937 17.6171 68.1601C16.945 69.7792 17.7175 71.6414 19.3386 72.3125C19.5907 72.4176 25.6086 74.8853 32.6498 73.3753C36.8152 72.482 40.4877 70.3765 43.5648 67.1173C44.1479 66.5016 44.4561 65.6946 44.4318 64.8461C44.4073 63.9968 44.0527 63.2077 43.4336 62.6247C42.6726 61.9082 41.6071 61.6115 40.5826 61.8313C39.9485 61.9672 39.3796 62.2875 38.9373 62.7577C36.7832 65.0411 34.1958 66.5199 31.2471 67.1522C26.4187 68.1876 22.2244 66.6163 21.7619 66.4337C21.1727 66.1907 20.5264 66.1327 19.896 66.2679Z" fill="#4C2F1B"/>
<path d="M34.1145 78.3939C27.8038 79.7472 21.4842 78.4529 17.6697 76.7912C16.6523 76.3493 15.8707 75.5368 15.4641 74.5031C15.058 73.4692 15.079 72.3438 15.526 71.3257C16.0607 70.1046 17.1595 69.2042 18.4646 68.9244C19.3145 68.7421 20.1875 68.8268 20.9858 69.1748C21.0495 69.1999 22.6432 69.882 24.9853 70.3164C27.6057 70.8027 30.088 70.8044 32.3631 70.3165C35.66 69.6095 38.4344 67.8689 40.6035 65.1427C41.2006 64.3934 42.0449 63.8676 42.9827 63.6665C44.204 63.4046 45.4675 63.7013 46.4448 64.4769C47.3112 65.1644 47.8631 66.1525 47.9882 67.2564C48.1133 68.3603 47.8012 69.4414 47.1134 70.3119C43.7332 74.5507 39.3615 77.2687 34.1145 78.3939Z" fill="#FF6C4A"/>
<path d="M34.3204 79.3541C27.7907 80.7544 21.237 79.4115 17.281 77.6882C16.0243 77.1389 15.0567 76.1348 14.5568 74.8602C14.0581 73.5896 14.0855 72.1959 14.6332 70.9363C15.2902 69.4276 16.6466 68.3201 18.2608 67.9739C19.3118 67.7485 20.387 67.8542 21.37 68.2791C21.3832 68.2848 22.908 68.94 25.1634 69.3611C27.6595 69.8242 30.0132 69.8259 32.1592 69.3657C35.2264 68.7079 37.8097 67.0832 39.8375 64.5363C40.5714 63.6086 41.6153 62.9605 42.7779 62.7112C44.2903 62.3868 45.8468 62.7548 47.0477 63.7208C48.1185 64.5687 48.7941 65.7869 48.9522 67.1518C49.1099 68.5126 48.7255 69.8525 47.871 70.9248C44.3519 75.3444 39.793 78.1805 34.3204 79.3541ZM18.6694 69.8792C17.6705 70.0934 16.8294 70.7794 16.419 71.7138C15.7166 73.3207 16.4527 75.1979 18.0589 75.8991C21.7338 77.501 27.8277 78.748 33.9107 77.4435C38.9325 76.3666 43.1164 73.762 46.3462 69.7015C46.8743 69.0379 47.113 68.2084 47.0171 67.3659C46.9213 66.5221 46.5024 65.7664 45.8366 65.2376C45.0846 64.6431 44.1187 64.417 43.1862 64.617C42.4674 64.7711 41.8202 65.1733 41.3637 65.75C39.0521 68.6578 36.0927 70.5151 32.5674 71.2711C30.1669 71.7859 27.5562 71.7874 24.8072 71.2755C22.2986 70.8075 20.6185 70.0779 20.602 70.0703C19.9906 69.8053 19.3222 69.7392 18.6694 69.8792Z" fill="#4C2F1B"/>
<path d="M24.9196 74.95C23.9077 75.167 23.3319 74.2713 22.9472 73.6792C22.5466 73.0566 22.3145 72.7667 22.0962 72.8136C21.5668 72.9271 21.0482 72.5919 20.9347 72.063C20.8213 71.5341 21.1569 71.0157 21.6863 70.9021C23.2325 70.5706 24.0871 71.8385 24.5594 72.567C24.8455 71.9091 25.3295 70.9265 26.4673 70.6825C27.614 70.4366 28.4953 71.1259 29.0828 71.5774C29.1882 71.6617 29.3286 71.772 29.4424 71.8497C29.5701 71.6768 29.7322 71.3897 29.8377 71.2024C30.2141 70.5344 30.6442 69.7774 31.4338 69.6081C32.2556 69.4318 33.0274 69.994 33.7075 70.4938C33.7885 70.5538 33.8805 70.6214 33.9775 70.6882C33.9873 70.6665 33.9937 70.6507 33.9991 70.63C34.2792 69.9439 34.7079 68.9059 35.7662 68.679C36.5973 68.5007 37.3203 69.0394 37.9524 69.5205C38.0157 69.5652 38.0909 69.6218 38.1661 69.6785C38.1641 69.6691 38.168 69.6636 38.167 69.6587C38.2581 68.7706 38.4245 67.1237 39.9569 66.7951C40.4863 66.6816 41.005 67.0168 41.1184 67.5457C41.2318 68.0746 40.8962 68.593 40.3668 68.7065C40.2148 68.8361 40.1442 69.5258 40.1136 69.8575C40.0366 70.6307 39.9291 71.6925 38.9122 71.9106C38.0994 72.0849 37.3937 71.557 36.7735 71.0879C36.5994 70.9554 36.3275 70.752 36.1509 70.6537C36.0312 70.8202 35.8879 71.171 35.8013 71.3789C35.5497 71.9954 35.2623 72.6929 34.5101 72.8542C33.8089 73.0046 33.1976 72.5535 32.5464 72.0769C32.3565 71.938 32.074 71.7314 31.8695 71.6156C31.758 71.7753 31.6289 72.0115 31.5369 72.1721C31.1397 72.8782 30.6839 73.6747 29.8385 73.856C29.0306 74.0292 28.3892 73.531 27.8708 73.1277C27.5034 72.8426 27.1241 72.5456 26.8688 72.6004C26.6644 72.6442 26.5043 72.9841 26.2956 73.4608C26.0683 74.01 25.7369 74.7747 24.9196 74.95Z" fill="#F9AF38"/>
<path d="M34.5881 82.9123C27.9155 84.3433 22.0891 82.8363 21.0027 82.3901C19.9785 81.9641 19.2029 81.3151 18.7636 80.5118C18.2613 79.5956 18.2231 78.5118 18.6583 77.4626C19.1795 76.2006 20.2921 75.273 21.6294 74.9862C22.4512 74.81 23.2935 74.8864 24.0758 75.2038C24.2404 75.2702 28.3098 76.8726 32.9859 75.8698C35.7395 75.2793 38.158 73.8968 40.1727 71.7616C40.7547 71.147 41.4951 70.7261 42.3217 70.5488C43.6594 70.2619 45.0531 70.6469 46.0459 71.5843C46.868 72.3592 47.3066 73.2941 47.3145 74.2823C47.3209 75.2418 46.9202 76.1815 46.1483 76.9977C42.5683 80.7835 38.4791 82.0779 34.5881 82.9123Z" fill="#F4A360"/>
<path d="M34.7884 83.8686C26.9129 85.5575 20.6788 83.3111 20.6168 83.2882C19.3919 82.7823 18.4499 81.983 17.902 80.9791C17.256 79.792 17.2024 78.4098 17.7515 77.0873C18.3948 75.5288 19.7659 74.3866 21.4196 74.032C22.4356 73.8141 23.4756 73.9047 24.4267 74.294C24.4606 74.3088 28.3793 75.8584 32.7752 74.9157C35.3285 74.3682 37.5762 73.081 39.4569 71.0895C40.1736 70.3302 41.0909 69.8131 42.111 69.5943C43.7647 69.2397 45.4836 69.7192 46.7089 70.8766C47.7298 71.8373 48.274 73.0126 48.2824 74.2752C48.2905 75.4948 47.7953 76.6675 46.8506 77.6667C43.0971 81.6489 38.835 83.0008 34.7884 83.8686ZM21.8287 75.9376C20.8086 76.1563 19.9551 76.8641 19.5457 77.8307C18.9122 79.3598 19.6095 80.7602 21.3644 81.4873C21.4172 81.5088 27.1621 83.506 34.3739 81.9594C38.1097 81.1583 42.0341 79.9214 45.4281 76.3269C46.0379 75.6825 46.3498 74.9602 46.3288 74.2387C46.3086 73.5405 45.9759 72.8688 45.3663 72.2948C44.6049 71.5784 43.5395 71.2817 42.5153 71.5014C41.8817 71.6373 41.3127 71.9576 40.8701 72.4279C38.7159 74.7112 36.1281 76.1901 33.1798 76.8223C28.3478 77.8585 24.1567 76.2865 23.6946 76.1039C23.1053 75.8604 22.4586 75.8025 21.8287 75.9376Z" fill="#4C2F1B"/>
<path d="M26.3137 81.518C26.1789 81.5469 26.0322 81.5201 25.9155 81.4289C25.7013 81.2663 25.6594 80.9595 25.827 80.744C26.6774 79.6348 26.0769 78.4434 26.0517 78.3956C25.9273 78.1551 26.0203 77.8636 26.2597 77.7348C26.5001 77.6105 26.7912 77.6987 26.92 77.9375C26.9601 78.0115 27.8469 79.7236 26.605 81.3389C26.524 81.4342 26.4249 81.4942 26.3137 81.518ZM34.3641 81.0534C34.2806 81.0713 34.1921 81.066 34.1042 81.0411C33.8476 80.9552 33.7109 80.679 33.797 80.4231C34.2578 79.0624 33.2717 78.3372 33.2653 78.3288C33.0471 78.1718 32.9963 77.8673 33.1536 77.6493C33.3108 77.4309 33.6156 77.3804 33.8337 77.5375C34.3792 77.9299 35.273 79.1069 34.7232 80.7338C34.6666 80.9009 34.5266 81.0186 34.3641 81.0534Z" fill="#4C2F1B"/>
<path d="M42.0944 78.0079C42.0198 78.0239 41.9417 78.021 41.8651 78.0034C41.6027 77.9337 41.4526 77.665 41.5224 77.4024C41.8648 76.145 40.6901 75.4697 40.6406 75.4415C40.4077 75.3072 40.3208 75.0152 40.4498 74.7786C40.5785 74.5424 40.8767 74.4589 41.113 74.5878C41.774 74.9508 42.9049 76.0573 42.4666 77.6604C42.4136 77.842 42.2662 77.971 42.0944 78.0079Z" fill="#4C2F1B"/>
<path d="M49.8916 67.2559C49.7711 67.2818 49.6432 67.2752 49.5236 67.2378L48.3449 66.8599C47.9845 66.7427 47.7771 66.3655 47.8738 66L48.1832 64.837C48.2531 64.5748 48.4592 64.3799 48.7239 64.3231C49.0305 64.2574 49.3415 64.3945 49.4925 64.6677L50.3623 66.209C50.4732 66.4086 50.4848 66.6436 50.3934 66.8526C50.3004 67.0568 50.1144 67.2082 49.8916 67.2559Z" fill="#FF6C4A"/>
<path d="M48.825 64.7964C48.9134 64.7775 49.0122 64.8095 49.0667 64.9046L49.9364 66.4455C50.0156 66.5885 49.9284 66.748 49.7892 66.7779C49.7521 66.7858 49.713 66.7844 49.6721 66.7741L48.4934 66.3962C48.3782 66.3579 48.3143 66.2405 48.3433 66.1275L48.6562 64.9586C48.6808 64.8707 48.746 64.8133 48.825 64.7964ZM48.62 63.8407C48.1741 63.9363 47.8278 64.2677 47.7079 64.7057L47.3989 65.8687C47.2352 66.4859 47.5854 67.1241 48.1953 67.3184L49.374 67.6963C49.5767 67.7597 49.7886 67.7726 49.9931 67.7287C50.3649 67.649 50.6836 67.3913 50.8368 67.0431C50.9913 66.6993 50.9716 66.2911 50.7847 65.9622L49.915 64.421C49.6575 63.9672 49.1356 63.7302 48.62 63.8407Z" fill="#4C2F1B"/>
<path d="M13.8238 73.6028C13.601 73.6506 13.3692 73.5888 13.2001 73.4357C13.0314 73.2825 12.9466 73.0679 12.9646 72.8359L13.1259 71.0736C13.1561 70.7615 13.379 70.5099 13.6901 70.4432C13.9548 70.3864 14.2226 70.4792 14.3939 70.6901L15.153 71.624C15.3906 71.9174 15.3567 72.3472 15.076 72.6015L14.1559 73.4295C14.0583 73.5185 13.9447 73.5769 13.8238 73.6028Z" fill="#FF6C4A"/>
<path d="M13.7891 70.9267C13.8681 70.9097 13.9501 70.9308 14.0099 71.0053L14.7686 71.9392C14.8414 72.0304 14.8322 72.1682 14.742 72.2458L13.8219 73.0738C13.7888 73.1005 13.7537 73.1174 13.7166 73.1253C13.5774 73.1552 13.4324 73.0454 13.446 72.8825L13.6073 71.1201C13.6232 71.0154 13.7007 70.9456 13.7891 70.9267ZM13.5841 69.971C13.0686 70.0815 12.684 70.5087 12.6372 71.0375L12.4759 72.7999C12.4413 73.1809 12.5897 73.5568 12.8716 73.807C13.1591 74.0611 13.5509 74.1661 13.9223 74.0864C14.1267 74.0426 14.3189 73.9435 14.4736 73.8031L15.3937 72.9751C15.8702 72.5473 15.9285 71.822 15.5211 71.3268L14.7624 70.3928C14.4818 70.0355 14.03 69.8753 13.5841 69.971Z" fill="#4C2F1B"/>
</g>
<g clip-path="url(#clip2_756_1405)">
<path d="M61.1428 40.9384C61.1428 40.9384 71.9312 55.2059 67.3431 60.854C67.3431 60.854 56.0481 51.1174 61.1428 40.9384Z" fill="#359A60"/>
<path d="M67.4955 62.0673L66.7467 61.4295C66.6306 61.3369 55.025 51.1396 60.3071 40.5427L60.9265 39.3154L61.8323 40.5055C62.2816 41.1093 72.9688 55.3517 68.0355 61.3662L67.4955 62.0673ZM61.3699 42.6869C58.7251 50.1725 64.8465 57.2416 67.1157 59.5068C69.0904 55.3148 64.3491 46.9785 61.3699 42.6869Z" fill="#4C2F1B"/>
<path d="M55.4348 41.1633C55.4348 41.1633 52.4529 57.2115 67.4939 63.9738C67.5128 63.9827 69.4644 47.6718 55.4348 41.1633Z" fill="#33AC64"/>
<path d="M67.1633 64.7091C51.6353 57.7278 54.5241 41.1357 54.5541 40.9683L54.735 39.9651L55.7578 40.4449C70.2366 47.1554 68.3933 63.9767 68.3633 64.1441L68.2424 65.2141L67.1633 64.7091C67.1633 64.7091 67.1823 64.7176 67.1633 64.7091ZM56.1683 42.4369C55.8132 45.9316 55.6647 57.0294 66.6969 62.692C66.8008 59.1044 66.2971 47.8543 56.1683 42.4369Z" fill="#4C2F1B"/>
<path d="M84.7729 52.6871C84.7729 52.6871 67.1231 54.9324 66.3561 62.1977C66.3562 62.1973 81.1543 63.4894 84.7729 52.6871Z" fill="#359A60"/>
<path d="M65.3884 62.9473L65.4717 62.0608C66.2842 54.2939 83.8289 51.9815 84.5746 51.875L86.059 51.6788L85.6268 52.9907C81.8581 64.2276 66.5202 63.0343 66.3478 63.0171L65.3884 62.9473ZM83.374 53.7445C78.2726 54.6235 69.0475 57.0621 67.4658 61.4312C70.6593 61.4414 79.9613 60.8848 83.374 53.7445Z" fill="#4C2F1B"/>
<path d="M88.8958 56.5889C88.8958 56.5889 69.2322 56.0008 66.9884 63.546C67.007 63.5544 82.849 67.3835 88.8958 56.5889Z" fill="#33AC64"/>
<path d="M65.8975 64.1196L66.1454 63.2672C68.5356 55.2459 88.0384 55.7413 88.8588 55.7687L90.3729 55.8071L89.6972 57.0092C83.4252 68.205 67.0178 64.3824 66.834 64.3397L65.8975 64.1196ZM87.3136 57.4034C82.9026 57.4481 70.9171 58.0636 68.2221 62.9559C71.6166 63.5183 82.1433 64.5966 87.3136 57.4034Z" fill="#4C2F1B"/>
<path d="M74.5729 42.7199C75.4534 43.1157 76.1421 43.8871 76.2761 44.8912L78.9006 65.2474C79.1424 67.1634 77.0916 68.4702 75.1623 67.6028L55.551 58.7857C53.6217 57.9183 53.2301 55.5335 54.8316 54.4262L71.8187 42.8872C72.6579 42.3207 73.6921 42.3239 74.5729 42.7199ZM75.399 40.8825C73.7134 40.1247 71.8092 40.2523 70.4179 41.193L53.4312 52.7321C52.0664 53.6646 51.4016 55.1931 51.6812 56.8246C51.9607 58.4565 53.1028 59.8735 54.7321 60.606L74.3434 69.4231C75.9918 70.1642 77.8093 70.0778 79.1968 69.1954C80.6028 68.3217 81.3052 66.8101 81.0965 65.1701L78.4724 44.8142C78.26 43.1326 77.066 41.632 75.399 40.8825Z" fill="#4C2F1B"/>
<path d="M65.7907 52.6865C65.7158 52.6528 65.6596 52.6275 65.5921 52.5772C64.8994 52.1655 64.7237 51.4035 64.7165 51.32C64.6605 51.0939 64.8219 50.8853 65.0543 50.8695C65.2939 50.8367 65.5336 51.0048 65.571 51.2225C65.6008 51.3565 65.7505 51.725 66.0279 51.91C66.2265 52.0192 66.4811 52.0535 66.7888 51.9709C67.0173 51.9131 67.2721 52.0476 67.3542 52.2655C67.4365 52.483 67.3127 52.7085 67.0842 52.7664C66.6191 52.8983 66.1842 52.8634 65.7907 52.6865Z" fill="#F9E39E"/>
<path d="M76.3437 44.6403L79.5149 65.4831C79.8131 67.4242 77.7472 68.7645 75.7989 67.8885L54.914 58.4989C52.9661 57.6231 52.5971 55.1881 54.2469 54.1229L71.953 42.6863C73.6106 41.6046 76.0455 42.6993 76.3437 44.6403Z" fill="#FAF7BD"/>
<path d="M62.9166 48.262L53.1529 53.651C51.5031 54.7162 51.8722 57.1513 53.8201 58.027L67.0518 63.9559C63.544 59.5877 63.1881 50.6129 62.9166 48.262Z" fill="#3AB26C"/>
<path d="M64.9458 54.7163C64.8709 54.6826 64.8146 54.6573 64.7472 54.6071C64.0546 54.195 63.8788 53.4334 63.8715 53.3498C63.8155 53.1237 63.9769 52.9151 64.2093 52.8994C64.4493 52.8667 64.6891 53.0348 64.7261 53.2523C64.7559 53.3863 64.9055 53.7548 65.1825 53.9397C65.3735 54.0659 65.6358 54.0831 65.9435 54.0006C66.1723 53.9429 66.4268 54.0773 66.5093 54.2953C66.5916 54.5128 66.4678 54.7384 66.2389 54.796C65.7818 54.9112 65.3393 54.8932 64.9458 54.7163ZM65.5474 52.5771C65.4725 52.5434 65.4163 52.5181 65.3489 52.4679C64.6561 52.0561 64.4804 51.2941 64.4732 51.2106C64.4172 50.9845 64.5786 50.7759 64.811 50.7602C65.0506 50.7273 65.2903 50.8954 65.3277 51.1131C65.3575 51.2471 65.5072 51.6156 65.7842 51.8004C65.9828 51.9097 66.2375 51.9439 66.5451 51.8614C66.774 51.8037 67.0284 51.9381 67.1109 52.1561C67.1932 52.3736 67.0694 52.5991 66.8406 52.6568C66.3568 52.7804 65.9219 52.7455 65.5474 52.5771Z" fill="#F9E39E"/>
<path d="M65.5657 61.5008C59.1714 58.1443 58.3762 50.0959 58.354 49.7448L59.6843 49.7406C59.692 49.8243 60.4385 57.4291 66.1624 60.4238L65.5657 61.5008Z" fill="#2D9556"/>
<path d="M53.6958 58.6542L52.8836 57.6064C53.0638 57.5065 57.3119 54.919 65.1058 56.4147L64.9435 57.6267C57.663 56.2411 53.7295 58.629 53.6958 58.6542Z" fill="#2D9556"/>
<path d="M62.6053 48.4033C62.6616 48.4286 62.7214 48.4959 62.7366 48.5626C63.1318 51.2902 63.443 59.663 67.0522 63.9561L54.2024 58.179C52.1419 57.2526 51.698 54.7839 53.404 53.744L62.418 48.4194C62.4779 48.386 62.5491 48.378 62.6053 48.4033ZM63.4314 46.5659C62.6449 46.2123 61.7751 46.2431 61.0931 46.659L52.0974 51.9918L52.0899 52.0084C50.6653 52.8737 49.9442 54.3769 50.179 56.0087C50.4098 57.6989 51.634 59.2331 53.3763 60.0164L66.2332 65.7768L74.4001 69.4485L68.7541 62.7738C66.1336 59.6879 65.4865 53.5136 65.1296 50.2009C65.0516 49.5236 64.9997 48.9378 64.9212 48.4608C64.8132 47.6489 64.2366 46.9279 63.4314 46.5659Z" fill="#4C2F1B"/>
<path d="M78.1101 56.2373C73.0517 59.8261 64.4113 61.8649 62.9118 62.0947L75.7989 67.8886C77.7472 68.7645 79.8317 67.4326 79.5149 65.4832L78.1101 56.2373Z" fill="#3AB26C"/>
<path d="M64.5104 64.6004L64.691 63.3966C73.6725 65.2059 79.5716 60.549 79.6394 60.4988L80.5607 61.4555C80.3094 61.6636 74.1324 66.537 64.5104 64.6004Z" fill="#2D9556"/>
<path d="M72.8235 67.8961L71.7375 67.1067C75.1701 62.8272 75.0667 56.8973 75.0703 56.8386L76.4083 56.9181C76.3851 57.1689 76.5075 63.3075 72.8235 67.8961Z" fill="#2D9556"/>
<path d="M73.7781 56.0566C73.7032 56.0229 73.6469 55.9976 73.5795 55.9473C72.8867 55.5356 72.7109 54.774 72.7038 54.6901C72.6476 54.4643 72.8091 54.2557 73.0416 54.2396C73.2812 54.2068 73.521 54.3749 73.5584 54.5926C73.5881 54.7266 73.7378 55.0951 74.0154 55.2798C74.2139 55.389 74.4686 55.4232 74.7763 55.3407C75.0048 55.2828 75.2596 55.4174 75.3417 55.6352C75.4238 55.8531 75.3002 56.0783 75.0712 56.1363C74.606 56.2683 74.1715 56.2335 73.7781 56.0566ZM67.6856 58.9397C67.6107 58.9061 67.5544 58.8808 67.487 58.8305C66.7938 58.4186 66.6184 57.6571 66.6112 57.5736C66.5552 57.3475 66.7166 57.1389 66.949 57.1231C67.189 57.0904 67.4287 57.2585 67.4657 57.4761C67.4955 57.6101 67.6452 57.9786 67.9222 58.1634C68.1208 58.2727 68.3755 58.3069 68.6831 58.2243C68.912 58.1667 69.1664 58.301 69.2487 58.5185C69.3308 58.7364 69.2072 58.9616 68.9786 59.0198C68.4949 59.143 68.0604 59.1083 67.6856 58.9397ZM72.8881 58.1864C72.8133 58.1528 72.757 58.1275 72.6896 58.0772C71.9968 57.6655 71.821 56.9038 71.8137 56.8203C71.7577 56.5942 71.9191 56.3856 72.1515 56.3698C72.3915 56.3371 72.6313 56.5052 72.6683 56.7228C72.6981 56.8568 72.8477 57.2253 73.1247 57.4101C73.3233 57.5194 73.578 57.5536 73.8857 57.471C74.1145 57.4134 74.369 57.5477 74.4516 57.7654C74.5338 57.9833 74.4101 58.2085 74.1811 58.2665C73.7236 58.3815 73.2812 58.3632 72.8881 58.1864Z" fill="#F9E39E"/>
<path d="M77.8849 56.7383C78.0347 56.8056 78.1548 56.9399 78.1957 57.0989L79.6538 65.5252C79.9896 67.4831 77.867 68.7979 75.8252 67.8799L62.9385 62.0862C64.4153 61.907 72.9727 60.3526 77.3678 56.7866C77.4914 56.662 77.6978 56.6542 77.8849 56.7383ZM78.7033 54.9178C77.7104 54.4714 76.5784 54.5852 75.8058 55.2017C71.9957 58.2677 64.1691 59.8492 62.4263 60.0694L55.4476 60.9675L74.9654 69.7425C76.6886 70.5173 78.6487 70.4147 80.0586 69.4825C81.4424 68.5585 82.0992 67.0468 81.8085 65.3899L80.3505 56.9637C80.209 56.0769 79.5838 55.3137 78.7033 54.9178Z" fill="#4C2F1B"/>
<path d="M71.3463 46.9917C71.2714 46.958 71.1775 46.9158 71.1104 46.8657C70.4324 46.4202 70.2942 45.6755 70.2683 45.5836C70.2308 45.3662 70.3922 45.1576 70.6434 45.1499C70.8755 45.1336 71.1153 45.3017 71.1527 45.5194C71.1824 45.6535 71.306 46.0302 71.583 46.215C71.774 46.3412 72.0288 46.3751 72.3364 46.2929C72.5648 46.235 72.8122 46.3862 72.8943 46.604C72.9764 46.8219 72.8341 47.0387 72.6055 47.0969C72.1366 47.1864 71.7207 47.16 71.3463 46.9917ZM73.9112 44.9926C73.8364 44.959 73.7428 44.9169 73.675 44.8665C72.9973 44.4212 72.8592 43.6765 72.8329 43.5844C72.7955 43.3666 72.957 43.158 73.1893 43.1423C73.4219 43.1262 73.6616 43.2943 73.6986 43.5119C73.7284 43.6459 73.852 44.0226 74.129 44.2074C74.32 44.3336 74.5746 44.3679 74.8825 44.285C75.1113 44.2273 75.3583 44.3783 75.4408 44.5963C75.5229 44.8142 75.3807 45.031 75.1518 45.0886C74.7017 45.187 74.2857 45.161 73.9112 44.9926ZM74.7289 48.4322C74.654 48.3985 74.5605 48.3565 74.4931 48.3062C73.8154 47.8609 73.6772 47.1162 73.651 47.0241C73.6136 46.8064 73.7754 46.5979 74.026 46.5904C74.2586 46.5743 74.4982 46.7428 74.5353 46.96C74.5651 47.094 74.6883 47.4705 74.9657 47.6555C75.1568 47.7814 75.4115 47.8156 75.7192 47.7331C75.948 47.6754 76.195 47.8264 76.2775 48.0444C76.3596 48.2623 76.2173 48.4791 75.9883 48.5371C75.5196 48.6271 75.1038 48.6007 74.7289 48.4322ZM73.3552 50.7863C72.6994 50.4914 72.374 49.8634 72.3407 49.7881C72.2319 49.5787 72.3371 49.3448 72.5548 49.2621C72.7722 49.1789 73.0345 49.2968 73.1427 49.5065C73.1991 49.6321 73.4347 49.9589 73.7418 50.077C73.9553 50.153 74.2029 50.1033 74.4688 49.9621C74.6751 49.8539 74.9525 49.9383 75.087 50.1393C75.2218 50.3406 75.1543 50.5914 74.948 50.6996C74.4491 50.9574 73.9505 51.0144 73.4862 50.8456L73.3551 50.7866L73.3552 50.7863ZM69.0961 48.6909C68.8528 48.5815 68.6694 48.4387 68.508 48.2455C67.9875 47.65 68.1008 46.8978 68.1122 46.8226C68.1462 46.5966 68.3674 46.4552 68.615 46.5062C68.8621 46.5574 69.0344 46.775 68.9818 46.9927C68.9668 47.1265 68.9553 47.5028 69.1837 47.7461C69.3332 47.9136 69.5657 47.9981 69.8918 48.0241C70.1279 48.0499 70.3341 48.2429 70.345 48.4687C70.3373 48.6861 70.146 48.8613 69.9025 48.8521C69.5794 48.8683 69.3208 48.7919 69.0961 48.6909ZM74.196 53.6743C73.5779 53.3963 73.2597 52.8519 73.2263 52.7766C73.1176 52.5671 73.1855 52.3164 73.403 52.2333C73.6204 52.1501 73.879 52.2264 74.0063 52.4446C74.0697 52.5534 74.3243 52.8888 74.6465 52.9733C74.8676 53.0323 75.0961 52.9745 75.37 52.8165C75.5575 52.7003 75.8496 52.7509 75.9845 52.9521C76.1264 53.1366 76.0967 53.404 75.8904 53.5121C75.4217 53.8035 74.9342 53.8855 74.4548 53.7502C74.3723 53.7335 74.2899 53.7165 74.196 53.6743ZM70.6108 52.4842C70.5359 52.4505 70.4796 52.4252 70.4122 52.3749C69.7192 51.9627 69.5437 51.2012 69.5365 51.1177C69.4805 50.8916 69.6419 50.6829 69.8743 50.6672C70.1139 50.6343 70.3537 50.8024 70.3911 51.0202C70.4208 51.1542 70.5705 51.5226 70.8475 51.7075C71.0461 51.8167 71.3008 51.851 71.6085 51.7684C71.8369 51.7106 72.0918 51.8451 72.174 52.0626C72.2562 52.2805 72.1325 52.5057 71.9039 52.5639C71.4197 52.6873 70.9852 52.6525 70.6108 52.4842ZM69.612 54.3042C69.5371 54.2705 69.4808 54.2452 69.4134 54.195C68.7204 53.7827 68.5449 53.0212 68.5377 52.9377C68.4817 52.7116 68.6431 52.503 68.8755 52.4873C69.1155 52.4546 69.3553 52.6227 69.3923 52.8402C69.422 52.9742 69.5717 53.3427 69.8487 53.5276C70.0473 53.6368 70.302 53.671 70.6097 53.5885C70.8385 53.5308 71.093 53.6652 71.1752 53.8827C71.2573 54.1005 71.1337 54.3257 70.9051 54.3839C70.4213 54.5075 69.9868 54.4727 69.612 54.3042ZM68.6394 56.6178C68.5646 56.5841 68.5083 56.5588 68.4409 56.5085C67.7481 56.0968 67.5723 55.3352 67.5652 55.2513C67.509 55.0255 67.6705 54.8169 67.903 54.8008C68.1426 54.768 68.3824 54.9361 68.4197 55.1538C68.4495 55.2878 68.5992 55.6563 68.8764 55.8408C69.0749 55.95 69.3296 55.9843 69.6373 55.9017C69.8662 55.844 70.1206 55.9784 70.2031 56.1964C70.2852 56.4143 70.1616 56.6395 69.9327 56.6972C69.4488 56.8211 69.0329 56.7947 68.6394 56.6178ZM66.9581 50.641C66.8832 50.6073 66.8269 50.582 66.7595 50.5318C66.0663 50.1199 65.8909 49.3584 65.8838 49.2745C65.8276 49.0488 65.9891 48.8401 66.2216 48.8241C66.4616 48.7914 66.7014 48.9595 66.7384 49.177C66.7681 49.311 66.9178 49.6795 67.195 49.864C67.3936 49.9733 67.6483 50.0075 67.9559 49.9249C68.1848 49.8672 68.4392 50.0016 68.5217 50.2197C68.6038 50.4375 68.4802 50.6627 68.2513 50.7204C67.7939 50.8363 67.3515 50.8179 66.9581 50.641Z" fill="#F9E39E"/>
</g>
<defs>
<clipPath id="clip0_756_1405">
<rect width="39" height="24" fill="white" transform="translate(5 36.8976) rotate(-19.3118)"/>
</clipPath>
<clipPath id="clip1_756_1405">
<rect width="39" height="22.2857" fill="white" transform="translate(11 66.1776) rotate(-12.1036)"/>
</clipPath>
<clipPath id="clip2_756_1405">
<rect width="39" height="26.5" fill="white" transform="translate(57.8665 33) rotate(24.2082)"/>
</clipPath>
</defs>
</svg>
