<svg width="94" height="94" viewBox="0 0 94 94" fill="none" xmlns="http://www.w3.org/2000/svg">
<rect width="94" height="94" rx="10" fill="#FFF8B8"/>
<g clip-path="url(#clip0_35_1526)">
<path d="M21.3844 80.7556C18.3835 80.7556 16.8162 79.4703 16.0208 78.3851C14.3524 76.1156 14.9573 73.3883 15.2824 72.3148C15.4503 71.7668 15.6408 71.0629 15.8529 70.2355C17.1854 65.1269 19.6718 55.6019 26.8717 51.1197C31.7198 48.1012 41.2942 47.0278 48.6404 47.0278C53.0966 47.0278 64.0821 47.464 69.8493 51.5325C78.315 57.491 80.4528 73.1981 80.5431 73.8686C80.5549 73.9804 80.5657 74.0922 80.5657 74.2147C80.5657 78.3175 78.1137 80.7664 74.0041 80.7664H21.3844V80.7556Z" fill="white"/>
<path d="M21.3736 83.0917C17.1913 83.0917 15.0251 81.0085 14.1049 79.7664C12.4807 77.5616 12.085 74.5882 13.0189 71.6099C13.1485 71.2129 13.3046 70.6208 13.4873 69.9277L13.5599 69.6512C14.9848 64.2162 17.6381 54.1 25.6158 49.1326C30.8998 45.8504 40.974 44.6818 48.6414 44.6818C54.4567 44.6818 65.1201 45.321 71.2044 49.6031C80.3232 56.0254 82.6406 71.7746 82.8753 73.5491C82.9068 73.7638 82.9166 73.9834 82.9166 74.1922C82.9166 79.5978 79.4188 83.0908 74.0051 83.0908H21.3736V83.0917ZM48.6404 49.3865C39.8074 49.3865 31.7463 50.856 28.1051 53.1314C21.6878 57.1292 19.3595 66.0582 18.1085 70.856C17.8836 71.7217 17.6902 72.4628 17.5115 73.0334C17.0411 74.5568 17.1874 76.046 17.9052 77.0146C18.5946 77.9469 19.7622 78.4194 21.3736 78.4194H74.0031C76.7968 78.4194 78.2139 77.0048 78.2139 74.2157C78.1972 74.098 76.2352 58.9076 68.4951 53.453C64.8284 50.8697 57.5922 49.3865 48.6404 49.3865Z" fill="#4C2F1B"/>
<path d="M21.3736 82.8006C17.32 82.8006 15.2264 80.7909 14.3396 79.5939C12.7724 77.4655 12.3914 74.5872 13.2968 71.6972C13.4264 71.3001 13.5845 70.7021 13.7691 70.0022L13.8418 69.7257C15.2637 64.3024 17.8915 54.2853 25.7699 49.3796C31.001 46.1307 41.0143 44.9739 48.6404 44.9739C54.4203 44.9739 65.0169 45.6063 71.0355 49.8423C80.0531 56.194 82.3519 71.8266 82.5847 73.5892C82.6151 73.7941 82.623 74 82.623 74.1951C82.623 79.4233 79.239 82.8016 74.0031 82.8016H21.3736V82.8006ZM48.6404 49.0953C39.7554 49.0953 31.6353 50.5825 27.9509 52.8843C21.4355 56.944 19.0875 65.9465 17.8267 70.7835C17.6028 71.6423 17.4113 72.3795 17.2335 72.9461C16.7357 74.5598 16.8987 76.144 17.6705 77.1881C18.4188 78.1988 19.664 78.7116 21.3736 78.7116H74.0031C76.949 78.7116 78.5055 77.1567 78.5055 74.2157C78.4181 73.5108 76.3962 58.6654 68.6631 53.2147C64.9492 50.5972 57.6511 49.0953 48.6404 49.0953Z" fill="#4C2F1B"/>
<path d="M40.0294 79.2694V57.0449L55.4259 57.2126V79.2684H40.0294V79.2694Z" fill="#4C2F1B"/>
<path d="M41.6192 58.6439L53.8469 58.7664V77.6812H41.6192V58.6439ZM38.4503 55.447V80.8566H57.0167V55.6479L53.8812 55.6146L41.6536 55.4803L38.4503 55.447Z" fill="#4C2F1B"/>
<path d="M8.54592 59.2184C14.2886 41.5947 29.6341 37.1988 47.7753 37.1988C64.9207 37.1988 78.4908 41.5957 85.2282 59.2301C91.5394 75.746 63.109 58.3145 47.7753 58.3145C32.4406 58.3145 3.07528 75.998 8.54592 59.2184Z" fill="#FF6C4A"/>
<path d="M42.8958 37.9184C42.8958 37.9184 41.2048 48.214 44.2284 57.7498C44.2284 57.7498 46.266 56.9224 50.6781 57.6939C50.6781 57.6939 47.1056 46.5709 49.6705 37.739C49.6588 37.7282 46.1658 37.4488 42.8958 37.9184Z" fill="#FFAF9F"/>
<path d="M66.7738 40.3457C63.982 52.8412 66.7738 62.1751 66.7738 62.1751L72.9789 64.0368C72.9789 64.0368 71.6768 52.1736 72.3691 43.3672C72.3691 43.3544 68.3813 40.8604 66.7738 40.3457Z" fill="#FFAF9F"/>
<path d="M67.9227 63.6848C67.4808 61.8094 65.5885 52.5961 67.8647 40.7575C69.3397 41.4702 71.6837 43.0044 72.5144 43.5642C71.9704 51.6854 72.7884 62.1016 73.0771 65.3632L67.9227 63.6848Z" fill="#FFAF9F"/>
<path d="M44.5475 58.4204C42.0798 49.4169 43.0313 39.8497 43.3023 37.6341C44.4562 37.4802 45.7426 37.4017 47.133 37.4017C47.8843 37.4017 48.5275 37.4263 48.9782 37.4498C47.0506 45.7131 49.15 55.2676 49.9435 58.3557C48.9723 58.2115 48.0463 58.139 47.1831 58.139C45.9557 58.14 45.0807 58.289 44.5475 58.4204Z" fill="#FFAF9F"/>
<path d="M14.3308 70.1247C9.94136 70.1247 7.66414 68.2562 6.52602 66.6896C3.85993 62.9888 5.39281 58.3753 5.89559 56.8587C13.0022 35.4734 33.1761 33 47.7331 33C62.1064 33 79.6525 35.6842 87.8069 56.6136C88.4098 58.1576 90.2412 62.8486 87.6596 66.6062C86.601 68.1591 84.4515 70.011 80.2299 70.011C76.1665 70.011 70.7312 68.312 64.9757 66.5151C59.0347 64.6642 52.3003 62.5662 47.7341 62.5662C43.215 62.5662 36.4618 64.6436 30.5041 66.4768C24.4266 68.3542 18.6987 70.1247 14.3308 70.1247ZM47.7331 37.6939C26.6233 37.6939 15.0968 44.0583 10.3577 58.3292C9.49849 60.9261 9.49456 62.7613 10.3459 63.9368C11.0677 64.9348 12.3708 65.4191 14.3299 65.4191C17.9445 65.4191 23.368 63.7525 29.1097 61.9888C35.7136 59.9605 42.5403 57.8625 47.7321 57.8625C53.0093 57.8625 60.109 60.0771 66.3721 62.03C71.7966 63.7221 76.9177 65.3191 80.2279 65.3191C81.9916 65.3191 83.1523 64.8759 83.7788 63.9632C84.5663 62.8153 84.4495 60.9702 83.4233 58.3263C76.3462 40.1457 61.4102 37.6939 47.7331 37.6939Z" fill="#4C2F1B"/>
<path d="M14.3308 69.8326C10.0641 69.8326 7.86053 68.0297 6.76267 66.518C4.18496 62.9398 5.68052 58.4321 6.1725 56.9508C13.2202 35.744 33.2674 33.2912 47.7331 33.2912C62.0141 33.2912 79.4443 35.9548 87.5349 56.7195C88.1231 58.2263 89.9142 62.8084 87.419 66.4416C86.3987 67.9385 84.3248 69.7208 80.2299 69.7208C76.2116 69.7208 70.796 68.0287 65.0631 66.2376C59.1005 64.3799 52.3425 62.2761 47.734 62.2761C43.1678 62.2761 36.3882 64.3632 30.4069 66.2033C24.3618 68.0699 18.6535 69.8326 14.3308 69.8326ZM47.7331 37.4027C26.478 37.4027 14.865 43.8289 10.0808 58.237C9.19014 60.9301 9.19996 62.8496 10.1103 64.1074C10.8909 65.1867 12.2716 65.7102 14.3308 65.7102C17.9887 65.7102 23.4329 64.0378 29.1971 62.2672C35.7794 60.2448 42.5865 58.1537 47.734 58.1537C52.9651 58.1537 60.0422 60.3605 66.2867 62.3074C71.7318 64.0054 76.8745 65.6092 80.2299 65.6092C82.0976 65.6092 83.3369 65.124 84.0213 64.127C84.8668 62.8937 84.7608 60.9614 83.6973 58.2204C76.5543 39.8761 61.5093 37.4027 47.7331 37.4027Z" fill="#4C2F1B"/>
<path d="M21.2734 43.6701C21.2734 43.6701 18.3432 54.9098 26.1961 62.9466L31.2111 61.4781C31.2111 61.4781 25.0266 53.5343 26.2649 40.8143L21.2734 43.6701Z" fill="#FFAF9F"/>
<path d="M26.5781 63.2593C19.7641 55.3852 21.5032 44.7318 21.8636 42.9133L25.7454 40.5036C25.0609 51.8677 29.0753 59.5821 30.5483 61.9986L26.5781 63.2593Z" fill="#FFAF9F"/>
</g>
<path d="M11.5684 14.4688V23H9.95703V14.4688H11.5684ZM15.0078 18.1543V19.4258H11.1465V18.1543H15.0078ZM15.459 14.4688V15.7402H11.1465V14.4688H15.459ZM18.0781 16.6602V23H16.5254V16.6602H18.0781ZM16.4199 15.002C16.4199 14.7715 16.498 14.5801 16.6543 14.4277C16.8145 14.2754 17.0293 14.1992 17.2988 14.1992C17.5684 14.1992 17.7812 14.2754 17.9375 14.4277C18.0977 14.5801 18.1777 14.7715 18.1777 15.002C18.1777 15.2285 18.0977 15.418 17.9375 15.5703C17.7812 15.7227 17.5684 15.7988 17.2988 15.7988C17.0293 15.7988 16.8145 15.7227 16.6543 15.5703C16.498 15.418 16.4199 15.2285 16.4199 15.002ZM23.041 21.2656C23.041 21.1328 23.0059 21.0137 22.9355 20.9082C22.8652 20.8027 22.7324 20.707 22.5371 20.6211C22.3457 20.5312 22.0645 20.4473 21.6934 20.3691C21.3652 20.2988 21.0625 20.2109 20.7852 20.1055C20.5078 20 20.2695 19.873 20.0703 19.7246C19.8711 19.5723 19.7148 19.3945 19.6016 19.1914C19.4922 18.9844 19.4375 18.7461 19.4375 18.4766C19.4375 18.2148 19.4941 17.9688 19.6074 17.7383C19.7207 17.5039 19.8848 17.2988 20.0996 17.123C20.3145 16.9434 20.5762 16.8027 20.8848 16.7012C21.1934 16.5957 21.541 16.543 21.9277 16.543C22.4668 16.543 22.9297 16.6309 23.3164 16.8066C23.707 16.9824 24.0059 17.2246 24.2129 17.5332C24.4199 17.8379 24.5234 18.1816 24.5234 18.5645H22.9766C22.9766 18.3965 22.9375 18.2441 22.8594 18.1074C22.7852 17.9707 22.6699 17.8613 22.5137 17.7793C22.3574 17.6934 22.1602 17.6504 21.9219 17.6504C21.707 17.6504 21.5254 17.6855 21.377 17.7559C21.2324 17.8262 21.123 17.918 21.0488 18.0312C20.9746 18.1445 20.9375 18.2695 20.9375 18.4062C20.9375 18.5078 20.957 18.5996 20.9961 18.6816C21.0391 18.7598 21.1074 18.832 21.2012 18.8984C21.2949 18.9648 21.4219 19.0254 21.582 19.0801C21.7461 19.1348 21.9473 19.1875 22.1855 19.2383C22.6582 19.332 23.0703 19.457 23.4219 19.6133C23.7773 19.7656 24.0547 19.9688 24.2539 20.2227C24.4531 20.4766 24.5527 20.8008 24.5527 21.1953C24.5527 21.4766 24.4922 21.7344 24.3711 21.9688C24.25 22.1992 24.0742 22.4004 23.8438 22.5723C23.6133 22.7441 23.3379 22.8789 23.0176 22.9766C22.6973 23.0703 22.3359 23.1172 21.9336 23.1172C21.3516 23.1172 20.8594 23.0137 20.457 22.8066C20.0547 22.5957 19.75 22.3301 19.543 22.0098C19.3359 21.6855 19.2324 21.3496 19.2324 21.002H20.7148C20.7266 21.248 20.793 21.4453 20.9141 21.5938C21.0352 21.7422 21.1875 21.8496 21.3711 21.916C21.5586 21.9785 21.7559 22.0098 21.9629 22.0098C22.1973 22.0098 22.3945 21.9785 22.5547 21.916C22.7148 21.8496 22.8359 21.7617 22.918 21.6523C23 21.5391 23.041 21.4102 23.041 21.2656ZM27.2773 13.9941V23H25.7305V13.9941H27.2773ZM31.25 16.6602L28.4902 19.7598L26.9961 21.2773L26.5039 20.0762L27.6582 18.623L29.3809 16.6602H31.25ZM29.668 23L27.7051 20.0469L28.7363 19.0449L31.4609 23H29.668ZM38.7266 14.4688L35.5039 23.7324H34.3262L37.5488 14.4688H38.7266ZM46.1035 21.2656C46.1035 21.1328 46.0684 21.0137 45.998 20.9082C45.9277 20.8027 45.7949 20.707 45.5996 20.6211C45.4082 20.5312 45.127 20.4473 44.7559 20.3691C44.4277 20.2988 44.125 20.2109 43.8477 20.1055C43.5703 20 43.332 19.873 43.1328 19.7246C42.9336 19.5723 42.7773 19.3945 42.6641 19.1914C42.5547 18.9844 42.5 18.7461 42.5 18.4766C42.5 18.2148 42.5566 17.9688 42.6699 17.7383C42.7832 17.5039 42.9473 17.2988 43.1621 17.123C43.377 16.9434 43.6387 16.8027 43.9473 16.7012C44.2559 16.5957 44.6035 16.543 44.9902 16.543C45.5293 16.543 45.9922 16.6309 46.3789 16.8066C46.7695 16.9824 47.0684 17.2246 47.2754 17.5332C47.4824 17.8379 47.5859 18.1816 47.5859 18.5645H46.0391C46.0391 18.3965 46 18.2441 45.9219 18.1074C45.8477 17.9707 45.7324 17.8613 45.5762 17.7793C45.4199 17.6934 45.2227 17.6504 44.9844 17.6504C44.7695 17.6504 44.5879 17.6855 44.4395 17.7559C44.2949 17.8262 44.1855 17.918 44.1113 18.0312C44.0371 18.1445 44 18.2695 44 18.4062C44 18.5078 44.0195 18.5996 44.0586 18.6816C44.1016 18.7598 44.1699 18.832 44.2637 18.8984C44.3574 18.9648 44.4844 19.0254 44.6445 19.0801C44.8086 19.1348 45.0098 19.1875 45.248 19.2383C45.7207 19.332 46.1328 19.457 46.4844 19.6133C46.8398 19.7656 47.1172 19.9688 47.3164 20.2227C47.5156 20.4766 47.6152 20.8008 47.6152 21.1953C47.6152 21.4766 47.5547 21.7344 47.4336 21.9688C47.3125 22.1992 47.1367 22.4004 46.9062 22.5723C46.6758 22.7441 46.4004 22.8789 46.0801 22.9766C45.7598 23.0703 45.3984 23.1172 44.9961 23.1172C44.4141 23.1172 43.9219 23.0137 43.5195 22.8066C43.1172 22.5957 42.8125 22.3301 42.6055 22.0098C42.3984 21.6855 42.2949 21.3496 42.2949 21.002H43.7773C43.7891 21.248 43.8555 21.4453 43.9766 21.5938C44.0977 21.7422 44.25 21.8496 44.4336 21.916C44.6211 21.9785 44.8184 22.0098 45.0254 22.0098C45.2598 22.0098 45.457 21.9785 45.6172 21.916C45.7773 21.8496 45.8984 21.7617 45.9805 21.6523C46.0625 21.5391 46.1035 21.4102 46.1035 21.2656ZM50.3398 13.9941V23H48.793V13.9941H50.3398ZM54.3125 16.6602L51.5527 19.7598L50.0586 21.2773L49.5664 20.0762L50.7207 18.623L52.4434 16.6602H54.3125ZM52.7305 23L50.7676 20.0469L51.7988 19.0449L54.5234 23H52.7305ZM58.625 21.6523V18.7285C58.625 18.5137 58.5879 18.3281 58.5137 18.1719C58.4395 18.0156 58.3262 17.8945 58.1738 17.8086C58.0215 17.7227 57.8281 17.6797 57.5938 17.6797C57.3867 17.6797 57.2051 17.7148 57.0488 17.7852C56.8965 17.8555 56.7793 17.9551 56.6973 18.084C56.6152 18.209 56.5742 18.3535 56.5742 18.5176H55.0215C55.0215 18.2559 55.084 18.0078 55.209 17.7734C55.334 17.5352 55.5117 17.3242 55.7422 17.1406C55.9766 16.9531 56.2559 16.8066 56.5801 16.7012C56.9082 16.5957 57.2754 16.543 57.6816 16.543C58.1621 16.543 58.5898 16.625 58.9648 16.7891C59.3438 16.9492 59.6406 17.1914 59.8555 17.5156C60.0742 17.8398 60.1836 18.248 60.1836 18.7402V21.5059C60.1836 21.8223 60.2031 22.0938 60.2422 22.3203C60.2852 22.543 60.3477 22.7363 60.4297 22.9004V23H58.8535C58.7793 22.8398 58.7227 22.6367 58.6836 22.3906C58.6445 22.1406 58.625 21.8945 58.625 21.6523ZM58.8418 19.1387L58.8535 20.0586H57.875C57.6328 20.0586 57.4199 20.084 57.2363 20.1348C57.0527 20.1816 56.9023 20.252 56.7852 20.3457C56.668 20.4355 56.5801 20.5449 56.5215 20.6738C56.4629 20.7988 56.4336 20.9414 56.4336 21.1016C56.4336 21.2578 56.4688 21.3984 56.5391 21.5234C56.6133 21.6484 56.7188 21.748 56.8555 21.8223C56.9961 21.8926 57.1602 21.9277 57.3477 21.9277C57.6211 21.9277 57.8594 21.873 58.0625 21.7637C58.2656 21.6504 58.4238 21.5137 58.5371 21.3535C58.6504 21.1934 58.7109 21.041 58.7188 20.8965L59.1641 21.5645C59.1094 21.7246 59.0273 21.8945 58.918 22.0742C58.8086 22.2539 58.668 22.4219 58.4961 22.5781C58.3242 22.7344 58.1172 22.8633 57.875 22.9648C57.6328 23.0664 57.3516 23.1172 57.0312 23.1172C56.6211 23.1172 56.2539 23.0352 55.9297 22.8711C55.6055 22.707 55.3496 22.4824 55.1621 22.1973C54.9746 21.9121 54.8809 21.5879 54.8809 21.2246C54.8809 20.8887 54.9434 20.5918 55.0684 20.334C55.1934 20.0762 55.3789 19.8594 55.625 19.6836C55.8711 19.5039 56.1758 19.3691 56.5391 19.2793C56.9062 19.1855 57.3262 19.1387 57.7988 19.1387H58.8418ZM63.2188 14V23H61.666V14H63.2188ZM68.498 21.6523V14H70.0566V23H68.6504L68.498 21.6523ZM64.4258 19.9062V19.7832C64.4258 19.2988 64.4805 18.8594 64.5898 18.4648C64.7031 18.0664 64.8672 17.7246 65.082 17.4395C65.2969 17.1543 65.5566 16.9336 65.8613 16.7773C66.1699 16.6211 66.5195 16.543 66.9102 16.543C67.2891 16.543 67.6191 16.6191 67.9004 16.7715C68.1855 16.9238 68.4277 17.1406 68.627 17.4219C68.8301 17.7031 68.9922 18.0371 69.1133 18.4238C69.2344 18.8066 69.3223 19.2285 69.377 19.6895V20.0234C69.3223 20.4727 69.2344 20.8848 69.1133 21.2598C68.9922 21.6348 68.8301 21.9629 68.627 22.2441C68.4277 22.5215 68.1855 22.7363 67.9004 22.8887C67.6152 23.041 67.2812 23.1172 66.8984 23.1172C66.5117 23.1172 66.1641 23.0371 65.8555 22.877C65.5508 22.7168 65.291 22.4922 65.0762 22.2031C64.8652 21.9141 64.7031 21.5742 64.5898 21.1836C64.4805 20.793 64.4258 20.3672 64.4258 19.9062ZM65.9785 19.7832V19.9062C65.9785 20.1797 66.002 20.4355 66.0488 20.6738C66.0957 20.9121 66.1719 21.123 66.2773 21.3066C66.3828 21.4863 66.5176 21.627 66.6816 21.7285C66.8496 21.8301 67.0527 21.8809 67.291 21.8809C67.5957 21.8809 67.8457 21.8145 68.041 21.6816C68.2402 21.5449 68.3945 21.3594 68.5039 21.125C68.6133 20.8867 68.6836 20.6191 68.7148 20.3223V19.4023C68.6992 19.168 68.6582 18.9512 68.5918 18.752C68.5293 18.5527 68.4395 18.3809 68.3223 18.2363C68.209 18.0918 68.0684 17.9785 67.9004 17.8965C67.7324 17.8145 67.5332 17.7734 67.3027 17.7734C67.0645 17.7734 66.8613 17.8262 66.6934 17.9316C66.5254 18.0332 66.3887 18.1758 66.2832 18.3594C66.1777 18.543 66.0996 18.7559 66.0488 18.998C66.002 19.2402 65.9785 19.502 65.9785 19.7832ZM71.5332 16.6602H73.0918V23.4688C73.0918 23.918 73.0098 24.2988 72.8457 24.6113C72.6855 24.9238 72.4531 25.1602 72.1484 25.3203C71.8438 25.4805 71.4707 25.5605 71.0293 25.5605C70.8926 25.5605 70.7559 25.5527 70.6191 25.5371C70.4824 25.5215 70.3477 25.4961 70.2148 25.4609L70.2207 24.2656C70.3066 24.2812 70.3945 24.293 70.4844 24.3008C70.5742 24.3125 70.6641 24.3184 70.7539 24.3184C70.9219 24.3184 71.0625 24.2891 71.1758 24.2305C71.293 24.1719 71.3809 24.0801 71.4395 23.9551C71.502 23.8301 71.5332 23.668 71.5332 23.4688V16.6602ZM71.4043 15.002C71.4043 14.7715 71.4824 14.5801 71.6387 14.4277C71.7988 14.2754 72.0137 14.1992 72.2832 14.1992C72.5527 14.1992 72.7656 14.2754 72.9219 14.4277C73.082 14.5801 73.1621 14.7715 73.1621 15.002C73.1621 15.2285 73.082 15.418 72.9219 15.5703C72.7656 15.7227 72.5527 15.7988 72.2832 15.7988C72.0137 15.7988 71.7988 15.7227 71.6387 15.5703C71.4824 15.418 71.4043 15.2285 71.4043 15.002ZM78.3008 21.4941V16.6602H79.8594V23H78.3945L78.3008 21.4941ZM78.5 20.1816L78.9805 20.1699C78.9805 20.5957 78.9336 20.9883 78.8398 21.3477C78.7461 21.707 78.5996 22.0195 78.4004 22.2852C78.2051 22.5469 77.957 22.752 77.6562 22.9004C77.3555 23.0449 77 23.1172 76.5898 23.1172C76.2773 23.1172 75.9922 23.0742 75.7344 22.9883C75.4766 22.8984 75.2539 22.7598 75.0664 22.5723C74.8828 22.3809 74.7402 22.1367 74.6387 21.8398C74.5371 21.5391 74.4863 21.1777 74.4863 20.7559V16.6602H76.0332V20.7676C76.0332 20.9785 76.0566 21.1543 76.1035 21.2949C76.1543 21.4355 76.2227 21.5508 76.3086 21.6406C76.3984 21.7266 76.502 21.7891 76.6191 21.8281C76.7402 21.8633 76.8691 21.8809 77.0059 21.8809C77.3809 21.8809 77.6758 21.8066 77.8906 21.6582C78.1094 21.5059 78.2656 21.3027 78.3594 21.0488C78.4531 20.791 78.5 20.502 78.5 20.1816ZM82.7773 17.9551V23H81.2305V16.6602H82.6953L82.7773 17.9551ZM84.7051 16.6191L84.6816 18.0605C84.5957 18.0449 84.498 18.0332 84.3887 18.0254C84.2832 18.0176 84.1836 18.0137 84.0898 18.0137C83.8516 18.0137 83.6426 18.0469 83.4629 18.1133C83.2832 18.1758 83.1328 18.2676 83.0117 18.3887C82.8945 18.5098 82.8047 18.6582 82.7422 18.834C82.6797 19.0059 82.6445 19.2012 82.6367 19.4199L82.3027 19.3789C82.3027 18.9766 82.3438 18.6035 82.4258 18.2598C82.5078 17.916 82.627 17.6152 82.7832 17.3574C82.9395 17.0996 83.1348 16.9004 83.3691 16.7598C83.6074 16.6152 83.8809 16.543 84.1895 16.543C84.2754 16.543 84.3672 16.5508 84.4648 16.5664C84.5664 16.5781 84.6465 16.5957 84.7051 16.6191Z" fill="#373737"/>
<defs>
<clipPath id="clip0_35_1526">
<rect width="84" height="50.0917" fill="white" transform="translate(5 33)"/>
</clipPath>
</defs>
</svg>
