<svg width="197" height="109" viewBox="0 0 197 109" fill="none" xmlns="http://www.w3.org/2000/svg">
<path d="M73.936 55.365C73.936 68.0459 66.9493 86.8427 50.0852 94.1869C45.8468 96.0327 43.5619 94.0947 38.5 94.2182C33.9773 94.3286 32.5444 95.8627 28.2777 94.2495C10.5598 87.5507 3.06409 68.9484 3.06409 55.365C3.06409 37.6067 18.0562 28.5697 38.5 40.6276C57.5809 29.2396 73.936 37.6067 73.936 55.365Z" fill="#FF542F"/>
<path fill-rule="evenodd" clip-rule="evenodd" d="M38.495 37.1462C28.3714 31.6131 18.9876 30.7063 11.7906 34.0993C4.1414 37.7056 0 45.6711 0 55.365C0 69.7179 7.8807 89.7648 27.1778 97.0607C29.8442 98.0688 31.7961 98.1212 33.7076 97.8644C34.3641 97.7762 34.9007 97.6798 35.4053 97.589C36.3727 97.4151 37.2229 97.2623 38.576 97.2293C40.1843 97.19 41.3372 97.3795 42.6477 97.5948C43.1265 97.6735 43.6263 97.7557 44.177 97.8314C46.2579 98.1174 48.5138 98.1655 51.3263 96.9407C69.6813 88.9472 77 68.763 77 55.365C77 45.5354 72.4076 37.789 64.6396 34.3236C57.3715 31.0812 48.0571 31.913 38.495 37.1462ZM50.0852 94.1869C66.9493 86.8426 73.9359 68.0458 73.9359 55.365C73.9359 37.6066 57.5809 29.2395 38.5 40.6275C18.0562 28.5696 3.06407 37.6066 3.06407 55.365C3.06407 68.9483 10.5598 87.5506 28.2777 94.2495C31.0479 95.2968 32.6235 95.0175 34.6259 94.6625C35.7075 94.4707 36.9137 94.2569 38.5 94.2182C40.4248 94.1712 41.9481 94.4223 43.33 94.6502C45.5821 95.0214 47.4585 95.3308 50.0852 94.1869Z" fill="#3A3A3A"/>
<path fill-rule="evenodd" clip-rule="evenodd" d="M43.4634 85.994C60.3275 78.6498 65.9516 59.8217 65.9516 47.1408C65.9516 43.4273 65.2364 40.1244 63.9306 37.3269C70.0809 40.3354 73.9359 46.7434 73.9359 55.365C73.9359 68.0459 66.9493 86.8427 50.0852 94.1869C47.4585 95.3308 45.582 95.0215 43.3299 94.6502C41.9481 94.4224 40.4248 94.1713 38.5 94.2182C36.9137 94.2569 35.7075 94.4708 34.6258 94.6625C32.6235 95.0175 31.0479 95.2969 28.2777 94.2495C21.7973 91.7994 16.6843 87.7568 12.8055 82.9499C14.6725 84.1289 16.7107 85.1547 18.9309 85.9941C21.7881 87.0743 23.9856 86.7572 26.4839 86.3967C27.7162 86.2189 29.0217 86.0305 30.5157 85.9941C32.3914 85.9483 34.0729 86.1899 35.6623 86.4183C38.3619 86.8062 40.7956 87.1559 43.4634 85.994Z" fill="#ED4A27"/>
<path d="M54.4058 13.581C54.4058 13.581 57.1905 25.9325 53.8599 32.5298C49.8458 40.4813 38.2071 40.6842 38.2071 40.6842C38.2071 40.6842 34.8775 31.1782 39.6965 23.1152C43.4035 16.9128 54.4058 13.581 54.4058 13.581Z" fill="#5AF560"/>
<path fill-rule="evenodd" clip-rule="evenodd" d="M57.4009 12.9525L54.4038 13.5838L53.4802 10.7053C54.3011 10.4567 55.1931 10.5585 55.9387 10.9858C56.6842 11.4131 57.2148 12.1267 57.4009 12.9525ZM51.4961 14.6439C53.219 13.9426 54.4038 13.5838 54.4038 13.5838C54.4038 13.5838 54.6698 14.7634 54.939 16.5883C55.5407 20.6677 56.1587 27.9715 53.8582 32.5289C49.845 40.4788 38.2093 40.6817 38.2093 40.6817C38.2093 40.6817 34.8807 31.1775 39.6984 23.1161C42.1881 18.9502 47.9694 16.0795 51.4961 14.6439ZM38.2093 40.6817C35.3069 41.643 35.3066 41.642 35.3062 41.6409L35.3036 41.6333L35.299 41.6201L35.2864 41.5831C35.2765 41.5538 35.2637 41.5153 35.2484 41.468C35.2177 41.3732 35.1767 41.2428 35.1283 41.0795C35.0316 40.753 34.905 40.2933 34.7721 39.7223C34.507 38.5838 34.2122 36.9835 34.0843 35.1018C33.8309 31.3729 34.2196 26.3113 37.0476 21.5794C39.3639 17.7036 43.7163 14.9984 47.0313 13.3395C48.7566 12.4761 50.3502 11.8242 51.5124 11.3875C52.0955 11.1684 52.5749 11.0017 52.9141 10.8881C53.0839 10.8312 53.2189 10.7875 53.3147 10.757C53.3626 10.7418 53.4007 10.7298 53.4285 10.7212L53.4623 10.7108L53.4772 10.7062L53.4802 10.7053C53.4809 10.7051 53.4802 10.7053 54.4038 13.5838C57.4009 12.9525 57.4008 12.9519 57.4009 12.9525L57.4024 12.959L57.4049 12.97L57.4127 13.0054L57.4392 13.1283C57.4614 13.2327 57.4924 13.3817 57.5299 13.5708C57.605 13.9487 57.7065 14.488 57.8167 15.1528C58.0365 16.4788 58.2938 18.3226 58.4419 20.3925C58.7258 24.3623 58.6658 29.8097 56.6108 33.8805C54.0694 38.9151 49.2187 41.3116 45.4617 42.4621C43.5424 43.0499 41.7784 43.3546 40.4961 43.5139C39.8515 43.5939 39.3198 43.6382 38.9399 43.6628C38.7497 43.6751 38.5969 43.6825 38.4862 43.6869C38.4309 43.6891 38.3861 43.6905 38.3523 43.6915L38.3101 43.6926L38.2953 43.6929L38.2896 43.693L38.2871 43.693C38.286 43.6931 38.2849 43.6931 38.2093 40.6817ZM35.3069 41.643L38.2093 40.6817L38.2849 43.6931C36.9474 43.7164 35.7426 42.887 35.3069 41.643Z" fill="#3A3A3A"/>
<path d="M51.7948 32.5157C54.7674 27.5437 53.2872 17.2338 53.2872 17.2338C44.5796 25.7007 42.2359 35.3005 41.6777 38.7747C41.6777 38.7747 48.8222 37.4877 51.7948 32.5157Z" fill="#4AC84F"/>
<path d="M22.5121 27.0101C25.4405 27.7694 35.0097 36.1599 37.626 41.3077C37.8442 41.7371 39.0379 41.1002 38.8529 40.7243C37.4072 35.8451 32.7003 24.2987 28.7788 20.7614C23.5079 20.5311 22.3722 25.9169 22.5121 27.0101Z" fill="#943D31"/>
<path fill-rule="evenodd" clip-rule="evenodd" d="M21.7306 29.9225C20.5219 29.6091 19.6281 28.6053 19.472 27.3861C19.3679 26.5721 19.5121 25.609 19.7212 24.7991C19.9533 23.9003 20.3577 22.8311 21.0186 21.7924C22.4026 19.617 24.9557 17.5794 28.9148 17.7524C29.6344 17.7839 30.3197 18.0635 30.8504 18.5422C32.1543 19.7183 33.3631 21.3945 34.4283 23.1321C35.5198 24.9125 36.5731 26.9453 37.5268 28.9784C39.3939 32.9587 40.9663 37.1267 41.7528 39.7416C42.3444 41.3417 41.4133 42.6195 41.1286 42.957C40.7035 43.461 40.1951 43.7934 39.789 43.9981C39.3908 44.1988 38.7814 44.4333 38.0516 44.4605C37.3517 44.4865 35.7148 44.2866 34.885 42.6539C33.8338 40.5856 31.13 37.5045 28.0934 34.7133C26.6194 33.3585 25.1606 32.1579 23.9282 31.2688C23.3111 30.8235 22.7811 30.4785 22.3567 30.2363C21.9731 30.0174 21.7762 29.9409 21.7356 29.9252C21.727 29.9218 21.7255 29.9212 21.7306 29.9225ZM38.8529 40.7243C38.8513 40.7188 38.8496 40.7132 38.8479 40.7076C38.6557 40.0601 38.4065 39.2962 38.1096 38.4499C37.7326 37.3752 37.2788 36.1675 36.7674 34.8965C34.6409 29.6118 31.5182 23.2325 28.7788 20.7615C23.5079 20.5312 22.3722 25.917 22.5121 27.0101C24.6233 27.5576 30.186 32.0713 34.1067 36.4768C34.9364 37.4091 35.6925 38.3365 36.3269 39.2205C36.7989 39.8783 37.2034 40.512 37.5207 41.1057C37.5569 41.1736 37.592 41.2409 37.626 41.3077C37.8442 41.7372 39.0379 41.1002 38.8529 40.7243ZM35.8863 41.4834C35.9333 41.6615 36.0012 41.8461 36.0946 42.0359C36.0202 41.8848 35.9588 41.7278 35.9111 41.5666C35.9029 41.5391 35.8947 41.5114 35.8863 41.4834Z" fill="#3A3A3A"/>
<path d="M29.7958 20.8853C30.734 21.9164 30.0125 24.0553 28.1843 25.6628C26.3561 27.2703 24.1135 27.7375 23.1753 26.7065C22.2371 25.6754 22.9586 23.5364 24.7868 21.929C26.615 20.3215 28.8576 19.8543 29.7958 20.8853Z" fill="#C26649"/>
<path d="M91.707 59.457C93.9453 59.457 95.8613 59.123 97.4551 58.4551C99.0488 57.7754 100.268 56.8145 101.111 55.5723C101.955 54.3301 102.377 52.8652 102.377 51.1777V51.1602C102.377 49.1211 101.738 47.5273 100.461 46.3789C99.1836 45.2305 97.1973 44.3984 94.502 43.8828L91.9004 43.3906C90.541 43.1328 89.5508 42.8047 88.9297 42.4062C88.3086 42.0078 87.998 41.4688 87.998 40.7891V40.7715C87.998 40.291 88.1387 39.8633 88.4199 39.4883C88.7129 39.1016 89.1348 38.7969 89.6855 38.5742C90.2363 38.3516 90.9043 38.2402 91.6895 38.2402C92.4629 38.2402 93.1484 38.3516 93.7461 38.5742C94.3438 38.7969 94.8242 39.1074 95.1875 39.5059C95.5508 39.9043 95.7676 40.3848 95.8379 40.9473L95.8555 41.1406H101.85L101.832 40.7715C101.762 39.2363 101.316 37.9004 100.496 36.7637C99.6875 35.627 98.5391 34.748 97.0508 34.127C95.5625 33.4941 93.7578 33.1777 91.6367 33.1777C89.7031 33.1777 87.9746 33.5117 86.4512 34.1797C84.9395 34.8359 83.75 35.7676 82.8828 36.9746C82.0156 38.1699 81.582 39.582 81.582 41.2109V41.2285C81.582 43.1738 82.2324 44.7617 83.5332 45.9922C84.8457 47.2109 86.7559 48.0547 89.2637 48.5234L91.8652 49.0332C93.3535 49.3145 94.4082 49.6543 95.0293 50.0527C95.6504 50.4395 95.9609 50.9902 95.9609 51.7051V51.7227C95.9609 52.25 95.791 52.7129 95.4512 53.1113C95.1113 53.5098 94.6309 53.8262 94.0098 54.0605C93.4004 54.2832 92.668 54.3945 91.8125 54.3945C90.9922 54.3945 90.248 54.2832 89.5801 54.0605C88.9121 53.8262 88.3613 53.5098 87.9277 53.1113C87.5059 52.7012 87.2363 52.2207 87.1191 51.6699L87.084 51.4941H81.0898L81.1074 51.8105C81.2129 53.4277 81.6992 54.8047 82.5664 55.9414C83.4453 57.0781 84.6582 57.9512 86.2051 58.5605C87.7637 59.1582 89.5977 59.457 91.707 59.457ZM102.665 59H108.343V43.1621H111.331L105.021 34.3379L114.689 59H118.38L128.048 34.3379L121.737 43.1621H124.726V59H130.404V33.6348H122.95L116.605 50.1934H116.482L110.136 33.6348H102.665V59ZM130.129 59H136.914L142.557 39.1543H144.614V33.6348H138.672L130.129 59ZM135.121 53.4453H150.133L148.692 48.7871H136.563L135.121 53.4453ZM148.34 59H155.125L146.582 33.6348H142.68V39.1543L148.34 59ZM154.851 59H161.302V50.2637H164.291C164.349 50.2637 164.402 50.2637 164.449 50.2637C164.507 50.2637 164.554 50.2637 164.589 50.2637L168.931 59H176.191L171.129 49.3145C172.441 48.7285 173.49 47.7852 174.275 46.4844C175.06 45.1836 175.453 43.7188 175.453 42.0898V42.0547C175.453 40.2617 175.078 38.7383 174.328 37.4844C173.578 36.2305 172.488 35.2754 171.058 34.6191C169.629 33.9629 167.888 33.6348 165.838 33.6348H154.851V59ZM161.302 45.5879V38.5039H165.082C166.218 38.5039 167.132 38.8262 167.824 39.4707C168.515 40.1152 168.861 40.9707 168.861 42.0371V42.0723C168.861 43.1387 168.521 43.9941 167.841 44.6387C167.173 45.2715 166.265 45.5879 165.117 45.5879H161.302ZM181.876 59H188.327V38.8203H195.305V33.6348H174.88V38.8203H181.876V59Z" fill="#313131"/>
<path d="M88.3477 87H94.7109L98.7188 71.7949H98.8418L102.85 87H109.195L115.822 61.6348H109.16L105.715 78.3867H105.592L101.496 61.6348H96.0645L91.9512 78.3867H91.8281L88.4004 61.6348H81.7207L88.3477 87ZM111.747 87H118.532L124.175 67.1543H126.231V61.6348H120.29L111.747 87ZM116.739 81.4453H131.751L130.309 76.7871H118.181L116.739 81.4453ZM129.958 87H136.743L128.2 61.6348H124.298V67.1543L129.958 87ZM145.271 87.457C147.51 87.457 149.426 87.123 151.019 86.4551C152.613 85.7754 153.832 84.8145 154.676 83.5723C155.519 82.3301 155.941 80.8652 155.941 79.1777V79.1602C155.941 77.1211 155.302 75.5273 154.025 74.3789C152.748 73.2305 150.761 72.3984 148.066 71.8828L145.465 71.3906C144.105 71.1328 143.115 70.8047 142.494 70.4062C141.873 70.0078 141.562 69.4688 141.562 68.7891V68.7715C141.562 68.291 141.703 67.8633 141.984 67.4883C142.277 67.1016 142.699 66.7969 143.25 66.5742C143.801 66.3516 144.469 66.2402 145.254 66.2402C146.027 66.2402 146.713 66.3516 147.31 66.5742C147.908 66.7969 148.388 67.1074 148.752 67.5059C149.115 67.9043 149.332 68.3848 149.402 68.9473L149.42 69.1406H155.414L155.396 68.7715C155.326 67.2363 154.881 65.9004 154.06 64.7637C153.252 63.627 152.103 62.748 150.615 62.127C149.127 61.4941 147.322 61.1777 145.201 61.1777C143.267 61.1777 141.539 61.5117 140.015 62.1797C138.504 62.8359 137.314 63.7676 136.447 64.9746C135.58 66.1699 135.146 67.582 135.146 69.2109V69.2285C135.146 71.1738 135.797 72.7617 137.097 73.9922C138.41 75.2109 140.32 76.0547 142.828 76.5234L145.429 77.0332C146.918 77.3145 147.972 77.6543 148.594 78.0527C149.215 78.4395 149.525 78.9902 149.525 79.7051V79.7227C149.525 80.25 149.355 80.7129 149.015 81.1113C148.676 81.5098 148.195 81.8262 147.574 82.0605C146.965 82.2832 146.232 82.3945 145.377 82.3945C144.556 82.3945 143.812 82.2832 143.144 82.0605C142.476 81.8262 141.926 81.5098 141.492 81.1113C141.07 80.7012 140.801 80.2207 140.683 79.6699L140.648 79.4941H134.654L134.672 79.8105C134.777 81.4277 135.263 82.8047 136.131 83.9414C137.01 85.0781 138.222 85.9512 139.769 86.5605C141.328 87.1582 143.162 87.457 145.271 87.457ZM161.235 87H167.686V66.8203H174.665V61.6348H154.239V66.8203H161.235V87ZM174.509 87H191.894V81.8145H180.96V76.6816H191.244V71.8301H180.96V66.8203H191.894V61.6348H174.509V87Z" fill="#313131"/>
</svg>
