<svg width="77" height="98" viewBox="0 0 77 98" fill="none" xmlns="http://www.w3.org/2000/svg">
<path d="M73.9358 55.365C73.9358 68.0459 66.9492 86.8427 50.0851 94.1869C45.8467 96.0327 43.5617 94.0947 38.4999 94.2182C33.9771 94.3285 32.5443 95.8627 28.2776 94.2495C10.5597 87.5506 3.06396 68.9484 3.06396 55.365C3.06396 37.6066 18.0561 28.5697 38.4999 40.6276C57.5808 29.2395 73.9358 37.6066 73.9358 55.365Z" fill="#FF542F"/>
<path fill-rule="evenodd" clip-rule="evenodd" d="M38.495 37.1462C28.3714 31.6132 18.9876 30.7063 11.7906 34.0993C4.1414 37.7056 0 45.6711 0 55.365C0 69.7179 7.8807 89.7648 27.1778 97.0607C29.8442 98.0688 31.7961 98.1212 33.7076 97.8644C34.3641 97.7763 34.9007 97.6798 35.4053 97.5891C36.3727 97.4151 37.2229 97.2623 38.576 97.2293C40.1843 97.19 41.3372 97.3795 42.6477 97.5949C43.1265 97.6735 43.6263 97.7557 44.177 97.8314C46.2579 98.1174 48.5138 98.1656 51.3263 96.9407C69.6813 88.9472 77 68.763 77 55.365C77 45.5355 72.4076 37.789 64.6396 34.3236C57.3715 31.0812 48.0571 31.913 38.495 37.1462ZM50.0852 94.1869C66.9493 86.8426 73.9359 68.0458 73.9359 55.365C73.9359 37.6066 57.5809 29.2395 38.5 40.6276C18.0562 28.5696 3.06407 37.6066 3.06407 55.365C3.06407 68.9484 10.5598 87.5506 28.2777 94.2495C31.0479 95.2968 32.6235 95.0175 34.6259 94.6625C35.7075 94.4707 36.9137 94.2569 38.5 94.2182C40.4248 94.1712 41.9481 94.4224 43.33 94.6502C45.5821 95.0214 47.4585 95.3308 50.0852 94.1869Z" fill="#3A3A3A"/>
<path fill-rule="evenodd" clip-rule="evenodd" d="M43.4634 85.994C60.3275 78.6498 65.9516 59.8217 65.9516 47.1408C65.9516 43.4273 65.2363 40.1244 63.9306 37.3269C70.0809 40.3354 73.9358 46.7434 73.9358 55.365C73.9358 68.0459 66.9492 86.8427 50.0851 94.1869C47.4584 95.3308 45.582 95.0215 43.3299 94.6502C41.948 94.4224 40.4247 94.1713 38.4999 94.2182C36.9136 94.2569 35.7074 94.4708 34.6257 94.6625C32.6234 95.0175 31.0478 95.2969 28.2776 94.2495C21.7972 91.7994 16.6843 87.7568 12.8054 82.9499C14.6725 84.1289 16.7107 85.1547 18.9308 85.9941C21.7881 87.0743 23.9855 86.7572 26.4838 86.3967C27.7161 86.2189 29.0216 86.0305 30.5156 85.9941C32.3913 85.9483 34.0729 86.1899 35.6622 86.4183C38.3618 86.8062 40.7955 87.1559 43.4634 85.994Z" fill="#ED4A27"/>
<path d="M54.4058 13.581C54.4058 13.581 57.1905 25.9325 53.8599 32.5298C49.8458 40.4813 38.2071 40.6842 38.2071 40.6842C38.2071 40.6842 34.8775 31.1782 39.6965 23.1152C43.4035 16.9128 54.4058 13.581 54.4058 13.581Z" fill="#5AF560"/>
<path fill-rule="evenodd" clip-rule="evenodd" d="M57.4008 12.9526L54.4037 13.5838L53.48 10.7054C54.3009 10.4567 55.193 10.5585 55.9385 10.9858C56.684 11.4131 57.2146 12.1267 57.4008 12.9526ZM51.4959 14.644C53.2188 13.9426 54.4037 13.5838 54.4037 13.5838C54.4037 13.5838 54.6696 14.7635 54.9388 16.5883C55.5406 20.6678 56.1585 27.9715 53.858 32.5289C49.8448 40.4788 38.2092 40.6817 38.2092 40.6817C38.2092 40.6817 34.8805 31.1775 39.6982 23.1161C42.1879 18.9502 47.9692 16.0795 51.4959 14.644ZM38.2092 40.6817C35.3067 41.643 35.3064 41.642 35.306 41.6409L35.3034 41.6333L35.2988 41.6201L35.2862 41.5831C35.2763 41.5539 35.2635 41.5154 35.2482 41.468C35.2175 41.3733 35.1765 41.2429 35.1281 41.0795C35.0314 40.753 34.9048 40.2933 34.7719 39.7223C34.5068 38.5838 34.212 36.9835 34.0841 35.1018C33.8307 31.3729 34.2195 26.3114 37.0474 21.5794C39.3637 17.7036 43.7161 14.9985 47.0311 13.3395C48.7565 12.4761 50.35 11.8242 51.5122 11.3875C52.0953 11.1685 52.5747 11.0018 52.914 10.8881C53.0837 10.8312 53.2188 10.7875 53.3145 10.757C53.3624 10.7418 53.4005 10.7299 53.4283 10.7213L53.4621 10.7108L53.477 10.7063L53.48 10.7054C53.4807 10.7052 53.48 10.7054 54.4037 13.5838C57.4008 12.9526 57.4006 12.9519 57.4008 12.9526L57.4022 12.9591L57.4047 12.9701L57.4125 13.0055L57.439 13.1283C57.4612 13.2327 57.4922 13.3817 57.5297 13.5708C57.6048 13.9487 57.7063 14.488 57.8165 15.1528C58.0363 16.4788 58.2936 18.3227 58.4417 20.3925C58.7256 24.3623 58.6656 29.8097 56.6107 33.8805C54.0692 38.9151 49.2185 41.3116 45.4615 42.4622C43.5422 43.0499 41.7782 43.3547 40.4959 43.5139C39.8513 43.5939 39.3196 43.6383 38.9397 43.6628C38.7495 43.6751 38.5967 43.6825 38.4861 43.6869C38.4307 43.6891 38.3859 43.6906 38.3522 43.6915L38.3099 43.6926L38.2952 43.6929L38.2894 43.693L38.2869 43.6931C38.2858 43.6931 38.2847 43.6931 38.2092 40.6817ZM35.3067 41.643L38.2092 40.6817L38.2847 43.6931C36.9472 43.7164 35.7424 42.887 35.3067 41.643Z" fill="#3A3A3A"/>
<path d="M51.7947 32.5157C54.7673 27.5437 53.2871 17.2338 53.2871 17.2338C44.5795 25.7007 42.2357 35.3005 41.6776 38.7747C41.6776 38.7747 48.8221 37.4877 51.7947 32.5157Z" fill="#4AC84F"/>
<path d="M22.5122 27.0101C25.4406 27.7694 35.0098 36.1599 37.626 41.3077C37.8443 41.7372 39.0379 41.1002 38.8529 40.7243C37.4073 35.8452 32.7004 24.2988 28.7788 20.7614C23.5079 20.5311 22.3723 25.917 22.5122 27.0101Z" fill="#943D31"/>
<path fill-rule="evenodd" clip-rule="evenodd" d="M21.7306 29.9226C20.5219 29.6092 19.6281 28.6053 19.472 27.3861C19.3679 26.5721 19.5121 25.609 19.7212 24.7992C19.9533 23.9003 20.3577 22.8311 21.0186 21.7924C22.4026 19.617 24.9557 17.5795 28.9148 17.7524C29.6344 17.7839 30.3197 18.0635 30.8504 18.5422C32.1543 19.7183 33.3631 21.3946 34.4283 23.1322C35.5198 24.9125 36.5731 26.9454 37.5268 28.9784C39.3939 32.9587 40.9663 37.1268 41.7528 39.7416C42.3444 41.3418 41.4133 42.6196 41.1286 42.9571C40.7035 43.4611 40.1951 43.7934 39.789 43.9981C39.3908 44.1989 38.7814 44.4334 38.0516 44.4605C37.3517 44.4865 35.7148 44.2867 34.885 42.6539C33.8338 40.5856 31.13 37.5045 28.0934 34.7133C26.6194 33.3585 25.1606 32.1579 23.9282 31.2688C23.3111 30.8236 22.7811 30.4785 22.3567 30.2363C21.9731 30.0174 21.7762 29.9409 21.7356 29.9252C21.727 29.9218 21.7255 29.9212 21.7306 29.9226ZM38.8529 40.7243C38.8513 40.7188 38.8496 40.7132 38.8479 40.7076C38.6557 40.0601 38.4065 39.2963 38.1096 38.45C37.7326 37.3752 37.2788 36.1675 36.7674 34.8965C34.6409 29.6118 31.5182 23.2325 28.7788 20.7615C23.5079 20.5312 22.3722 25.917 22.5121 27.0102C24.6233 27.5576 30.186 32.0713 34.1067 36.4768C34.9364 37.4091 35.6925 38.3365 36.3269 39.2205C36.7989 39.8783 37.2034 40.512 37.5207 41.1058C37.5569 41.1736 37.592 41.241 37.626 41.3078C37.8442 41.7372 39.0379 41.1003 38.8529 40.7243ZM35.8863 41.4834C35.9333 41.6616 36.0012 41.8462 36.0946 42.0359C36.0202 41.8848 35.9588 41.7278 35.9111 41.5666C35.9029 41.5391 35.8947 41.5114 35.8863 41.4834Z" fill="#3A3A3A"/>
<path d="M29.7958 20.8853C30.734 21.9164 30.0125 24.0554 28.1843 25.6628C26.3561 27.2703 24.1135 27.7375 23.1753 26.7065C22.2371 25.6754 22.9586 23.5364 24.7868 21.929C26.615 20.3215 28.8576 19.8543 29.7958 20.8853Z" fill="#C26649"/>
<path d="M17.2726 66.3684C18.2451 66.1855 19.0511 65.8776 19.6904 65.4446C20.3288 65.0066 20.7802 64.4765 21.0448 63.8544C21.3135 63.2262 21.3771 62.5359 21.2356 61.7834L21.2341 61.7757C21.0657 60.88 20.6578 60.2333 20.0107 59.8356C19.3626 59.4329 18.4256 59.2275 17.1999 59.2196L16.014 59.2121C15.394 59.2121 14.931 59.1455 14.6251 59.0123C14.3233 58.873 14.1425 58.6446 14.0828 58.3273L14.0814 58.3196C14.04 58.0995 14.0679 57.8955 14.165 57.7076C14.2663 57.5137 14.4286 57.348 14.6519 57.2106C14.8741 57.0681 15.1516 56.9656 15.4844 56.903C15.8273 56.8385 16.1384 56.8304 16.4178 56.8785C16.6971 56.9267 16.9299 57.0233 17.1162 57.1685C17.3067 57.3075 17.4445 57.4909 17.5297 57.7187L17.561 57.8003L20.1715 57.3093L20.1465 57.2186C19.9669 56.574 19.6534 56.0341 19.2059 55.5989C18.7574 55.1586 18.1837 54.8558 17.4848 54.6904C16.7901 54.519 15.9796 54.5204 15.0531 54.6947C14.2034 54.8545 13.4763 55.1449 12.8719 55.566C12.2665 55.982 11.8249 56.4943 11.5472 57.103C11.2686 57.7066 11.1946 58.3697 11.3252 59.0924L11.3266 59.1C11.4893 59.9651 11.8883 60.6214 12.5237 61.069C13.1642 61.5156 14.0896 61.7443 15.2999 61.7551L16.4858 61.7626C17.1599 61.7683 17.6485 61.8301 17.9516 61.948C18.2546 62.0659 18.4355 62.2809 18.4943 62.5932L18.4957 62.6008C18.539 62.8312 18.5012 63.0529 18.3823 63.2661C18.2686 63.4783 18.0857 63.661 17.8336 63.8144C17.5816 63.9678 17.2713 64.0792 16.9028 64.1485C16.5291 64.2188 16.1893 64.2297 15.8834 64.1812C15.5775 64.1328 15.3238 64.0374 15.1221 63.8952C14.9195 63.7478 14.7842 63.5639 14.7163 63.3435L14.6956 63.2758L12.0007 63.7827L12.0344 63.9195C12.2043 64.5977 12.5254 65.1494 12.9975 65.5746C13.4738 65.9938 14.0753 66.2755 14.802 66.4197C15.5277 66.5588 16.3513 66.5417 17.2726 66.3684ZM22.7533 65.0275L25.2332 64.5611L23.9075 57.5128L25.2972 57.2514L22.0401 54.0085L27.9051 64.0585L29.5175 63.7553L31.3303 52.2612L29.474 56.4658L30.8637 56.2045L32.1894 63.2527L34.6693 62.7863L32.5855 51.7071L29.3685 52.3122L28.1166 60.3223L27.9784 60.3483L23.8788 53.3447L20.6694 53.9484L22.7533 65.0275ZM35.2771 62.672L38.2408 62.1146L39.027 53.0235L39.8409 52.8704L39.3816 50.4289L36.917 50.8924L35.2771 62.672ZM36.9936 59.8371L43.4584 58.6212L42.4384 56.7064L37.2559 57.6812L36.9936 59.8371ZM43.216 61.1788L46.1797 60.6214L40.3644 50.244L38.7137 50.5545L39.1729 52.9961L43.216 61.1788ZM46.7721 60.5099L49.5899 59.9799L48.8621 56.1103L50.1903 55.8605C50.2108 55.8566 50.2313 55.8528 50.2517 55.8489C50.2773 55.8441 50.3004 55.8398 50.3209 55.8359L52.9451 59.3489L56.1084 58.7539L53.0899 54.8779C53.6438 54.4981 54.0312 53.9933 54.2519 53.3636C54.4726 52.7338 54.5194 52.0811 54.3924 51.4054L54.3895 51.3901C54.246 50.6274 53.962 50.0051 53.5375 49.5232C53.112 49.0361 52.5596 48.7055 51.8803 48.5312C51.2061 48.3559 50.4134 48.3539 49.5023 48.5253L44.6883 49.4308L46.7721 60.5099ZM48.4981 54.1755L47.9061 51.0275L49.5722 50.7142C50.0789 50.6189 50.5081 50.6892 50.8599 50.9251C51.2107 51.1559 51.4299 51.5042 51.5175 51.97L51.5204 51.9853C51.6109 52.4665 51.5367 52.8753 51.2979 53.2117C51.0591 53.5481 50.6863 53.7639 50.1796 53.8592L48.4981 54.1755ZM59.3727 58.1399L62.1905 57.6099L60.5327 48.7957L63.7267 48.195L63.3007 45.93L54.0949 47.6615L54.5209 49.9265L57.7149 49.3257L59.3727 58.1399Z" fill="white"/>
<path d="M17.7306 79.2002L20.3871 78.7006L20.9317 71.5787L21.0699 71.5528L24.1954 77.9843L26.8366 77.4875L27.6473 65.8639L24.745 66.4098L24.6745 74.0228L24.5363 74.0488L21.3207 67.0539L19.0634 67.4784L18.6704 75.1521L18.5322 75.178L15.6775 68.1153L12.7522 68.6655L17.7306 79.2002ZM28.7265 77.132L31.6902 76.5746L32.4764 67.4836L33.2903 67.3305L32.8311 64.8889L30.3665 65.3525L28.7265 77.132ZM30.443 74.2971L36.9078 73.0812L35.8879 71.1664L30.7053 72.1412L30.443 74.2971ZM36.6655 75.6388L39.6291 75.0814L33.8138 64.7041L32.1631 65.0146L32.6223 67.4561L36.6655 75.6388ZM44.4162 74.4911C45.3888 74.3081 46.1947 74.0002 46.834 73.5673C47.4724 73.1292 47.9239 72.5991 48.1884 71.977C48.4571 71.3488 48.5207 70.6585 48.3792 69.9061L48.3778 69.8984C48.2093 69.0026 47.8015 68.3559 47.1543 67.9583C46.5062 67.5555 45.5693 67.3502 44.3436 67.3422L43.1577 67.3347C42.5376 67.3348 42.0746 67.2682 41.7687 67.1349C41.4669 66.9956 41.2862 66.7673 41.2265 66.4499L41.225 66.4422C41.1836 66.2221 41.2115 66.0182 41.3087 65.8303C41.41 65.6363 41.5723 65.4707 41.7955 65.3333C42.0178 65.1908 42.2953 65.0883 42.628 65.0257C42.9709 64.9612 43.2821 64.953 43.5614 65.0012C43.8408 65.0493 44.0736 65.146 44.2599 65.2911C44.4503 65.4302 44.5881 65.6136 44.6734 65.8413L44.7046 65.9229L47.3151 65.4319L47.2901 65.3412C47.1106 64.6966 46.797 64.1567 46.3495 63.7216C45.901 63.2812 45.3273 62.9784 44.6285 62.8131C43.9338 62.6417 43.1232 62.6431 42.1967 62.8173C41.347 62.9772 40.62 63.2676 40.0155 63.6887C39.4101 64.1046 38.9685 64.6169 38.6909 65.2256C38.4122 65.8292 38.3382 66.4923 38.4688 67.215L38.4703 67.2227C38.633 68.0877 39.032 68.744 39.6673 69.1916C40.3078 69.6382 41.2332 69.8669 42.4436 69.8778L43.6295 69.8852C44.3036 69.8909 44.7922 69.9527 45.0952 70.0706C45.3983 70.1885 45.5792 70.4036 45.6379 70.7158L45.6393 70.7235C45.6827 70.9538 45.6449 71.1756 45.526 71.3887C45.4122 71.6009 45.2293 71.7837 44.9773 71.9371C44.7252 72.0905 44.4149 72.2018 44.0464 72.2712C43.6728 72.3414 43.333 72.3523 43.0271 72.3039C42.7212 72.2554 42.4674 72.1601 42.2658 72.0178C42.0632 71.8704 41.9279 71.6865 41.8599 71.4661L41.8393 71.3985L39.1443 71.9054L39.178 72.0421C39.3479 72.7203 39.669 73.272 40.1412 73.6973C40.6175 74.1165 41.219 74.3982 41.9457 74.5424C42.6714 74.6814 43.4949 74.6643 44.4162 74.4911ZM52.4843 72.6635L55.3021 72.1335L53.6443 63.3193L56.8383 62.7186L56.4123 60.4536L47.2065 62.1851L47.6325 64.4501L50.8265 63.8493L52.4843 72.6635ZM59.2498 71.391L66.8432 69.9628L66.4172 67.6979L61.6415 68.5961L61.2155 66.3311L65.7071 65.4863L65.3172 63.4133L60.8256 64.2581L60.4097 62.0469L65.1854 61.1486L64.7594 58.8837L57.1659 60.3119L59.2498 71.391Z" fill="white"/>
</svg>
