<svg width="94" height="94" viewBox="0 0 94 94" fill="none" xmlns="http://www.w3.org/2000/svg">
<rect width="94" height="94" rx="10" fill="#B8E1FF"/>
<g clip-path="url(#clip0_226_1326)">
<path d="M47.353 62.04C31.56 62.04 19.8879 54.3038 18.6096 53.4246C16.646 52.0659 15.3167 50.0315 14.887 47.6816C14.4573 45.3308 14.9587 42.9495 16.3186 40.9877C17.9862 38.5652 20.7481 37.1142 23.694 37.1142C25.5042 37.1142 27.2435 37.6564 28.7469 38.6781C29.0635 38.8923 36.9098 44.1047 47.2094 44.1047C53.2751 44.1047 58.9927 42.2854 64.2 38.6987C65.7034 37.6663 67.4526 37.1142 69.2735 37.1142C72.2194 37.1142 74.9813 38.5553 76.6489 40.9778C78.0096 42.9397 78.5102 45.3209 78.0805 47.6717C77.6508 50.0225 76.3214 52.0668 74.357 53.4156C66.0613 59.138 56.9789 62.04 47.353 62.04Z" fill="#F4A360"/>
<path d="M47.353 64.1336C31.5394 64.1336 19.6394 56.6582 17.4139 55.1597C14.9911 53.4873 13.3585 50.9662 12.823 48.0643C12.2865 45.1569 12.9127 42.2209 14.5892 39.7975C16.6479 36.8059 20.0512 35.0197 23.694 35.0197C25.9222 35.0197 28.0724 35.674 29.9122 36.9116C29.9705 36.9547 37.4552 41.9906 47.2095 41.9906C52.8338 41.9906 58.1496 40.2949 63.0088 36.9502C64.8611 35.674 67.0274 35 69.2745 35C72.9173 35 76.3206 36.7862 78.3784 39.7769C80.0522 42.2119 80.6801 45.1488 80.1446 48.0446C79.6091 50.9465 77.9765 53.4676 75.5483 55.1427C66.8947 61.1088 57.4086 64.1336 47.353 64.1336ZM23.694 39.2078C21.4496 39.2078 19.3363 40.3128 18.0401 42.1635C15.8935 45.2698 16.6793 49.5403 19.7901 51.6859C20.2736 52.0211 31.8327 59.9357 47.3431 59.9357C56.5188 59.9357 65.2038 57.1601 73.1559 51.6859C74.662 50.6526 75.6756 49.0922 76.0075 47.2944C76.3394 45.4948 75.9492 43.6728 74.9087 42.1653C73.6295 40.3128 71.5197 39.2069 69.2628 39.2069C67.8661 39.2069 66.5233 39.6245 65.3796 40.415C59.8118 44.2508 53.695 46.1965 47.1996 46.1965C36.5636 46.1965 28.4401 40.9931 27.5485 40.3998C26.4174 39.6218 25.0826 39.2078 23.694 39.2078Z" fill="#4C2F1B"/>
<path d="M48.1612 71.1663C34.26 71.1663 21.5357 65.5864 14.2528 60.3641C12.3099 58.974 11.0307 56.91 10.6414 54.5493C10.253 52.1887 10.8055 49.828 12.2067 47.8859C13.8841 45.5557 16.6048 44.1558 19.4798 44.1558C21.3519 44.1558 23.1522 44.7285 24.6762 45.8219C24.7991 45.9035 27.8472 48.0598 32.5835 50.0324C37.8822 52.2398 43.1092 53.3645 48.1208 53.3645C55.3831 53.3645 62.0122 50.9519 67.8114 46.1903C69.4072 44.8818 71.4228 44.1558 73.4887 44.1558C76.1788 44.1558 78.7058 45.3514 80.4137 47.4262C81.9279 49.2652 82.6437 51.5954 82.4087 53.9767C82.1737 56.3579 81.0282 58.4936 79.1866 60.0163C70.1535 67.4164 59.7194 71.1663 48.1612 71.1663Z" fill="#FF6C4A"/>
<path d="M48.1612 73.2813C33.7774 73.2813 20.5822 67.4935 13.0293 62.0776C10.6306 60.3533 9.04647 57.8017 8.56925 54.8917C8.09293 51.9906 8.78005 49.068 10.5023 46.6626C12.5673 43.7821 15.9239 42.0622 19.4798 42.0622C21.795 42.0622 24.0115 42.7703 25.8899 44.1092C25.915 44.1271 28.8303 46.1956 33.3899 48.101C38.4375 50.2036 43.3935 51.2701 48.1208 51.2701C54.8772 51.2701 61.0514 49.0152 66.4721 44.5672C68.4366 42.945 70.9277 42.0515 73.4887 42.0515C76.8202 42.0515 79.932 43.5294 82.0247 46.106C83.8968 48.3753 84.7696 51.2459 84.4862 54.1918C84.2036 57.1287 82.789 59.777 80.5052 61.6492C71.0981 69.3675 60.2163 73.2813 48.1612 73.2813ZM19.4798 46.2593C17.2794 46.2593 15.1983 47.324 13.9119 49.1066C11.707 52.1735 12.4094 56.4592 15.4754 58.6612C22.4911 63.6944 34.7615 69.0727 48.1612 69.0727C59.2233 69.0727 69.2108 65.477 77.8464 58.3843C79.2583 57.2255 80.1356 55.5863 80.3141 53.7687C80.4935 51.9485 79.9526 50.1677 78.7892 48.7535C77.4741 47.1618 75.5419 46.2494 73.4878 46.2494C71.9045 46.2494 70.3598 46.8042 69.1381 47.8124C62.9567 52.8922 55.8855 55.4671 48.1199 55.4671C42.832 55.4671 37.3332 54.2912 31.7753 51.9718C26.7035 49.8531 23.4948 47.5579 23.4634 47.5346C22.2955 46.7002 20.9177 46.2593 19.4798 46.2593Z" fill="#4C2F1B"/>
<path d="M30.3526 59.7609C28.1235 59.7609 27.3152 57.6144 26.7725 56.1939C26.2101 54.7017 25.8522 53.9865 25.3714 53.9865C24.2053 53.9865 23.2643 53.0464 23.2643 51.8813C23.2643 50.7162 24.2053 49.7761 25.3714 49.7761C28.7774 49.7761 30.0045 52.8322 30.6701 54.5798C31.5698 53.3233 33.0329 51.4726 35.5392 51.4726C38.0652 51.4726 39.6099 53.3224 40.6432 54.5386C40.8271 54.7635 41.0729 55.0593 41.2774 55.2744C41.6246 54.9679 42.0955 54.4364 42.4023 54.0896C43.4967 52.8528 44.7444 51.4529 46.4837 51.4529C48.2939 51.4529 49.6655 52.9854 50.872 54.345C51.0155 54.5081 51.1788 54.6918 51.3528 54.8765C51.3833 54.8352 51.4039 54.8048 51.4246 54.7635C52.3243 53.4452 53.6958 51.4529 56.0272 51.4529C57.858 51.4529 59.1372 52.9137 60.2513 54.2124C60.3643 54.3351 60.4971 54.4884 60.6298 54.6417C60.6298 54.621 60.6406 54.6112 60.6406 54.6004C61.2335 52.7712 62.3279 49.3781 65.7034 49.3781C66.8695 49.3781 67.8105 50.3183 67.8105 51.4834C67.8105 52.6485 66.8695 53.5886 65.7034 53.5886C65.3248 53.7929 64.8647 55.2134 64.6503 55.8982C64.139 57.4917 63.433 59.6793 61.1931 59.6793C59.4027 59.6793 58.1549 58.249 57.0606 56.9808C56.7538 56.6232 56.273 56.072 55.9456 55.7852C55.6181 56.0819 55.158 56.7558 54.8817 57.1547C54.0735 58.3395 53.1531 59.6784 51.4963 59.6784C49.9516 59.6784 48.868 58.4524 47.7118 57.1547C47.3745 56.7765 46.8731 56.2136 46.4945 55.8775C46.1877 56.1634 45.8092 56.6026 45.5428 56.8992C44.3874 58.2068 43.0679 59.6784 41.2057 59.6784C39.426 59.6784 38.3002 58.3395 37.3906 57.2559C36.7457 56.4897 36.081 55.6929 35.5185 55.6929C35.0682 55.6929 34.5775 56.3364 33.9227 57.2461C33.1961 58.3 32.1529 59.7609 30.3526 59.7609Z" fill="#F9AF38"/>
<path d="M47.118 80.8957C32.4193 80.8957 20.8298 75.0908 18.7433 73.6604C16.7788 72.3009 15.4387 70.5837 14.8762 68.6936C14.2322 66.5373 14.6412 64.2375 16.0316 62.2246C17.6992 59.8021 20.4611 58.3511 23.4069 58.3511C25.2171 58.3511 26.9565 58.8925 28.4608 59.9142C28.7774 60.1283 36.6237 65.3408 46.9242 65.3408C52.9899 65.3408 58.7075 63.5215 63.9147 59.9348C65.4182 58.9032 67.1674 58.3511 68.9883 58.3511C71.935 58.3511 74.6961 59.7914 76.3636 62.2139C77.7451 64.2169 78.2465 66.384 77.8168 68.4686C77.397 70.4923 76.1286 72.2901 74.1345 73.6604C64.8853 80.0165 55.689 80.8957 47.118 80.8957Z" fill="#F4A360"/>
<path d="M47.1081 83C29.7597 83 17.6453 75.4538 17.5251 75.3776C15.174 73.759 13.5513 71.6502 12.8508 69.2887C12.0264 66.4969 12.5377 63.5618 14.2914 61.0246C16.35 58.033 19.7533 56.2468 23.3962 56.2468C25.6342 56.2468 27.7835 56.9073 29.6107 58.1567C29.6753 58.2033 37.2283 63.2365 46.9116 63.2365C52.536 63.2365 57.8508 61.5408 62.7109 58.1961C64.5633 56.9208 66.7287 56.2459 68.9757 56.2459C72.6186 56.2459 76.0219 58.0321 78.0796 61.0228C79.7956 63.5071 80.411 66.2281 79.8584 68.8907C79.3247 71.4629 77.7522 73.7088 75.3114 75.3866C65.6083 82.0778 56.0218 83 47.1081 83ZM23.3971 60.4447C21.15 60.4447 19.033 61.5498 17.7341 63.4005C15.7096 66.3347 16.5456 69.5988 19.913 71.9227C20.0144 71.9917 31.211 78.7922 47.0973 78.7922C55.3266 78.7922 64.1498 77.9596 72.9209 71.9227C74.496 70.8409 75.4792 69.4607 75.7608 67.9318C76.0335 66.4521 75.6361 64.8873 74.6117 63.4032C73.3317 61.5507 71.2219 60.4447 68.9659 60.4447C67.5701 60.4447 66.2273 60.8624 65.0827 61.6528C59.5148 65.4887 53.3971 67.4344 46.9027 67.4344C36.2586 67.4344 28.1423 62.2309 27.2516 61.6376C26.1204 60.8588 24.7848 60.4447 23.3971 60.4447Z" fill="#4C2F1B"/>
<path d="M30.3221 74.2224C30.0252 74.2224 29.7282 74.0996 29.5237 73.8549C29.1461 73.4158 29.1963 72.7508 29.6466 72.3726C31.9385 70.4206 31.2119 67.6405 31.1805 67.5285C31.0271 66.9656 31.3546 66.3939 31.917 66.2307C32.4794 66.0775 33.0526 66.3947 33.2159 66.9558C33.267 67.1297 34.3614 71.1358 31.0164 73.9768C30.8029 74.1408 30.567 74.2224 30.3221 74.2224ZM47.4857 76.8797C47.3018 76.8797 47.1179 76.8286 46.9439 76.7363C46.4425 76.4396 46.2792 75.7961 46.5761 75.2961C48.1612 72.6387 46.412 70.6662 46.4021 70.6455C46.0137 70.2163 46.0442 69.5521 46.4739 69.1641C46.9036 68.7751 47.5683 68.8065 47.9567 69.2358C48.9281 70.3086 50.2791 73.1908 48.3863 76.3688C48.1917 76.6951 47.8436 76.8797 47.4857 76.8797Z" fill="#4C2F1B"/>
<path d="M65.141 73.9571C64.9768 73.9571 64.8136 73.9159 64.6602 73.8442C64.139 73.5789 63.9444 72.9453 64.2099 72.4236C65.4989 69.9304 63.3299 67.9775 63.2384 67.8959C62.8087 67.5079 62.7576 66.8536 63.1361 66.4136C63.5138 65.9744 64.1794 65.9332 64.6189 66.3114C65.8469 67.3743 67.7289 70.2154 66.082 73.3934C65.8882 73.7519 65.5195 73.9571 65.141 73.9571Z" fill="#4C2F1B"/>
<path d="M86.4175 54.8352C86.1519 54.8352 85.8855 54.7635 85.6505 54.6309L83.3389 53.3027C82.6329 52.8931 82.3665 52.005 82.7352 51.279L83.9121 48.9694C84.1776 48.4487 84.6997 48.1315 85.2827 48.1315C85.9582 48.1315 86.5511 48.5608 86.7458 49.2043L87.8814 52.8429C88.0249 53.3134 87.9433 53.8135 87.6562 54.2124C87.3683 54.6004 86.9081 54.8352 86.4175 54.8352Z" fill="#FF6C4A"/>
<path d="M85.2818 49.1738C85.4765 49.1738 85.6702 49.2858 85.742 49.5108L86.8776 53.1485C86.9799 53.4855 86.7242 53.7822 86.4175 53.7822C86.3358 53.7822 86.2542 53.7616 86.1726 53.7212L83.8609 52.393C83.6358 52.2604 83.5542 51.9844 83.6663 51.7594L84.853 49.4391C84.9445 49.2652 85.1078 49.1738 85.2818 49.1738ZM85.2818 47.0686C84.2996 47.0686 83.4205 47.6099 82.9702 48.4783L81.7942 50.7879C81.1708 52.0139 81.6202 53.516 82.8168 54.2007L85.1284 55.5289C85.5267 55.7539 85.9671 55.8767 86.4175 55.8767C87.2364 55.8767 88.024 55.4778 88.5039 54.8137C88.9847 54.1595 89.1274 53.291 88.8825 52.514L87.7468 48.8753C87.4096 47.8035 86.4175 47.0686 85.2818 47.0686Z" fill="#4C2F1B"/>
<path d="M7.59331 51.9127C7.10264 51.9127 6.64247 51.6778 6.35542 51.279C6.06927 50.8802 5.98764 50.39 6.13027 49.9096L7.2659 46.2709C7.47042 45.6274 8.05349 45.1981 8.73881 45.1981C9.32188 45.1981 9.84394 45.5145 10.1095 46.0361L11.2864 48.3457C11.6541 49.0707 11.3886 49.9607 10.6827 50.3694L8.37103 51.6976C8.12525 51.841 7.85973 51.9127 7.59331 51.9127Z" fill="#FF6C4A"/>
<path d="M8.72891 46.2611C8.90293 46.2611 9.06619 46.3426 9.15858 46.5263L10.3346 48.8359C10.4467 49.0609 10.3651 49.3468 10.1399 49.4695L7.82829 50.7978C7.74667 50.839 7.66504 50.8587 7.58341 50.8587C7.27663 50.8587 7.02097 50.562 7.12323 50.2251L8.25887 46.5864C8.3396 46.3731 8.53425 46.2611 8.72891 46.2611ZM8.72891 44.1558C7.59327 44.1558 6.5904 44.8818 6.25312 45.9743L5.11749 49.6129C4.8726 50.3998 5.01523 51.2584 5.49603 51.9127C5.9867 52.5777 6.76442 52.9756 7.58251 52.9756C8.03282 52.9756 8.48223 52.8537 8.87153 52.6278L11.1832 51.2996C12.3798 50.614 12.8301 49.1128 12.1959 47.8859L11.0199 45.5763C10.5902 44.6972 9.71115 44.1558 8.72891 44.1558Z" fill="#4C2F1B"/>
</g>
<path d="M38.2754 14.4688V23H36.6641V14.4688H38.2754ZM43.3965 14.4688L39.9746 18.6289L38.0176 20.7207L37.7305 19.1562L39.0898 17.3926L41.4219 14.4688H43.3965ZM41.6035 23L38.9492 19.0039L40.1035 17.9609L43.5195 23H41.6035ZM43.7129 19.8945V19.7715C43.7129 19.3066 43.7793 18.8789 43.9121 18.4883C44.0449 18.0938 44.2383 17.752 44.4922 17.4629C44.7461 17.1738 45.0566 16.9492 45.4238 16.7891C45.791 16.625 46.209 16.543 46.6777 16.543C47.1543 16.543 47.5762 16.625 47.9434 16.7891C48.3145 16.9492 48.627 17.1738 48.8809 17.4629C49.1348 17.752 49.3281 18.0938 49.4609 18.4883C49.5938 18.8789 49.6602 19.3066 49.6602 19.7715V19.8945C49.6602 20.3555 49.5938 20.7832 49.4609 21.1777C49.3281 21.5684 49.1348 21.9102 48.8809 22.2031C48.627 22.4922 48.3164 22.7168 47.9492 22.877C47.582 23.0371 47.1621 23.1172 46.6895 23.1172C46.2207 23.1172 45.8008 23.0371 45.4297 22.877C45.0586 22.7168 44.7461 22.4922 44.4922 22.2031C44.2383 21.9102 44.0449 21.5684 43.9121 21.1777C43.7793 20.7832 43.7129 20.3555 43.7129 19.8945ZM45.2598 19.7715V19.8945C45.2598 20.1719 45.2871 20.4316 45.3418 20.6738C45.3965 20.916 45.4805 21.1289 45.5938 21.3125C45.707 21.4961 45.8535 21.6406 46.0332 21.7461C46.2168 21.8477 46.4355 21.8984 46.6895 21.8984C46.9395 21.8984 47.1543 21.8477 47.334 21.7461C47.5137 21.6406 47.6602 21.4961 47.7734 21.3125C47.8906 21.1289 47.9766 20.916 48.0312 20.6738C48.0859 20.4316 48.1133 20.1719 48.1133 19.8945V19.7715C48.1133 19.498 48.0859 19.2422 48.0312 19.0039C47.9766 18.7617 47.8906 18.5488 47.7734 18.3652C47.6602 18.1777 47.5117 18.0312 47.3281 17.9258C47.1484 17.8164 46.9316 17.7617 46.6777 17.7617C46.4277 17.7617 46.2129 17.8164 46.0332 17.9258C45.8535 18.0312 45.707 18.1777 45.5938 18.3652C45.4805 18.5488 45.3965 18.7617 45.3418 19.0039C45.2871 19.2422 45.2598 19.498 45.2598 19.7715ZM44.498 14.9844C44.498 14.7852 44.5703 14.6191 44.7148 14.4863C44.8594 14.3496 45.043 14.2812 45.2656 14.2812C45.4922 14.2812 45.6758 14.3496 45.8164 14.4863C45.9609 14.6191 46.0332 14.7852 46.0332 14.9844C46.0332 15.1797 45.9609 15.3457 45.8164 15.4824C45.6758 15.6152 45.4922 15.6816 45.2656 15.6816C45.043 15.6816 44.8594 15.6152 44.7148 15.4824C44.5703 15.3457 44.498 15.1797 44.498 14.9844ZM47.293 14.9902C47.293 14.791 47.3633 14.625 47.5039 14.4922C47.6484 14.3555 47.834 14.2871 48.0605 14.2871C48.2832 14.2871 48.4668 14.3555 48.6113 14.4922C48.7559 14.625 48.8281 14.791 48.8281 14.9902C48.8281 15.1855 48.7559 15.3516 48.6113 15.4883C48.4668 15.6211 48.2832 15.6875 48.0605 15.6875C47.834 15.6875 47.6484 15.6211 47.5039 15.4883C47.3633 15.3516 47.293 15.1855 47.293 14.9902ZM53.7852 16.6602V17.7734H50.1523V16.6602H53.7852ZM51.125 15.1016H52.6777V21.1719C52.6777 21.3594 52.7031 21.5039 52.7539 21.6055C52.8047 21.707 52.8809 21.7754 52.9824 21.8105C53.084 21.8457 53.2051 21.8633 53.3457 21.8633C53.4473 21.8633 53.541 21.8574 53.627 21.8457C53.7129 21.834 53.7852 21.8223 53.8438 21.8105L53.8496 22.9707C53.7207 23.0137 53.5742 23.0488 53.4102 23.0762C53.25 23.1035 53.0684 23.1172 52.8652 23.1172C52.5176 23.1172 52.2129 23.0586 51.9512 22.9414C51.6895 22.8203 51.4863 22.627 51.3418 22.3613C51.1973 22.0918 51.125 21.7363 51.125 21.2949V15.1016ZM57.8164 16.6602V17.7734H54.1836V16.6602H57.8164ZM55.1562 15.1016H56.709V21.1719C56.709 21.3594 56.7344 21.5039 56.7852 21.6055C56.8359 21.707 56.9121 21.7754 57.0137 21.8105C57.1152 21.8457 57.2363 21.8633 57.377 21.8633C57.4785 21.8633 57.5723 21.8574 57.6582 21.8457C57.7441 21.834 57.8164 21.8223 57.875 21.8105L57.8809 22.9707C57.752 23.0137 57.6055 23.0488 57.4414 23.0762C57.2812 23.1035 57.0996 23.1172 56.8965 23.1172C56.5488 23.1172 56.2441 23.0586 55.9824 22.9414C55.7207 22.8203 55.5176 22.627 55.373 22.3613C55.2285 22.0918 55.1562 21.7363 55.1562 21.2949V15.1016Z" fill="#373737"/>
<defs>
<clipPath id="clip0_226_1326">
<rect width="84" height="48" fill="white" transform="translate(5 35)"/>
</clipPath>
</defs>
</svg>
