<svg width="319" height="406" viewBox="0 0 319 406" fill="none" xmlns="http://www.w3.org/2000/svg">
<path d="M306.306 229.369C306.306 281.904 277.362 359.777 207.496 390.203C189.937 397.85 180.471 389.821 159.5 390.333C140.763 390.79 134.827 397.145 117.151 390.462C43.7478 362.71 12.6941 285.643 12.6941 229.369C12.6941 155.799 74.8043 118.36 159.5 168.314C238.55 121.135 306.306 155.799 306.306 229.369Z" fill="#FF542F"/>
<path fill-rule="evenodd" clip-rule="evenodd" d="M159.479 153.891C117.539 130.969 78.6631 127.212 48.8467 141.269C17.1572 156.209 0 189.209 0 229.369C0 288.831 32.6486 371.883 112.594 402.109C123.64 406.285 131.727 406.502 139.646 405.438C142.366 405.073 144.588 404.673 146.679 404.298C150.687 403.577 154.209 402.944 159.815 402.807C166.478 402.644 171.254 403.429 176.683 404.322C178.667 404.648 180.738 404.988 183.019 405.301C191.64 406.487 200.986 406.686 212.638 401.612C288.68 368.496 319 284.875 319 229.369C319 188.647 299.974 156.554 267.792 142.198C237.682 128.765 199.094 132.211 159.479 153.891ZM207.496 390.203C277.361 359.777 306.306 281.904 306.306 229.369C306.306 155.799 238.549 121.135 159.5 168.314C74.8042 118.36 12.694 155.799 12.694 229.369C12.694 285.643 43.7477 362.71 117.151 390.462C128.627 394.801 135.155 393.644 143.45 392.173C147.931 391.379 152.928 390.493 159.5 390.333C167.474 390.138 173.785 391.178 179.51 392.122C188.84 393.66 196.614 394.942 207.496 390.203Z" fill="#3A3A3A"/>
<path fill-rule="evenodd" clip-rule="evenodd" d="M180.063 356.261C249.928 325.835 273.228 247.833 273.228 195.298C273.228 179.913 270.265 166.229 264.855 154.64C290.335 167.104 306.306 193.651 306.306 229.369C306.306 281.904 277.361 359.777 207.496 390.203C196.614 394.942 188.84 393.66 179.51 392.122C173.785 391.178 167.474 390.138 159.5 390.333C152.928 390.493 147.931 391.379 143.45 392.173C135.154 393.644 128.627 394.801 117.15 390.462C90.3029 380.312 69.1208 363.564 53.0513 343.649C60.7862 348.534 69.2302 352.784 78.4278 356.261C90.2651 360.737 99.3688 359.423 109.719 357.929C114.824 357.193 120.233 356.412 126.422 356.261C134.193 356.071 141.159 357.072 147.744 358.019C158.928 359.626 169.01 361.074 180.063 356.261Z" fill="#ED4A27"/>
<path d="M225.395 56.2642C225.395 56.2642 236.932 107.435 223.134 134.766C206.504 167.708 158.286 168.549 158.286 168.549C158.286 168.549 144.493 129.167 164.457 95.7628C179.814 70.0674 225.395 56.2642 225.395 56.2642Z" fill="#5AF560"/>
<path fill-rule="evenodd" clip-rule="evenodd" d="M237.804 53.6607L225.387 56.2758L221.56 44.3508C224.962 43.3208 228.657 43.7423 231.746 45.5126C234.834 47.2828 237.032 50.2392 237.804 53.6607ZM213.341 60.6679C220.479 57.7624 225.387 56.2758 225.387 56.2758C225.387 56.2758 226.489 61.163 227.604 68.7231C230.097 85.6236 232.657 115.882 223.126 134.763C206.501 167.698 158.296 168.538 158.296 168.538C158.296 168.538 144.505 129.164 164.465 95.7667C174.779 78.508 198.73 66.6153 213.341 60.6679ZM158.296 168.538C146.271 172.521 146.27 172.517 146.268 172.512L146.257 172.481L146.238 172.426L146.186 172.273C146.145 172.152 146.092 171.992 146.029 171.796C145.902 171.404 145.732 170.863 145.531 170.187C145.131 168.834 144.606 166.929 144.056 164.564C142.957 159.847 141.736 153.217 141.206 145.422C140.156 129.973 141.767 109.004 153.483 89.4004C163.079 73.3434 181.11 62.1365 194.844 55.2638C201.992 51.6868 208.593 48.986 213.408 47.1769C215.824 46.2694 217.81 45.5787 219.216 45.1078C219.919 44.8721 220.478 44.691 220.875 44.5648C221.073 44.5017 221.231 44.4523 221.346 44.4166L221.486 44.3734L221.548 44.3545L221.56 44.3508C221.563 44.3499 221.56 44.3508 225.387 56.2758C237.804 53.6607 237.803 53.6581 237.804 53.6607L237.81 53.6875L237.82 53.7332L237.852 53.8798L237.962 54.3886C238.054 54.8214 238.182 55.4386 238.338 56.2219C238.649 57.7875 239.07 60.0218 239.526 62.776C240.437 68.2694 241.503 75.9081 242.116 84.4832C243.292 100.93 243.044 123.498 234.53 140.362C224.001 161.22 203.906 171.148 188.341 175.915C180.39 178.35 173.082 179.612 167.769 180.272C165.099 180.603 162.896 180.787 161.322 180.889C160.534 180.94 159.901 180.97 159.443 180.989C159.214 180.998 159.028 181.004 158.888 181.008L158.713 181.012L158.652 181.014L158.628 181.014L158.618 181.014C158.613 181.014 158.609 181.014 158.296 168.538ZM146.271 172.521L158.296 168.538L158.609 181.014C153.068 181.111 148.076 177.675 146.271 172.521Z" fill="#3A3A3A"/>
<path d="M214.578 134.708C226.893 114.11 220.761 71.3973 220.761 71.3973C184.687 106.474 174.977 146.245 172.665 160.638C172.665 160.638 202.263 155.306 214.578 134.708Z" fill="#4AC84F"/>
<path d="M93.2646 111.899C105.396 115.045 145.04 149.806 155.879 171.132C156.783 172.911 161.728 170.272 160.962 168.715C154.973 148.501 135.473 100.666 119.226 86.0117C97.3898 85.0576 92.685 107.37 93.2646 111.899Z" fill="#943D31"/>
<path fill-rule="evenodd" clip-rule="evenodd" d="M90.0269 123.965C85.0193 122.667 81.3162 118.508 80.6698 113.457C80.2383 110.085 80.8357 106.094 81.702 102.739C82.6636 99.0156 84.339 94.5862 87.077 90.2827C92.811 81.2704 103.388 72.8292 119.79 73.5459C122.771 73.6761 125.61 74.8345 127.809 76.8177C133.211 81.6903 138.218 88.6346 142.632 95.8332C147.153 103.209 151.517 111.631 155.468 120.054C163.203 136.543 169.717 153.811 172.976 164.644C175.427 171.273 171.569 176.567 170.39 177.965C168.629 180.053 166.522 181.43 164.84 182.278C163.191 183.11 160.666 184.081 157.642 184.193C154.743 184.301 147.961 183.473 144.523 176.709C140.169 168.14 128.967 155.376 116.387 143.812C110.281 138.2 104.237 133.226 99.1313 129.542C96.5744 127.698 94.379 126.268 92.6207 125.265C91.0313 124.358 90.2156 124.041 90.0477 123.976C90.012 123.962 90.0055 123.959 90.0269 123.965ZM160.962 168.715C160.955 168.692 160.948 168.669 160.941 168.646C160.145 165.963 159.113 162.799 157.883 159.293C156.321 154.84 154.441 149.837 152.322 144.571C143.512 122.678 130.576 96.249 119.226 86.0119C97.3898 85.0578 92.685 107.37 93.2646 111.899C102.011 114.167 125.056 132.867 141.299 151.118C144.736 154.981 147.869 158.823 150.497 162.485C152.452 165.21 154.129 167.836 155.443 170.295C155.593 170.577 155.738 170.855 155.879 171.132C156.783 172.911 161.728 170.273 160.962 168.715ZM148.672 171.86C148.867 172.598 149.148 173.363 149.535 174.149C149.227 173.523 148.972 172.872 148.774 172.205C148.741 172.091 148.706 171.976 148.672 171.86Z" fill="#3A3A3A"/>
<path d="M123.44 86.525C127.326 90.7966 124.337 99.6579 116.763 106.317C109.19 112.977 99.8988 114.913 96.012 110.641C92.1252 106.37 95.1143 97.5081 102.688 90.8487C110.262 84.1892 119.553 82.2534 123.44 86.525Z" fill="#C26649"/>
<path d="M31.3287 224.619L103.953 215.064L102.641 308.03L127.603 304.745" stroke="black" stroke-width="14"/>
<circle cx="57.0039" cy="266.664" r="13" transform="rotate(-5.04026 57.0039 266.664)" stroke="black" stroke-width="14"/>
<circle cx="154.674" cy="258.049" r="13" transform="rotate(-5.04026 154.674 258.049)" stroke="black" stroke-width="14"/>
<path d="M212.447 284.161C224.542 283.002 233.407 272.257 232.247 260.162C231.088 248.068 220.343 239.203 208.248 240.362" stroke="black" stroke-width="14"/>
<path d="M136.073 211.052L175.192 219.402" stroke="black" stroke-width="14"/>
<path d="M52.3715 385.707C62.6316 362.337 83.8987 344.293 110.876 339.288C137.866 334.281 164.203 343.508 182.163 361.661" stroke="black" stroke-width="14"/>
<rect x="123.033" y="239.762" width="60" height="20" transform="rotate(-5.04026 123.033 239.762)" fill="#FF542F"/>
<rect x="55.2959" y="245.736" width="30" height="20" transform="rotate(-5.04026 55.2959 245.736)" fill="#FF542F"/>
<rect x="25.4119" y="248.372" width="30" height="20" transform="rotate(-5.04026 25.4119 248.372)" fill="#FF542F"/>
</svg>
