<svg width="94" height="94" viewBox="0 0 94 94" fill="none" xmlns="http://www.w3.org/2000/svg">
<rect width="94" height="94" rx="10" fill="#FFC581"/>
<g clip-path="url(#clip0_757_1355)">
<path d="M49.8812 83.0471C49.1372 83.0471 48.44 82.821 47.975 82.3695L47.9289 82.3315L47.882 82.2934C40.9558 75.1366 31.706 67.4903 28.8705 67.3395C27.6153 67.9045 26.128 68.1686 24.5938 68.1686C20.2249 68.1686 15.9943 65.9089 14.5539 62.7447C13.5777 60.711 12.9736 56.5297 19.6669 51.746C27.1503 46.4348 34.0296 42.2161 48.6713 40.4459C49.9726 40.2952 51.1817 40.2198 52.297 40.2198C62.2908 40.2198 63.034 46.4721 63.453 49.8251C63.546 50.6542 63.639 51.4072 63.825 51.9348C64.1501 52.8386 66.7996 55.7766 81.1162 65.4947C82.1385 66.173 82.6965 67.2655 82.5574 68.32C82.4175 69.4126 81.6273 70.3537 80.4651 70.8813L80.0931 71.032C54.5752 82.1427 51.3216 83.0471 49.8812 83.0471Z" fill="#E7A664"/>
<path d="M49.9265 84.6415C48.6362 84.6415 47.4086 84.2069 46.559 83.4484L46.4039 83.3221L46.3688 83.2665C40.0031 76.7235 32.3018 70.3741 29.1781 69.0887L28.9837 69.0092L28.7826 69.0765C27.5173 69.5009 26.0527 69.7256 24.5478 69.7256C19.3049 69.7256 14.4216 67.0863 12.6737 63.3076C11.7704 61.3317 10.5144 56.1338 18.3522 50.5849C26.0744 45.0768 33.185 40.7182 48.3236 38.8855C49.6039 38.7131 50.9228 38.6262 52.2509 38.6262C57.27 38.6262 60.951 40.0989 63.1916 43.0038C64.8582 45.2309 65.1716 47.8105 65.3995 49.6934C65.4464 50.314 65.5428 51.0012 65.6383 51.3889L65.6525 51.4473L65.6886 51.4996C66.5491 52.755 70.1463 55.996 82.3924 64.301C83.9275 65.3324 84.7159 66.8962 84.5031 68.4864C84.3322 70.0807 83.1733 71.4876 81.4028 72.2576L81.0442 72.4023C52.9682 84.6415 51.5588 84.6415 49.9265 84.6415ZM49.2931 81.2389C49.3685 81.3455 49.521 81.4528 49.8344 81.4528C51.3217 81.4528 61.2971 77.4073 79.4832 69.4282C80.1015 69.1546 80.513 68.6555 80.5825 68.0919C80.652 67.5304 80.3747 66.9776 79.8409 66.6137L79.3918 66.3061C74.8713 63.2139 62.8623 55.0005 61.9104 52.2634C61.6984 51.6367 61.5995 50.8104 61.4948 49.9351C61.0809 46.4762 60.5136 41.7388 52.2518 41.7388C51.2546 41.7388 50.167 41.8141 48.9261 41.9689C34.8064 43.7059 28.1592 47.7725 20.9364 52.9078C15.0911 57.0417 15.5259 60.4849 16.306 62.1696C17.4875 64.722 20.954 66.575 24.5486 66.575C25.8734 66.575 27.0473 66.3428 28.0368 65.8838C28.2204 65.7948 28.47 65.7459 28.7315 65.7459C33.2219 65.7459 45.0666 76.8994 49.2931 81.2389Z" fill="#4C2F1B"/>
<path d="M49.4163 75.853V81.6912C49.4163 82.633 50.6715 83.2733 51.7406 82.821L82.1402 69.9015C82.6513 69.6754 83.0234 69.2231 83.0234 68.7716V62.2178L50.3455 74.6851C49.7883 74.8732 49.4163 75.3254 49.4163 75.853Z" fill="#E7A664"/>
<path d="M79.3969 68.7336C79.3969 67.9426 79.1648 67.8672 78.8388 67.8672C78.5137 67.8672 78.2347 68.5075 78.2347 69.2985C78.2347 70.0896 78.4668 70.4664 78.7928 70.4664C79.1648 70.4664 79.3969 69.5247 79.3969 68.7336ZM62.4777 72.0485C62.4777 71.2575 62.2456 71.1821 61.9197 71.1821C61.5946 71.1821 61.3155 71.8224 61.3155 72.6135C61.3155 73.4045 61.5476 73.7807 61.8736 73.7807C62.1987 73.7814 62.4777 72.8396 62.4777 72.0485ZM61.5015 74.8359C61.5015 74.0448 61.2694 73.9695 60.9435 73.9695C60.6175 73.9695 60.3394 74.6098 60.3394 75.4008C60.3394 76.1919 60.5715 76.5687 60.8974 76.5687C61.2234 76.5687 61.5015 75.6269 61.5015 74.8359ZM66.9396 74.6478C66.9396 73.8568 66.7075 73.7814 66.3816 73.7814C66.0565 73.7814 65.7774 74.4217 65.7774 75.2127C65.7774 76.0038 66.0095 76.38 66.3355 76.38C66.7075 76.3426 66.9396 75.4389 66.9396 74.6478ZM71.9135 71.8978C71.9135 71.2575 71.7275 71.1821 71.4954 71.1821C71.2633 71.1821 71.0311 71.7097 71.0311 72.35C71.0311 72.9903 71.2172 73.2918 71.4954 73.2918C71.7744 73.2911 71.9135 72.5381 71.9135 71.8978Z" fill="#DB914D"/>
<path d="M51.02 85C50.3388 85 49.738 84.8594 49.1841 84.5715C48.1082 84.0351 47.4949 83.1517 47.4949 82.1447V76.3059C47.4949 75.1815 48.2968 74.1894 49.588 73.7168L84.943 60.1868V69.2245C84.943 70.3211 84.2224 71.2778 83.0141 71.7844L52.6598 84.7046C52.033 84.8974 51.48 85 51.02 85ZM51.3836 76.4763V81.685L81.1028 69.0799V65.1552L51.3836 76.4763Z" fill="#4C2F1B"/>
<path d="M67.2194 70.5037C67.2194 70.1276 67.1264 70.0515 66.9404 70.0515C66.8013 70.0515 66.6614 70.353 66.6614 70.7672C66.6614 71.1814 66.8013 71.3321 66.9404 71.3321C67.0795 71.3328 67.2194 70.9186 67.2194 70.5037Z" fill="#DB914D"/>
<path d="M50.2994 74.4217C49.5562 74.4217 48.859 74.1955 48.394 73.7433L48.3471 73.7053L48.3001 73.6679C41.3748 66.5112 32.125 58.8641 29.2895 58.7141C28.0343 59.279 26.547 59.5431 25.0128 59.5431C20.6431 59.5431 16.4133 57.2827 14.9729 54.1192C13.9967 52.0475 13.3918 47.8668 20.132 43.1205C27.6162 37.8086 34.4955 33.5899 49.1372 31.8197C50.4385 31.669 51.6468 31.5936 52.7629 31.5936C62.7567 31.5936 63.4999 37.846 63.9189 41.1983C64.0119 42.0273 64.1049 42.7804 64.2909 43.308C64.616 44.2124 67.2655 47.1505 81.5821 56.8685C82.6044 57.5842 83.1624 58.6387 83.0225 59.6932C82.8834 60.7857 82.0933 61.7275 80.9311 62.2544L80.559 62.4052C54.9473 73.5172 51.6937 74.4217 50.2994 74.4217Z" fill="#F9D59A"/>
<path d="M50.3883 76.0153C49.0987 76.0153 47.8704 75.5807 47.019 74.8223L46.8649 74.6967L46.8313 74.6423C40.4649 68.0973 32.7619 61.7479 29.639 60.4625L29.4446 60.3831L29.2435 60.4503C27.9774 60.8747 26.5136 61.0994 25.0087 61.0994C19.7659 61.0994 14.8833 58.4601 13.1346 54.6807C12.1961 52.7245 10.8747 47.5783 18.8131 41.9581C26.5354 36.4506 33.6442 32.0927 48.7854 30.2594C50.0649 30.0869 51.3837 30 52.7135 30C57.7318 30 61.4127 31.4728 63.6542 34.3776C65.3233 36.6068 65.6342 39.185 65.8621 41.0672C65.9098 41.694 66.007 42.3804 66.1017 42.7627L66.116 42.8211L66.152 42.8734C67.0117 44.1282 70.608 47.3678 82.8558 55.6748C84.3917 56.7056 85.1802 58.2693 84.9665 59.8596C84.7948 61.4546 83.6368 62.8615 81.8662 63.6315L81.506 63.7775C53.4308 76.0153 52.0206 76.0153 50.3883 76.0153ZM49.7548 72.6508C49.8302 72.7574 49.9827 72.8647 50.2953 72.8647C51.7843 72.8647 61.7596 68.8191 79.9441 60.8401C80.5633 60.5664 80.9739 60.0667 81.0443 59.5031C81.1138 58.9415 80.8365 58.3888 80.3027 58.0249L79.8569 57.72C75.3355 54.6271 63.3249 46.4117 62.3722 43.6746C62.1602 43.0479 62.0613 42.2215 61.9566 41.3463C61.5426 37.8881 60.9754 33.1506 52.7135 33.1506C51.7223 33.1506 50.6514 33.224 49.3434 33.3808C35.2036 35.0831 28.8413 38.9888 21.3964 44.321C15.552 48.4535 15.9869 51.8968 16.767 53.5821C17.9484 56.1345 21.4149 57.9875 25.0095 57.9875C26.3351 57.9875 27.509 57.7553 28.4978 57.297C28.6821 57.2073 28.9318 57.1585 29.1924 57.1585C33.6845 57.1578 45.5284 68.3112 49.7548 72.6508Z" fill="#4C2F1B"/>
<path d="M49.8813 69.1858C49.4632 69.1858 49.0442 69.035 48.7652 68.7716C48.2541 68.282 48.3471 67.5283 48.9512 67.1141L68.9849 53.6296C69.5891 53.2154 70.5191 53.2908 71.0303 53.7803C71.5414 54.2699 71.4484 55.0236 70.8443 55.4378L50.8106 68.9216C50.5324 69.1104 50.2064 69.1858 49.8813 69.1858ZM37.9351 59.6185C37.517 59.6185 37.0989 59.4678 36.8199 59.2043C36.3079 58.7147 36.4018 57.961 37.0059 57.5468L58.4808 43.0825C59.085 42.6683 60.015 42.7437 60.5262 43.2333C61.0373 43.7228 60.9443 44.4758 60.3402 44.89L38.8644 59.3544C38.5862 59.5051 38.2603 59.6185 37.9351 59.6185ZM26.175 52.7252C25.7569 52.7252 25.3388 52.5744 25.0597 52.311C24.5478 51.8214 24.6416 51.0677 25.2458 50.6535L46.7199 36.1892C47.324 35.775 48.2541 35.8503 48.7652 36.3399C49.2763 36.8295 49.1833 37.5825 48.5792 37.9967L27.1051 52.4617C26.8261 52.6498 26.5001 52.7252 26.175 52.7252Z" fill="#E7A664"/>
<path d="M47.5108 42.2161C61.8735 38.9018 57.4577 47.6027 61.7344 48.9206C65.0349 49.9378 71.5422 53.2901 66.5222 56.0394C62.4315 58.2998 55.7383 66.1723 48.2548 60.7477C44.0251 57.7342 40.1204 59.7305 38.2141 57.0566C36.3087 54.3819 36.4947 53.5162 33.2872 53.4028C30.0796 53.2901 26.0828 49.6737 29.5224 44.4005C34.1234 37.3944 43.4201 43.1579 47.5108 42.2161Z" fill="#F4E87C"/>
<path d="M53.5992 63.7992C51.6008 63.7992 49.4624 63.1962 47.324 61.6522C45.5116 60.3715 43.7914 60.1454 42.1181 59.9567C40.3057 59.7306 38.2603 59.5044 36.959 57.6969C36.5409 57.132 36.2619 56.6797 35.9829 56.2656C35.0067 54.7588 34.9598 54.6835 33.1943 54.6088C31.102 54.5334 28.9645 53.4028 27.8023 51.7087C26.873 50.4274 25.7109 47.6781 28.2204 43.9116C31.8922 38.3369 38.3533 39.6929 42.63 40.5973C44.3964 40.9735 46.1627 41.3504 47.1389 41.1249C57.2718 38.7891 59.4101 42.0287 60.7575 45.5698C61.2225 46.8504 61.5946 47.6034 62.2917 47.8295C62.5707 47.9049 69.3101 50.0146 69.8221 53.4422C69.9612 54.384 69.636 55.7773 67.4047 57.0206C66.6145 57.4355 65.6844 58.1505 64.6622 58.9042C61.9205 60.8611 58.0158 63.7992 53.5992 63.7992ZM36.401 42.0654C34.0305 42.0654 32.2181 42.781 30.7769 45.0035C29.4287 47.0751 29.2427 49.0341 30.3127 50.5408C31.1028 51.6707 32.4041 52.2356 33.3334 52.273C36.587 52.3864 37.3771 53.3275 38.5393 55.173C38.7723 55.5499 39.0974 56.0021 39.4694 56.529C40.0275 57.3201 40.8168 57.4708 42.537 57.6589C44.4424 57.885 46.7668 58.1485 49.2303 59.9193C53.8321 63.2336 57.8759 60.7477 62.6629 57.1693C63.7321 56.3783 64.7552 55.6252 65.6844 55.0977C66.5215 54.6081 66.9396 54.1559 66.8935 53.7036C66.7075 52.4984 63.8251 50.8036 61.2225 50.0125C59.1303 49.3722 58.5261 47.7148 57.9689 46.246C56.9927 43.6848 56.1557 41.4244 47.8821 43.346C46.1619 43.7228 44.1634 43.308 41.886 42.8184C39.7945 42.4042 37.9821 42.0654 36.401 42.0654Z" fill="#4C2F1B"/>
<path d="M55.3662 47.7155C54.9942 47.7155 54.6691 47.5647 54.4831 47.3006C53.6929 46.0573 52.9958 45.5677 51.9727 45.6431C51.5546 45.6811 51.0434 45.7938 50.4393 45.9819C48.8121 46.4342 46.5346 46.9991 43.3279 46.1327C39.4702 45.0782 35.7515 45.1155 35.7046 45.1155C35.1934 45.1155 34.7284 44.7767 34.7284 44.3625C34.7284 43.9483 35.1465 43.5714 35.6576 43.5714C35.7976 43.5714 39.7014 43.5334 43.9312 44.664C46.5338 45.3797 48.3001 44.8901 49.8343 44.5132C50.5315 44.3245 51.1356 44.1744 51.7867 44.1364C54.5292 43.9483 55.7374 45.9066 56.2025 46.6603C56.4354 47.0364 56.2494 47.5267 55.7844 47.7148C55.6453 47.6781 55.5053 47.7155 55.3662 47.7155Z" fill="white"/>
<path d="M43.6531 51.0677C43.6531 51.5043 44.9426 51.8588 46.5347 51.8588C48.1259 51.8588 49.4163 51.5043 49.4163 51.0677C49.4163 50.6311 48.1259 50.2767 46.5347 50.2767C44.9426 50.2767 43.6531 50.6311 43.6531 51.0677Z" fill="white"/>
<path d="M33.5193 65.6828C33.5193 66.099 33.6852 66.4358 33.8913 66.4358C34.0966 66.4358 34.2625 66.0983 34.2625 65.6828C34.2625 65.2665 34.0966 64.9297 33.8913 64.9297C33.686 64.9297 33.5193 65.2665 33.5193 65.6828Z" fill="#DB914D"/>
<path d="M41.9789 72.8776C41.9789 73.2314 42.1037 73.5179 42.2579 73.5179C42.4121 73.5179 42.5369 73.2314 42.5369 72.8776C42.5369 72.5238 42.4121 72.2373 42.2579 72.2373C42.1046 72.2366 41.9789 72.5232 41.9789 72.8776Z" fill="#DB914D"/>
<path d="M25.0137 63.5357C25.0137 64.0348 25.2215 64.4395 25.4779 64.4395C25.7351 64.4395 25.9429 64.0348 25.9429 63.5357C25.9429 63.0367 25.7351 62.6313 25.4779 62.6313C25.2215 62.6313 25.0137 63.0367 25.0137 63.5357Z" fill="#DB914D"/>
<path d="M37.7491 69.1485C37.7491 69.6475 37.9569 70.0522 38.2134 70.0522C38.4706 70.0522 38.6784 69.6475 38.6784 69.1485C38.6784 68.6494 38.4706 68.244 38.2134 68.244C37.9569 68.244 37.7491 68.6487 37.7491 69.1485Z" fill="#DB914D"/>
<path d="M18.4126 62.4432C18.4126 63.3796 18.6413 64.1387 18.9237 64.1387C19.2061 64.1387 19.4349 63.3796 19.4349 62.4432C19.4349 61.5069 19.2061 60.7484 18.9237 60.7484C18.6413 60.7484 18.4126 61.5069 18.4126 62.4432Z" fill="#DB914D"/>
<path d="M75.7251 68.282C75.7251 67.6417 75.5391 67.5663 75.307 67.5663C75.074 67.5663 74.8419 68.0939 74.8419 68.7336C74.8419 69.3739 75.0279 69.6754 75.307 69.6754C75.5391 69.6754 75.7251 68.9217 75.7251 68.282ZM56.0634 76.7948C56.0634 76.2299 55.9235 76.1545 55.6453 76.1545C55.4132 76.1545 55.2272 76.6441 55.2272 77.209C55.2272 77.7739 55.4132 78.0754 55.6453 78.0754C55.8774 78.0374 56.0634 77.3597 56.0634 76.7948Z" fill="#DB914D"/>
<path d="M58.7129 58.8275C58.5269 58.8275 58.3408 58.7895 58.1548 58.6767C57.7367 58.4506 57.5968 57.9611 57.9227 57.5842C58.852 56.4917 61.1303 55.2111 62.8036 54.27C63.2217 54.0438 63.5937 53.8177 63.8728 53.667C63.3608 53.2908 62.1064 52.7252 60.6191 52.4998C57.7375 52.0475 56.2963 49.1475 56.2033 49.0341C56.0173 48.6192 56.2502 48.1677 56.7145 48.0169C57.2256 47.8662 57.7836 48.0543 57.9697 48.4311C58.2948 49.0341 59.41 50.6909 60.9442 50.9543C62.7567 51.2558 65.4531 52.1976 65.8712 53.4029C66.0103 53.8551 65.8712 54.3073 65.4531 54.6088C65.128 54.8349 64.6168 55.1364 63.8258 55.5506C62.3846 56.3416 60.2002 57.5842 59.4561 58.4506C59.317 58.7141 59.038 58.8275 58.7129 58.8275Z" fill="white"/>
<path d="M39.5825 37.8955C39.7182 38.1875 40.841 38.1155 42.0904 37.7339C43.3397 37.353 44.2421 36.8071 44.1072 36.5151C43.9715 36.2231 42.8487 36.2951 41.5993 36.6767C40.35 37.0576 39.4467 37.6029 39.5825 37.8955Z" fill="#F8CD8C"/>
<path d="M48.74 70.7788C48.8867 71.0931 49.4523 71.2527 50.2257 71.197C50.9991 71.1407 51.8613 70.8779 52.488 70.5071C53.1148 70.1357 53.4106 69.7134 53.264 69.3983C53.1173 69.0839 52.5517 68.9244 51.7783 68.9801C51.0049 69.0357 50.1427 69.2992 49.516 69.6699C48.8892 70.0413 48.5943 70.4637 48.74 70.7788Z" fill="#F8CD8C"/>
<path d="M22.809 54.8743C23.0478 55.3116 24.2318 55.3116 25.4518 54.8736C26.6727 54.4363 27.4687 53.7267 27.2299 53.2888C26.9911 52.8515 25.8079 52.8515 24.5871 53.2888C23.3663 53.7274 22.5702 54.437 22.809 54.8743Z" fill="#F8CD8C"/>
<path d="M70.4907 60.2677C70.7295 60.7049 71.9126 60.7049 73.1335 60.267C74.3543 59.8297 75.1503 59.1201 74.9115 58.6822C74.6727 58.2442 73.4887 58.2449 72.2679 58.6822C71.0479 59.1208 70.2519 59.8304 70.4907 60.2677Z" fill="#F8CD8C"/>
<path d="M54.9197 68.354C55.1585 68.7913 56.3416 68.7913 57.5625 68.354C58.7833 67.9168 59.5793 67.2065 59.3397 66.7692C59.1009 66.3319 57.9177 66.3319 56.6969 66.7699C55.476 67.2072 54.6809 67.9168 54.9197 68.354Z" fill="#F8CD8C"/>
<path d="M19.9736 47.382C20.1085 47.6292 20.7889 47.6251 21.4928 47.3725C22.1974 47.1199 22.6583 46.7146 22.5242 46.4674C22.3893 46.2203 21.7089 46.2243 21.0042 46.4769C20.3004 46.7295 19.8387 47.1342 19.9736 47.382Z" fill="#F8CD8C"/>
</g>
<path d="M25.5547 21.3301L27.6816 14.4688H29.4688L26.457 23H25.2676L25.5547 21.3301ZM23.5918 14.4688L25.707 21.3301L26.0117 23H24.8105L21.8105 14.4688H23.5918ZM32.8203 23.1172C32.3398 23.1172 31.9082 23.0391 31.5254 22.8828C31.1426 22.7266 30.8164 22.5098 30.5469 22.2324C30.2812 21.9512 30.0762 21.625 29.9316 21.2539C29.791 20.8789 29.7207 20.4766 29.7207 20.0469V19.8125C29.7207 19.3242 29.791 18.8809 29.9316 18.4824C30.0723 18.0801 30.2715 17.7344 30.5293 17.4453C30.7871 17.1562 31.0957 16.9336 31.4551 16.7773C31.8145 16.6211 32.2109 16.543 32.6445 16.543C33.0938 16.543 33.4902 16.6191 33.834 16.7715C34.1777 16.9199 34.4648 17.1309 34.6953 17.4043C34.9258 17.6777 35.0996 18.0059 35.2168 18.3887C35.334 18.7676 35.3926 19.1875 35.3926 19.6484V20.2988H30.4238V19.2324H33.8691V19.1152C33.8613 18.8691 33.8145 18.6445 33.7285 18.4414C33.6426 18.2344 33.5098 18.0703 33.3301 17.9492C33.1504 17.8242 32.918 17.7617 32.6328 17.7617C32.4023 17.7617 32.2012 17.8125 32.0293 17.9141C31.8613 18.0117 31.7207 18.1523 31.6074 18.3359C31.498 18.5156 31.416 18.7305 31.3613 18.9805C31.3066 19.2305 31.2793 19.5078 31.2793 19.8125V20.0469C31.2793 20.3125 31.3145 20.5586 31.3848 20.7852C31.459 21.0117 31.5664 21.209 31.707 21.377C31.8516 21.541 32.0234 21.6699 32.2227 21.7637C32.4258 21.8535 32.6562 21.8984 32.9141 21.8984C33.2383 21.8984 33.5312 21.8359 33.793 21.7109C34.0586 21.582 34.2891 21.3926 34.4844 21.1426L35.2637 21.9512C35.1309 22.1465 34.9512 22.334 34.7246 22.5137C34.502 22.6934 34.2324 22.8398 33.916 22.9531C33.5996 23.0625 33.2344 23.1172 32.8203 23.1172ZM40.4609 16.6602H41.8672V22.8066C41.8672 23.3809 41.7422 23.8672 41.4922 24.2656C41.2461 24.668 40.9004 24.9727 40.4551 25.1797C40.0098 25.3906 39.4922 25.4961 38.9023 25.4961C38.6484 25.4961 38.373 25.4609 38.0762 25.3906C37.7832 25.3203 37.5 25.209 37.2266 25.0566C36.957 24.9082 36.7324 24.7148 36.5527 24.4766L37.25 23.5625C37.4609 23.8086 37.6992 23.9941 37.9648 24.1191C38.2305 24.248 38.5176 24.3125 38.8262 24.3125C39.1387 24.3125 39.4043 24.2539 39.623 24.1367C39.8457 24.0234 40.0156 23.8555 40.1328 23.6328C40.2539 23.4141 40.3145 23.1445 40.3145 22.8242V18.1074L40.4609 16.6602ZM36.1777 19.9062V19.7832C36.1777 19.2988 36.2363 18.8594 36.3535 18.4648C36.4707 18.0664 36.6387 17.7246 36.8574 17.4395C37.0801 17.1543 37.3477 16.9336 37.6602 16.7773C37.9766 16.6211 38.332 16.543 38.7266 16.543C39.1445 16.543 39.4961 16.6191 39.7812 16.7715C40.0703 16.9238 40.3086 17.1406 40.4961 17.4219C40.6875 17.7031 40.8359 18.0371 40.9414 18.4238C41.0508 18.8066 41.1348 19.2285 41.1934 19.6895V20.0234C41.1387 20.4727 41.0508 20.8848 40.9297 21.2598C40.8125 21.6348 40.6562 21.9629 40.4609 22.2441C40.2656 22.5215 40.0234 22.7363 39.7344 22.8887C39.4453 23.041 39.1055 23.1172 38.7148 23.1172C38.3242 23.1172 37.9727 23.0371 37.6602 22.877C37.3477 22.7168 37.0801 22.4922 36.8574 22.2031C36.6387 21.9141 36.4707 21.5742 36.3535 21.1836C36.2363 20.793 36.1777 20.3672 36.1777 19.9062ZM37.7246 19.7832V19.9062C37.7246 20.1797 37.752 20.4355 37.8066 20.6738C37.8613 20.9121 37.9453 21.123 38.0586 21.3066C38.1719 21.4863 38.3145 21.627 38.4863 21.7285C38.6582 21.8301 38.8633 21.8809 39.1016 21.8809C39.4219 21.8809 39.6836 21.8145 39.8867 21.6816C40.0938 21.5449 40.25 21.3594 40.3555 21.125C40.4648 20.8867 40.5352 20.6191 40.5664 20.3223V19.4023C40.5469 19.168 40.5039 18.9512 40.4375 18.752C40.375 18.5527 40.2871 18.3809 40.1738 18.2363C40.0605 18.0918 39.916 17.9785 39.7402 17.8965C39.5645 17.8145 39.3555 17.7734 39.1133 17.7734C38.8789 17.7734 38.6738 17.8262 38.498 17.9316C38.3223 18.0332 38.1777 18.1758 38.0645 18.3594C37.9512 18.543 37.8652 18.7559 37.8066 18.998C37.752 19.2402 37.7246 19.502 37.7246 19.7832ZM46.7539 21.6523V18.7285C46.7539 18.5137 46.7168 18.3281 46.6426 18.1719C46.5684 18.0156 46.4551 17.8945 46.3027 17.8086C46.1504 17.7227 45.957 17.6797 45.7227 17.6797C45.5156 17.6797 45.334 17.7148 45.1777 17.7852C45.0254 17.8555 44.9082 17.9551 44.8262 18.084C44.7441 18.209 44.7031 18.3535 44.7031 18.5176H43.1504C43.1504 18.2559 43.2129 18.0078 43.3379 17.7734C43.4629 17.5352 43.6406 17.3242 43.8711 17.1406C44.1055 16.9531 44.3848 16.8066 44.709 16.7012C45.0371 16.5957 45.4043 16.543 45.8105 16.543C46.291 16.543 46.7188 16.625 47.0938 16.7891C47.4727 16.9492 47.7695 17.1914 47.9844 17.5156C48.2031 17.8398 48.3125 18.248 48.3125 18.7402V21.5059C48.3125 21.8223 48.332 22.0938 48.3711 22.3203C48.4141 22.543 48.4766 22.7363 48.5586 22.9004V23H46.9824C46.9082 22.8398 46.8516 22.6367 46.8125 22.3906C46.7734 22.1406 46.7539 21.8945 46.7539 21.6523ZM46.9707 19.1387L46.9824 20.0586H46.0039C45.7617 20.0586 45.5488 20.084 45.3652 20.1348C45.1816 20.1816 45.0312 20.252 44.9141 20.3457C44.7969 20.4355 44.709 20.5449 44.6504 20.6738C44.5918 20.7988 44.5625 20.9414 44.5625 21.1016C44.5625 21.2578 44.5977 21.3984 44.668 21.5234C44.7422 21.6484 44.8477 21.748 44.9844 21.8223C45.125 21.8926 45.2891 21.9277 45.4766 21.9277C45.75 21.9277 45.9883 21.873 46.1914 21.7637C46.3945 21.6504 46.5527 21.5137 46.666 21.3535C46.7793 21.1934 46.8398 21.041 46.8477 20.8965L47.293 21.5645C47.2383 21.7246 47.1562 21.8945 47.0469 22.0742C46.9375 22.2539 46.7969 22.4219 46.625 22.5781C46.4531 22.7344 46.2461 22.8633 46.0039 22.9648C45.7617 23.0664 45.4805 23.1172 45.1602 23.1172C44.75 23.1172 44.3828 23.0352 44.0586 22.8711C43.7344 22.707 43.4785 22.4824 43.291 22.1973C43.1035 21.9121 43.0098 21.5879 43.0098 21.2246C43.0098 20.8887 43.0723 20.5918 43.1973 20.334C43.3223 20.0762 43.5078 19.8594 43.7539 19.6836C44 19.5039 44.3047 19.3691 44.668 19.2793C45.0352 19.1855 45.4551 19.1387 45.9277 19.1387H46.9707ZM51.2246 18.0137V23H49.6777V16.6602H51.1309L51.2246 18.0137ZM50.9785 19.6016H50.5215C50.5254 19.1406 50.5879 18.7227 50.709 18.3477C50.8301 17.9727 51 17.6504 51.2188 17.3809C51.4414 17.1113 51.7051 16.9043 52.0098 16.7598C52.3145 16.6152 52.6543 16.543 53.0293 16.543C53.334 16.543 53.6094 16.5859 53.8555 16.6719C54.1016 16.7578 54.3125 16.8945 54.4883 17.082C54.668 17.2695 54.8047 17.5156 54.8984 17.8203C54.9961 18.1211 55.0449 18.4922 55.0449 18.9336V23H53.4863V18.9219C53.4863 18.6328 53.4434 18.4043 53.3574 18.2363C53.2754 18.0684 53.1543 17.9492 52.9941 17.8789C52.8379 17.8086 52.6445 17.7734 52.4141 17.7734C52.1758 17.7734 51.9668 17.8223 51.7871 17.9199C51.6113 18.0137 51.4629 18.1445 51.3418 18.3125C51.2246 18.4805 51.1348 18.6738 51.0723 18.8926C51.0098 19.1113 50.9785 19.3477 50.9785 19.6016ZM59.8965 21.2656C59.8965 21.1328 59.8613 21.0137 59.791 20.9082C59.7207 20.8027 59.5879 20.707 59.3926 20.6211C59.2012 20.5312 58.9199 20.4473 58.5488 20.3691C58.2207 20.2988 57.918 20.2109 57.6406 20.1055C57.3633 20 57.125 19.873 56.9258 19.7246C56.7266 19.5723 56.5703 19.3945 56.457 19.1914C56.3477 18.9844 56.293 18.7461 56.293 18.4766C56.293 18.2148 56.3496 17.9688 56.4629 17.7383C56.5762 17.5039 56.7402 17.2988 56.9551 17.123C57.1699 16.9434 57.4316 16.8027 57.7402 16.7012C58.0488 16.5957 58.3965 16.543 58.7832 16.543C59.3223 16.543 59.7852 16.6309 60.1719 16.8066C60.5625 16.9824 60.8613 17.2246 61.0684 17.5332C61.2754 17.8379 61.3789 18.1816 61.3789 18.5645H59.832C59.832 18.3965 59.793 18.2441 59.7148 18.1074C59.6406 17.9707 59.5254 17.8613 59.3691 17.7793C59.2129 17.6934 59.0156 17.6504 58.7773 17.6504C58.5625 17.6504 58.3809 17.6855 58.2324 17.7559C58.0879 17.8262 57.9785 17.918 57.9043 18.0312C57.8301 18.1445 57.793 18.2695 57.793 18.4062C57.793 18.5078 57.8125 18.5996 57.8516 18.6816C57.8945 18.7598 57.9629 18.832 58.0566 18.8984C58.1504 18.9648 58.2773 19.0254 58.4375 19.0801C58.6016 19.1348 58.8027 19.1875 59.041 19.2383C59.5137 19.332 59.9258 19.457 60.2773 19.6133C60.6328 19.7656 60.9102 19.9688 61.1094 20.2227C61.3086 20.4766 61.4082 20.8008 61.4082 21.1953C61.4082 21.4766 61.3477 21.7344 61.2266 21.9688C61.1055 22.1992 60.9297 22.4004 60.6992 22.5723C60.4688 22.7441 60.1934 22.8789 59.873 22.9766C59.5527 23.0703 59.1914 23.1172 58.7891 23.1172C58.207 23.1172 57.7148 23.0137 57.3125 22.8066C56.9102 22.5957 56.6055 22.3301 56.3984 22.0098C56.1914 21.6855 56.0879 21.3496 56.0879 21.002H57.5703C57.582 21.248 57.6484 21.4453 57.7695 21.5938C57.8906 21.7422 58.043 21.8496 58.2266 21.916C58.4141 21.9785 58.6113 22.0098 58.8184 22.0098C59.0527 22.0098 59.25 21.9785 59.4102 21.916C59.5703 21.8496 59.6914 21.7617 59.7734 21.6523C59.8555 21.5391 59.8965 21.4102 59.8965 21.2656ZM64.1328 13.9941V23H62.5859V13.9941H64.1328ZM68.1055 16.6602L65.3457 19.7598L63.8516 21.2773L63.3594 20.0762L64.5137 18.623L66.2363 16.6602H68.1055ZM66.5234 23L64.5605 20.0469L65.5918 19.0449L68.3164 23H66.5234ZM71.9258 16.6602V17.7734H68.293V16.6602H71.9258ZM69.2656 15.1016H70.8184V21.1719C70.8184 21.3594 70.8438 21.5039 70.8945 21.6055C70.9453 21.707 71.0215 21.7754 71.123 21.8105C71.2246 21.8457 71.3457 21.8633 71.4863 21.8633C71.5879 21.8633 71.6816 21.8574 71.7676 21.8457C71.8535 21.834 71.9258 21.8223 71.9844 21.8105L71.9902 22.9707C71.8613 23.0137 71.7148 23.0488 71.5508 23.0762C71.3906 23.1035 71.209 23.1172 71.0059 23.1172C70.6582 23.1172 70.3535 23.0586 70.0918 22.9414C69.8301 22.8203 69.627 22.627 69.4824 22.3613C69.3379 22.0918 69.2656 21.7363 69.2656 21.2949V15.1016Z" fill="#373737"/>
<defs>
<clipPath id="clip0_757_1355">
<rect width="73" height="55" fill="white" transform="translate(12 30)"/>
</clipPath>
</defs>
</svg>
