<svg width="94" height="94" viewBox="0 0 94 94" fill="none" xmlns="http://www.w3.org/2000/svg">
<rect width="94" height="94" rx="10" fill="#BEFFB8"/>
<g clip-path="url(#clip0_35_1544)">
<path d="M20.4869 41.7937C20.4869 41.7937 51.8671 58.9717 48.13 73.0372C48.13 73.0372 19.5416 64.5397 20.4869 41.7937Z" fill="#359A60"/>
<path d="M49.4029 75.1254L47.5139 74.576C47.2263 74.5024 17.6934 65.4191 18.6379 41.7573L18.7613 39.0105L21.3897 40.4385C22.7043 41.1715 53.8795 58.3867 49.8131 73.4037L49.4029 75.1254ZM22.335 44.797C23.6497 60.6206 40.6132 68.4952 46.6103 70.7662C46.7745 61.5 31.289 50.182 22.335 44.797Z" fill="#4C2F1B"/>
<path d="M10.2592 46.8851C10.2592 46.8851 17.981 78.6044 50.9635 78.6044C51.0052 78.6051 41.1884 47.2516 10.2592 46.8851Z" fill="#33AC64"/>
<path d="M50.9635 80.2168C16.9131 80.2168 8.57521 47.5817 8.49267 47.2516L8 45.2735L10.2591 45.3099C42.1737 45.6764 52.6066 77.8722 52.6891 78.2023L53.346 80.2532L50.9635 80.2168C51.0052 80.2168 50.9635 80.2168 50.9635 80.2168ZM12.6416 48.6068C14.8599 55.2727 23.6905 75.6383 48.4584 76.9199C45.7058 70.2905 35.5605 50.182 12.6416 48.6068Z" fill="#4C2F1B"/>
<path d="M73.2264 43.8455C73.2264 43.8455 42.8723 62.4158 47.4314 76.2977C47.4314 76.2969 75.4846 66.5178 73.2264 43.8455Z" fill="#359A60"/>
<path d="M46.281 78.4587L45.7058 76.7735C40.8182 61.9393 70.9255 43.3325 72.1984 42.5267L74.7452 40.9515L75.0328 43.699C77.3736 67.2872 48.4167 77.6893 48.0883 77.7993L46.281 78.4587ZM71.5415 46.9215C62.9569 52.7088 48.1291 64.7225 48.8269 73.9895C54.6606 71.3891 71.1723 62.7451 71.5415 46.9215Z" fill="#4C2F1B"/>
<path d="M83.9468 47.5817C83.9468 47.5817 47.5956 62.6351 49.6905 78.2387C49.7314 78.2387 81.7693 72.2314 83.9468 47.5817Z" fill="#33AC64"/>
<path d="M48.1709 80.1796L47.9241 78.4215C45.7058 61.8293 81.6877 46.7387 83.2065 46.1157L86 44.9442L85.7533 47.691C83.4941 73.2573 50.43 79.7403 50.0598 79.8131L48.1709 80.1796ZM81.7285 50.3649C73.719 54.0639 52.3607 65.0162 51.457 76.1505C58.1102 74.3924 78.1964 67.7265 81.7285 50.3649Z" fill="#4C2F1B"/>
<path d="M46.4461 34.0291C48.3768 34.0291 50.2657 34.8714 51.3336 36.593L72.8154 71.5728C74.8277 74.8697 72.1585 78.9352 67.9278 78.9352H24.9235C20.6928 78.9352 18.0227 74.9061 20.0359 71.5728L41.5594 36.593C42.6255 34.8714 44.5145 34.0291 46.4461 34.0291ZM46.4461 30C42.7498 30 39.3811 31.7945 37.6146 34.6513L16.092 69.6311C14.3673 72.4514 14.4081 75.7848 16.2562 78.5315C18.1044 81.2791 21.3497 82.9272 24.9226 82.9272H67.927C71.5416 82.9272 74.786 81.2791 76.5933 78.5315C78.4415 75.7848 78.4832 72.4514 76.7576 69.6311L55.2767 34.6513C53.5102 31.7581 50.1015 30 46.4461 30Z" fill="#4C2F1B"/>
<path d="M38.6 59.4118C38.4358 59.4118 38.3124 59.4118 38.1482 59.3754C36.5468 59.1925 35.6014 57.9466 35.5197 57.8002C35.2321 57.4337 35.3555 56.9207 35.7665 56.7015C36.1766 56.445 36.7518 56.555 36.9986 56.9215C37.1628 57.1415 37.738 57.6909 38.3958 57.8009C38.8476 57.8373 39.3403 57.6909 39.8338 57.288C40.2031 56.9951 40.7783 57.0315 41.1067 57.3616C41.4352 57.6909 41.3943 58.2038 41.025 58.4967C40.2848 59.1189 39.4628 59.4118 38.6 59.4118Z" fill="#F9E39E"/>
<path d="M51.2511 36.0801L74.1291 71.4992C76.2649 74.7953 73.5956 78.9345 69.3233 78.9345H23.5263C19.2548 78.9345 16.5847 74.7953 18.7204 71.4992L41.6393 36.1165C43.7759 32.784 49.1153 32.784 51.2511 36.0801Z" fill="#FAF7BD"/>
<path d="M29.7285 53.6982L16.3379 71.5356C14.2022 74.8317 16.8723 78.9709 21.1438 78.9709L50.1423 78.9345C40.1613 73.843 32.1518 57.7637 29.7285 53.6982Z" fill="#3AB26C"/>
<path d="M38.7233 63.8074C38.5591 63.8074 38.4357 63.8074 38.2715 63.771C36.6701 63.5874 35.7247 62.3422 35.6431 62.1958C35.3555 61.8293 35.4788 61.3164 35.8898 61.0971C36.3008 60.8406 36.876 60.9506 37.1219 61.3171C37.2861 61.5372 37.8614 62.0865 38.5182 62.1965C38.9701 62.2701 39.4627 62.0865 39.9563 61.6836C40.3264 61.3907 40.9008 61.4271 41.2301 61.7572C41.5585 62.0865 41.5177 62.5994 41.1475 62.8923C40.4081 63.4774 39.5861 63.8074 38.7233 63.8074ZM38.0664 59.4118C37.9022 59.4118 37.7788 59.4118 37.6146 59.3754C36.0132 59.1925 35.0679 57.9466 34.9862 57.8002C34.6986 57.4337 34.8219 56.9207 35.2329 56.7015C35.6431 56.445 36.2183 56.555 36.465 56.9215C36.6292 57.1415 37.2045 57.6909 37.8614 57.8009C38.3132 57.8373 38.8058 57.6909 39.2994 57.288C39.6695 56.9951 40.2439 57.0315 40.5732 57.3616C40.9016 57.6909 40.8608 58.2038 40.4906 58.4967C39.7095 59.1189 38.8875 59.4118 38.0664 59.4118Z" fill="#F9E39E"/>
<path d="M45.4182 75.6747C31.0015 74.7961 22.9503 60.767 22.6218 60.1448L25.0452 59.0461C25.1277 59.1925 32.7262 72.4522 45.6233 73.2209L45.4182 75.6747Z" fill="#2D9556"/>
<path d="M21.4314 80.2168L19.0906 78.9716C19.3373 78.6416 24.9643 70.4376 40.4081 66.7743L41.1058 69.1181C26.6891 72.5615 21.4722 80.1432 21.4314 80.2168Z" fill="#2D9556"/>
<path d="M29.2766 54.2111C29.4 54.2111 29.5642 54.2847 29.6468 54.394C32.6045 59.0453 40.0388 74.0631 50.1432 78.9345H21.9657C17.4475 78.9345 14.6131 74.7953 16.8723 71.4992L28.9482 54.394C29.0299 54.284 29.1533 54.2111 29.2766 54.2111ZM29.2766 50.182C27.5519 50.182 25.9905 50.9514 25.0877 52.2694L13.0517 69.3746V69.411C11.1628 72.1578 11.0802 75.4911 12.8467 78.2751C14.654 81.1691 18.1452 82.9636 21.9657 82.9636L50.1423 82.9272H68.0512L52.2781 75.3819C44.9672 71.9021 38.7233 61.1699 35.3554 55.4199C34.6577 54.2483 34.0825 53.2225 33.5481 52.4166C32.6853 51.0243 31.0423 50.182 29.2766 50.182Z" fill="#4C2F1B"/>
<path d="M63.9839 55.7856C57.7 66.4806 43.6109 77.2856 41.0641 78.9345H69.3233C73.5956 78.9345 76.3057 74.7953 74.1291 71.4992L63.9839 55.7856Z" fill="#3AB26C"/>
<path d="M46.0351 82.1942L45.3773 79.8503C63.2444 75.7848 70.1861 62.4523 70.2686 62.3051L72.7337 63.2945C72.4461 63.8803 65.1751 77.8358 46.0351 82.1942Z" fill="#2D9556"/>
<path d="M63.9022 81.3883L61.2738 80.839C64.0256 70.2176 58.9738 59.4854 58.9321 59.3754L61.438 58.4231C61.6014 58.8996 66.8591 69.9968 63.9022 81.3883Z" fill="#2D9556"/>
<path d="M55.9336 59.0089C55.7693 59.0089 55.646 59.0089 55.4817 58.9725C53.8803 58.7896 52.935 57.5445 52.8533 57.3973C52.5657 57.0315 52.6891 56.5186 53.1001 56.2985C53.5102 56.0421 54.0854 56.1521 54.3322 56.5186C54.4964 56.7386 55.0716 57.288 55.7293 57.3973C56.1812 57.4337 56.6738 57.2872 57.1674 56.8843C57.5366 56.5914 58.1119 56.6279 58.4403 56.9579C58.7687 57.288 58.7279 57.8002 58.3578 58.0938C57.6175 58.716 56.7964 59.0089 55.9336 59.0089ZM47.1846 69.2646C47.0204 69.2646 46.897 69.2646 46.7328 69.2282C45.1306 69.0453 44.1861 67.8001 44.1044 67.6537C43.8168 67.2872 43.9402 66.7743 44.3512 66.555C44.7621 66.2985 45.3373 66.4085 45.5832 66.775C45.7475 66.9951 46.3227 67.5444 46.9796 67.6544C47.4314 67.6909 47.9241 67.5444 48.4176 67.1415C48.7877 66.8486 49.3621 66.885 49.6905 67.2144C50.019 67.5444 49.9781 68.0566 49.6088 68.3502C48.8277 68.9717 48.0066 69.2646 47.1846 69.2646ZM56.0569 63.6238C55.8927 63.6238 55.7693 63.6238 55.6051 63.5874C54.0037 63.4045 53.0584 62.1594 52.9767 62.0129C52.6891 61.6464 52.8125 61.1335 53.2234 60.9142C53.6344 60.6577 54.2096 60.7678 54.4555 61.1343C54.6198 61.3543 55.195 61.9037 55.8519 62.0137C56.3037 62.0501 56.7964 61.9037 57.2899 61.5007C57.66 61.2079 58.2344 61.2443 58.5637 61.5736C58.8921 61.9037 58.8513 62.4158 58.4811 62.7095C57.7409 63.2945 56.9189 63.6238 56.0569 63.6238Z" fill="#F9E39E"/>
<path d="M63.9839 56.8843C64.3124 56.8843 64.6417 57.0308 64.8467 57.2872L74.4168 71.462C76.6351 74.7581 73.8416 78.8973 69.3641 78.8973H41.1059C43.6526 77.3592 57.9877 67.5057 63.0803 57.3965C63.2036 57.0679 63.5738 56.8843 63.9839 56.8843ZM63.9839 52.8924C61.8065 52.8924 59.8349 54.0283 58.9313 55.7864C54.4956 64.504 41.516 73.8074 38.5174 75.6383L26.524 83H69.3233C73.1021 83 76.5934 81.2055 78.4007 78.3487C80.1671 75.5283 80.1254 72.2321 78.2364 69.4482L68.6664 55.2734C67.6811 53.7718 65.9146 52.8924 63.9839 52.8924Z" fill="#4C2F1B"/>
<path d="M44.0635 44.4677C43.8993 44.4677 43.6934 44.4677 43.53 44.4312C41.9278 44.1748 41.065 42.9296 40.9425 42.7832C40.6957 42.4174 40.8191 41.9045 41.2709 41.6844C41.681 41.4644 42.2562 41.5744 42.503 41.9409C42.6672 42.161 43.2016 42.7467 43.8585 42.8568C44.3103 42.9304 44.803 42.7832 45.2965 42.381C45.6658 42.0881 46.241 42.161 46.5694 42.491C46.8979 42.8211 46.8162 43.3333 46.4469 43.6269C45.6649 44.1748 44.8847 44.4677 44.0635 44.4677ZM47.1029 38.7176C46.9387 38.7176 46.7337 38.7176 46.5686 38.6812C44.9672 38.4247 44.1044 37.1796 43.981 37.0331C43.7342 36.6666 43.8576 36.1537 44.2686 35.9344C44.6796 35.7144 45.2548 35.8244 45.5007 36.1909C45.6649 36.4109 46.1993 36.9967 46.8562 37.1067C47.308 37.1803 47.8007 37.0339 48.2942 36.6302C48.6643 36.3373 49.2387 36.4102 49.568 36.7402C49.8964 37.0703 49.8148 37.5825 49.4446 37.8754C48.7043 38.424 47.9241 38.7176 47.1029 38.7176ZM51.4153 44.3212C51.2511 44.3212 51.046 44.3212 50.8818 44.2848C49.2804 44.0283 48.4176 42.7832 48.2942 42.6367C48.0474 42.2702 48.1717 41.7573 48.6226 41.538C49.0336 41.318 49.6088 41.4287 49.8547 41.7945C50.019 42.0145 50.5525 42.6003 51.2102 42.7103C51.6621 42.7832 52.1547 42.6367 52.6482 42.2338C53.0184 41.9409 53.5927 42.0138 53.922 42.3438C54.2505 42.6739 54.1688 43.1861 53.7987 43.4797C53.0175 44.0283 52.2373 44.3212 51.4153 44.3212ZM50.8401 49.7419C49.4021 49.7419 48.2933 48.8633 48.1708 48.7532C47.8007 48.4604 47.8007 47.9474 48.13 47.6181C48.4584 47.288 49.0336 47.288 49.4029 47.5817C49.6088 47.7646 50.3066 48.1675 50.9635 48.131C51.4153 48.0946 51.8263 47.801 52.1956 47.3252C52.4832 46.9587 53.0584 46.8851 53.4685 47.1416C53.8795 47.3981 53.962 47.911 53.6744 48.2775C52.9758 49.1569 52.113 49.6698 51.1277 49.7427H50.8401V49.7419ZM41.3526 49.4126C40.8191 49.4126 40.3672 49.3026 39.9146 49.0826C38.4766 48.4232 38.0664 46.958 38.0256 46.8115C37.9022 46.3714 38.1898 45.9321 38.6833 45.8221C39.176 45.7128 39.6687 45.9685 39.7512 46.4086C39.8337 46.6651 40.1213 47.3609 40.7374 47.6173C41.1475 47.8002 41.641 47.7638 42.2571 47.5437C42.7089 47.3973 43.2433 47.5802 43.4483 47.9831C43.6126 48.386 43.4075 48.8625 42.9557 49.0454C42.3796 49.3398 41.8453 49.4126 41.3526 49.4126ZM54.7423 54.3204C53.3868 54.3204 52.3598 53.5882 52.2373 53.4782C51.8671 53.1853 51.7854 52.6723 52.1139 52.3423C52.4423 52.0122 52.9767 51.9394 53.3877 52.233C53.5927 52.3794 54.3322 52.7824 54.9891 52.6723C55.4409 52.5987 55.8102 52.3058 56.1803 51.7929C56.4271 51.4272 57.0014 51.28 57.4124 51.5364C57.8225 51.7565 57.9876 52.2687 57.7 52.6352C57.084 53.551 56.262 54.1004 55.2767 54.2468C55.1124 54.284 54.9482 54.3204 54.7423 54.3204ZM47.2263 55.0898C47.0621 55.0898 46.9387 55.0898 46.7745 55.0534C45.1723 54.8698 44.2278 53.6246 44.1461 53.4782C43.8585 53.1117 43.9819 52.5987 44.3928 52.3794C44.803 52.123 45.3782 52.233 45.6249 52.5995C45.7892 52.8195 46.3644 53.3689 47.0213 53.4789C47.4731 53.5153 47.9658 53.3689 48.4593 52.966C48.8286 52.6731 49.4038 52.7095 49.7322 53.0388C50.0607 53.3689 50.0198 53.8811 49.6505 54.1747C48.8686 54.7969 48.0474 55.0898 47.2263 55.0898ZM46.897 59.229C46.7328 59.229 46.6094 59.229 46.4452 59.1925C44.843 59.0089 43.8985 57.7638 43.8168 57.6173C43.5292 57.2508 43.6526 56.7379 44.0635 56.5186C44.4745 56.2621 45.0497 56.3721 45.2956 56.7386C45.4599 56.9587 46.0351 57.508 46.692 57.6181C47.1438 57.6545 47.6365 57.508 48.13 57.1051C48.5001 56.8122 49.0745 56.8487 49.4029 57.178C49.7314 57.508 49.6905 58.0202 49.3212 58.3139C48.5401 58.9361 47.719 59.229 46.897 59.229ZM47.0204 64.2468C46.8562 64.2468 46.7328 64.2468 46.5686 64.2103C44.9672 64.0275 44.0218 62.7823 43.9402 62.6351C43.6526 62.2694 43.7759 61.7565 44.1869 61.5364C44.5971 61.2799 45.1723 61.39 45.419 61.7565C45.5832 61.9765 46.1585 62.5259 46.8153 62.6351C47.2672 62.6715 47.7598 62.5251 48.2534 62.1222C48.6235 61.8293 49.1979 61.8657 49.5272 62.1958C49.8556 62.5259 49.8148 63.038 49.4446 63.3309C48.6635 63.9539 47.8832 64.2468 47.0204 64.2468ZM39.0518 54.7233C38.8875 54.7233 38.7642 54.7233 38.5999 54.6869C36.9977 54.504 36.0532 53.2589 35.9715 53.1117C35.6839 52.7459 35.8073 52.233 36.2183 52.013C36.6293 51.7565 37.2045 51.8665 37.4504 52.233C37.6146 52.4531 38.1898 53.0024 38.8467 53.1117C39.2985 53.1481 39.7912 53.0016 40.2847 52.5987C40.6549 52.3058 41.2292 52.3423 41.5585 52.6723C41.8869 53.0024 41.8461 53.5146 41.476 53.8075C40.7365 54.394 39.9146 54.7233 39.0518 54.7233Z" fill="#F9E39E"/>
</g>
<path d="M19.9414 21.3301L22.0684 14.4688H23.8555L20.8438 23H19.6543L19.9414 21.3301ZM17.9785 14.4688L20.0938 21.3301L20.3984 23H19.1973L16.1973 14.4688H17.9785ZM27.207 23.1172C26.7266 23.1172 26.2949 23.0391 25.9121 22.8828C25.5293 22.7266 25.2031 22.5098 24.9336 22.2324C24.668 21.9512 24.4629 21.625 24.3184 21.2539C24.1777 20.8789 24.1074 20.4766 24.1074 20.0469V19.8125C24.1074 19.3242 24.1777 18.8809 24.3184 18.4824C24.459 18.0801 24.6582 17.7344 24.916 17.4453C25.1738 17.1562 25.4824 16.9336 25.8418 16.7773C26.2012 16.6211 26.5977 16.543 27.0312 16.543C27.4805 16.543 27.877 16.6191 28.2207 16.7715C28.5645 16.9199 28.8516 17.1309 29.082 17.4043C29.3125 17.6777 29.4863 18.0059 29.6035 18.3887C29.7207 18.7676 29.7793 19.1875 29.7793 19.6484V20.2988H24.8105V19.2324H28.2559V19.1152C28.248 18.8691 28.2012 18.6445 28.1152 18.4414C28.0293 18.2344 27.8965 18.0703 27.7168 17.9492C27.5371 17.8242 27.3047 17.7617 27.0195 17.7617C26.7891 17.7617 26.5879 17.8125 26.416 17.9141C26.248 18.0117 26.1074 18.1523 25.9941 18.3359C25.8848 18.5156 25.8027 18.7305 25.748 18.9805C25.6934 19.2305 25.666 19.5078 25.666 19.8125V20.0469C25.666 20.3125 25.7012 20.5586 25.7715 20.7852C25.8457 21.0117 25.9531 21.209 26.0938 21.377C26.2383 21.541 26.4102 21.6699 26.6094 21.7637C26.8125 21.8535 27.043 21.8984 27.3008 21.8984C27.625 21.8984 27.918 21.8359 28.1797 21.7109C28.4453 21.582 28.6758 21.3926 28.8711 21.1426L29.6504 21.9512C29.5176 22.1465 29.3379 22.334 29.1113 22.5137C28.8887 22.6934 28.6191 22.8398 28.3027 22.9531C27.9863 23.0625 27.6211 23.1172 27.207 23.1172ZM34.8477 16.6602H36.2539V22.8066C36.2539 23.3809 36.1289 23.8672 35.8789 24.2656C35.6328 24.668 35.2871 24.9727 34.8418 25.1797C34.3965 25.3906 33.8789 25.4961 33.2891 25.4961C33.0352 25.4961 32.7598 25.4609 32.4629 25.3906C32.1699 25.3203 31.8867 25.209 31.6133 25.0566C31.3438 24.9082 31.1191 24.7148 30.9395 24.4766L31.6367 23.5625C31.8477 23.8086 32.0859 23.9941 32.3516 24.1191C32.6172 24.248 32.9043 24.3125 33.2129 24.3125C33.5254 24.3125 33.791 24.2539 34.0098 24.1367C34.2324 24.0234 34.4023 23.8555 34.5195 23.6328C34.6406 23.4141 34.7012 23.1445 34.7012 22.8242V18.1074L34.8477 16.6602ZM30.5645 19.9062V19.7832C30.5645 19.2988 30.623 18.8594 30.7402 18.4648C30.8574 18.0664 31.0254 17.7246 31.2441 17.4395C31.4668 17.1543 31.7344 16.9336 32.0469 16.7773C32.3633 16.6211 32.7188 16.543 33.1133 16.543C33.5312 16.543 33.8828 16.6191 34.168 16.7715C34.457 16.9238 34.6953 17.1406 34.8828 17.4219C35.0742 17.7031 35.2227 18.0371 35.3281 18.4238C35.4375 18.8066 35.5215 19.2285 35.5801 19.6895V20.0234C35.5254 20.4727 35.4375 20.8848 35.3164 21.2598C35.1992 21.6348 35.043 21.9629 34.8477 22.2441C34.6523 22.5215 34.4102 22.7363 34.1211 22.8887C33.832 23.041 33.4922 23.1172 33.1016 23.1172C32.7109 23.1172 32.3594 23.0371 32.0469 22.877C31.7344 22.7168 31.4668 22.4922 31.2441 22.2031C31.0254 21.9141 30.8574 21.5742 30.7402 21.1836C30.623 20.793 30.5645 20.3672 30.5645 19.9062ZM32.1113 19.7832V19.9062C32.1113 20.1797 32.1387 20.4355 32.1934 20.6738C32.248 20.9121 32.332 21.123 32.4453 21.3066C32.5586 21.4863 32.7012 21.627 32.873 21.7285C33.0449 21.8301 33.25 21.8809 33.4883 21.8809C33.8086 21.8809 34.0703 21.8145 34.2734 21.6816C34.4805 21.5449 34.6367 21.3594 34.7422 21.125C34.8516 20.8867 34.9219 20.6191 34.9531 20.3223V19.4023C34.9336 19.168 34.8906 18.9512 34.8242 18.752C34.7617 18.5527 34.6738 18.3809 34.5605 18.2363C34.4473 18.0918 34.3027 17.9785 34.127 17.8965C33.9512 17.8145 33.7422 17.7734 33.5 17.7734C33.2656 17.7734 33.0605 17.8262 32.8848 17.9316C32.709 18.0332 32.5645 18.1758 32.4512 18.3594C32.3379 18.543 32.252 18.7559 32.1934 18.998C32.1387 19.2402 32.1113 19.502 32.1113 19.7832ZM40.4961 23.1172C40.0156 23.1172 39.584 23.0391 39.2012 22.8828C38.8184 22.7266 38.4922 22.5098 38.2227 22.2324C37.957 21.9512 37.752 21.625 37.6074 21.2539C37.4668 20.8789 37.3965 20.4766 37.3965 20.0469V19.8125C37.3965 19.3242 37.4668 18.8809 37.6074 18.4824C37.748 18.0801 37.9473 17.7344 38.2051 17.4453C38.4629 17.1562 38.7715 16.9336 39.1309 16.7773C39.4902 16.6211 39.8867 16.543 40.3203 16.543C40.7695 16.543 41.166 16.6191 41.5098 16.7715C41.8535 16.9199 42.1406 17.1309 42.3711 17.4043C42.6016 17.6777 42.7754 18.0059 42.8926 18.3887C43.0098 18.7676 43.0684 19.1875 43.0684 19.6484V20.2988H38.0996V19.2324H41.5449V19.1152C41.5371 18.8691 41.4902 18.6445 41.4043 18.4414C41.3184 18.2344 41.1855 18.0703 41.0059 17.9492C40.8262 17.8242 40.5938 17.7617 40.3086 17.7617C40.0781 17.7617 39.877 17.8125 39.7051 17.9141C39.5371 18.0117 39.3965 18.1523 39.2832 18.3359C39.1738 18.5156 39.0918 18.7305 39.0371 18.9805C38.9824 19.2305 38.9551 19.5078 38.9551 19.8125V20.0469C38.9551 20.3125 38.9902 20.5586 39.0605 20.7852C39.1348 21.0117 39.2422 21.209 39.3828 21.377C39.5273 21.541 39.6992 21.6699 39.8984 21.7637C40.1016 21.8535 40.332 21.8984 40.5898 21.8984C40.9141 21.8984 41.207 21.8359 41.4688 21.7109C41.7344 21.582 41.9648 21.3926 42.1602 21.1426L42.9395 21.9512C42.8066 22.1465 42.627 22.334 42.4004 22.5137C42.1777 22.6934 41.9082 22.8398 41.5918 22.9531C41.2754 23.0625 40.9102 23.1172 40.4961 23.1172ZM47.1055 16.6602V17.7734H43.4727V16.6602H47.1055ZM44.4453 15.1016H45.998V21.1719C45.998 21.3594 46.0234 21.5039 46.0742 21.6055C46.125 21.707 46.2012 21.7754 46.3027 21.8105C46.4043 21.8457 46.5254 21.8633 46.666 21.8633C46.7676 21.8633 46.8613 21.8574 46.9473 21.8457C47.0332 21.834 47.1055 21.8223 47.1641 21.8105L47.1699 22.9707C47.041 23.0137 46.8945 23.0488 46.7305 23.0762C46.5703 23.1035 46.3887 23.1172 46.1855 23.1172C45.8379 23.1172 45.5332 23.0586 45.2715 22.9414C45.0098 22.8203 44.8066 22.627 44.6621 22.3613C44.5176 22.0918 44.4453 21.7363 44.4453 21.2949V15.1016ZM51.6289 21.6523V18.7285C51.6289 18.5137 51.5918 18.3281 51.5176 18.1719C51.4434 18.0156 51.3301 17.8945 51.1777 17.8086C51.0254 17.7227 50.832 17.6797 50.5977 17.6797C50.3906 17.6797 50.209 17.7148 50.0527 17.7852C49.9004 17.8555 49.7832 17.9551 49.7012 18.084C49.6191 18.209 49.5781 18.3535 49.5781 18.5176H48.0254C48.0254 18.2559 48.0879 18.0078 48.2129 17.7734C48.3379 17.5352 48.5156 17.3242 48.7461 17.1406C48.9805 16.9531 49.2598 16.8066 49.584 16.7012C49.9121 16.5957 50.2793 16.543 50.6855 16.543C51.166 16.543 51.5938 16.625 51.9688 16.7891C52.3477 16.9492 52.6445 17.1914 52.8594 17.5156C53.0781 17.8398 53.1875 18.248 53.1875 18.7402V21.5059C53.1875 21.8223 53.207 22.0938 53.2461 22.3203C53.2891 22.543 53.3516 22.7363 53.4336 22.9004V23H51.8574C51.7832 22.8398 51.7266 22.6367 51.6875 22.3906C51.6484 22.1406 51.6289 21.8945 51.6289 21.6523ZM51.8457 19.1387L51.8574 20.0586H50.8789C50.6367 20.0586 50.4238 20.084 50.2402 20.1348C50.0566 20.1816 49.9062 20.252 49.7891 20.3457C49.6719 20.4355 49.584 20.5449 49.5254 20.6738C49.4668 20.7988 49.4375 20.9414 49.4375 21.1016C49.4375 21.2578 49.4727 21.3984 49.543 21.5234C49.6172 21.6484 49.7227 21.748 49.8594 21.8223C50 21.8926 50.1641 21.9277 50.3516 21.9277C50.625 21.9277 50.8633 21.873 51.0664 21.7637C51.2695 21.6504 51.4277 21.5137 51.541 21.3535C51.6543 21.1934 51.7148 21.041 51.7227 20.8965L52.168 21.5645C52.1133 21.7246 52.0312 21.8945 51.9219 22.0742C51.8125 22.2539 51.6719 22.4219 51.5 22.5781C51.3281 22.7344 51.1211 22.8633 50.8789 22.9648C50.6367 23.0664 50.3555 23.1172 50.0352 23.1172C49.625 23.1172 49.2578 23.0352 48.9336 22.8711C48.6094 22.707 48.3535 22.4824 48.166 22.1973C47.9785 21.9121 47.8848 21.5879 47.8848 21.2246C47.8848 20.8887 47.9473 20.5918 48.0723 20.334C48.1973 20.0762 48.3828 19.8594 48.6289 19.6836C48.875 19.5039 49.1797 19.3691 49.543 19.2793C49.9102 19.1855 50.3301 19.1387 50.8027 19.1387H51.8457ZM56.1289 17.9551V23H54.582V16.6602H56.0469L56.1289 17.9551ZM58.0566 16.6191L58.0332 18.0605C57.9473 18.0449 57.8496 18.0332 57.7402 18.0254C57.6348 18.0176 57.5352 18.0137 57.4414 18.0137C57.2031 18.0137 56.9941 18.0469 56.8145 18.1133C56.6348 18.1758 56.4844 18.2676 56.3633 18.3887C56.2461 18.5098 56.1562 18.6582 56.0938 18.834C56.0312 19.0059 55.9961 19.2012 55.9883 19.4199L55.6543 19.3789C55.6543 18.9766 55.6953 18.6035 55.7773 18.2598C55.8594 17.916 55.9785 17.6152 56.1348 17.3574C56.291 17.0996 56.4863 16.9004 56.7207 16.7598C56.959 16.6152 57.2324 16.543 57.541 16.543C57.627 16.543 57.7188 16.5508 57.8164 16.5664C57.918 16.5781 57.998 16.5957 58.0566 16.6191ZM60.5469 16.6602V23H58.9941V16.6602H60.5469ZM58.8887 15.002C58.8887 14.7715 58.9668 14.5801 59.123 14.4277C59.2832 14.2754 59.498 14.1992 59.7676 14.1992C60.0371 14.1992 60.25 14.2754 60.4062 14.4277C60.5664 14.5801 60.6465 14.7715 60.6465 15.002C60.6465 15.2285 60.5664 15.418 60.4062 15.5703C60.25 15.7227 60.0371 15.7988 59.7676 15.7988C59.498 15.7988 59.2832 15.7227 59.123 15.5703C58.9668 15.418 58.8887 15.2285 58.8887 15.002ZM65.5098 21.2656C65.5098 21.1328 65.4746 21.0137 65.4043 20.9082C65.334 20.8027 65.2012 20.707 65.0059 20.6211C64.8145 20.5312 64.5332 20.4473 64.1621 20.3691C63.834 20.2988 63.5312 20.2109 63.2539 20.1055C62.9766 20 62.7383 19.873 62.5391 19.7246C62.3398 19.5723 62.1836 19.3945 62.0703 19.1914C61.9609 18.9844 61.9062 18.7461 61.9062 18.4766C61.9062 18.2148 61.9629 17.9688 62.0762 17.7383C62.1895 17.5039 62.3535 17.2988 62.5684 17.123C62.7832 16.9434 63.0449 16.8027 63.3535 16.7012C63.6621 16.5957 64.0098 16.543 64.3965 16.543C64.9355 16.543 65.3984 16.6309 65.7852 16.8066C66.1758 16.9824 66.4746 17.2246 66.6816 17.5332C66.8887 17.8379 66.9922 18.1816 66.9922 18.5645H65.4453C65.4453 18.3965 65.4062 18.2441 65.3281 18.1074C65.2539 17.9707 65.1387 17.8613 64.9824 17.7793C64.8262 17.6934 64.6289 17.6504 64.3906 17.6504C64.1758 17.6504 63.9941 17.6855 63.8457 17.7559C63.7012 17.8262 63.5918 17.918 63.5176 18.0312C63.4434 18.1445 63.4062 18.2695 63.4062 18.4062C63.4062 18.5078 63.4258 18.5996 63.4648 18.6816C63.5078 18.7598 63.5762 18.832 63.6699 18.8984C63.7637 18.9648 63.8906 19.0254 64.0508 19.0801C64.2148 19.1348 64.416 19.1875 64.6543 19.2383C65.127 19.332 65.5391 19.457 65.8906 19.6133C66.2461 19.7656 66.5234 19.9688 66.7227 20.2227C66.9219 20.4766 67.0215 20.8008 67.0215 21.1953C67.0215 21.4766 66.9609 21.7344 66.8398 21.9688C66.7188 22.1992 66.543 22.4004 66.3125 22.5723C66.082 22.7441 65.8066 22.8789 65.4863 22.9766C65.166 23.0703 64.8047 23.1172 64.4023 23.1172C63.8203 23.1172 63.3281 23.0137 62.9258 22.8066C62.5234 22.5957 62.2188 22.3301 62.0117 22.0098C61.8047 21.6855 61.7012 21.3496 61.7012 21.002H63.1836C63.1953 21.248 63.2617 21.4453 63.3828 21.5938C63.5039 21.7422 63.6562 21.8496 63.8398 21.916C64.0273 21.9785 64.2246 22.0098 64.4316 22.0098C64.666 22.0098 64.8633 21.9785 65.0234 21.916C65.1836 21.8496 65.3047 21.7617 65.3867 21.6523C65.4688 21.5391 65.5098 21.4102 65.5098 21.2656ZM69.7461 13.9941V23H68.1992V13.9941H69.7461ZM73.7188 16.6602L70.959 19.7598L69.4648 21.2773L68.9727 20.0762L70.127 18.623L71.8496 16.6602H73.7188ZM72.1367 23L70.1738 20.0469L71.2051 19.0449L73.9297 23H72.1367ZM77.5391 16.6602V17.7734H73.9062V16.6602H77.5391ZM74.8789 15.1016H76.4316V21.1719C76.4316 21.3594 76.457 21.5039 76.5078 21.6055C76.5586 21.707 76.6348 21.7754 76.7363 21.8105C76.8379 21.8457 76.959 21.8633 77.0996 21.8633C77.2012 21.8633 77.2949 21.8574 77.3809 21.8457C77.4668 21.834 77.5391 21.8223 77.5977 21.8105L77.6035 22.9707C77.4746 23.0137 77.3281 23.0488 77.1641 23.0762C77.0039 23.1035 76.8223 23.1172 76.6191 23.1172C76.2715 23.1172 75.9668 23.0586 75.7051 22.9414C75.4434 22.8203 75.2402 22.627 75.0957 22.3613C74.9512 22.0918 74.8789 21.7363 74.8789 21.2949V15.1016Z" fill="#373737"/>
<defs>
<clipPath id="clip0_35_1544">
<rect width="78" height="53" fill="white" transform="translate(8 30)"/>
</clipPath>
</defs>
</svg>
